<?xml version="1.0"?>
<!DOCTYPE svg PUBLIC "-//W3C//DTD SVG 1.1//EN" "http://www.w3.org/Graphics/SVG/1.1/DTD/svg11.dtd">
<svg version='1.1' width='29px' height='29px' xmlns='http://www.w3.org/2000/svg' xmlns:xlink='http://www.w3.org/1999/xlink'>
		<path d="M 21.6 22.2 Q 24.85 18.95 24.85 14.35 Q 24.85 9.8 21.6 6.5 Q 18.35 3.25 13.75 3.25 Q 9.15 3.25 5.9 6.5 Q 2.65 9.75 2.65 14.35 Q 2.65 18.95 5.9 22.2 Q 9.15 25.45 13.75 25.45 Q 18.35 25.45 21.6 22.2 Z M 28.75 14.35 Q 28.75 20.3 24.55 24.55 Q 20.3 28.75 14.35 28.75 Q 8.4 28.75 4.2 24.55 Q 0 20.3 0 14.35 Q 0 8.45 4.2 4.2 Q 8.45 0 14.35 0 Q 20.3 0 24.55 4.2 Q 28.75 8.4 28.75 14.35 Z" fill="#330A29"/>
	<g transform="translate(2.65,3.25)">
			<path d="M 11.1 0 Q 15.7 0 18.95 3.25 Q 22.2 6.55 22.2 11.1 Q 22.2 15.7 18.95 18.95 Q 15.7 22.2 11.1 22.2 Q 6.5 22.2 3.25 18.95 Q 0 15.7 0 11.1 Q 0 6.5 3.25 3.25 Q 6.5 0 11.1 0 Z M 19.8 11.1 Q 19.8 7.5 17.25 4.95 Q 14.7 2.4 11.1 2.4 Q 7.5 2.4 4.95 4.95 Q 2.4 7.5 2.4 11.1 Q 2.4 14.7 4.95 17.25 Q 7.5 19.8 11.1 19.8 Q 14.7 19.8 17.25 17.25 Q 19.8 14.7 19.8 11.1 Z" fill="#FFFFFF"/>
	</g>
		<path d="M 13.75 5.65 Q 17.35 5.65 19.9 8.2 Q 22.45 10.75 22.45 14.35 Q 22.45 17.95 19.9 20.5 Q 17.35 23.05 13.75 23.05 Q 10.15 23.05 7.6 20.5 Q 5.05 17.95 5.05 14.35 Q 5.05 10.75 7.6 8.2 Q 10.15 5.65 13.75 5.65 Z" fill="#330A29"/>
</svg>
