<?xml version="1.0"?>
<!DOCTYPE svg PUBLIC "-//W3C//DTD SVG 1.1//EN" "http://www.w3.org/Graphics/SVG/1.1/DTD/svg11.dtd">
<svg version='1.1' width='69px' height='57px' xmlns='http://www.w3.org/2000/svg' xmlns:xlink='http://www.w3.org/1999/xlink'>
	<g transform="translate(0.0105263,-0)">
		<path d="M 12.35 3.2 L 16.65 5.25 Q 15.8 7.75 15.25 11.25 Q 10.75 27.6 15.85 36.35 Q 19.1 41.9 24.05 46.35 Q 29.25 51 35.05 53.3 Q 32.3 54.15 29.4 54.45 Q 20.65 55.25 12.85 48.1 Q 5.8 41.65 2.85 32.2 Q 1.95 29.25 2.35 25.5 Q 3 19.45 7 11.85 Q 9.35 7.4 12.35 3.2 Z" fill="#FF98BB"/>
		<path d="M 15.25 11.25 Q 15.8 7.75 16.65 5.25 L 12.35 3.2 Q 9.35 7.4 7 11.85 Q 3 19.45 2.35 25.5 Q 1.95 29.25 2.85 32.2 Q 5.8 41.65 12.85 48.1 Q 20.65 55.25 29.4 54.45 Q 32.3 54.15 35.05 53.3 Q 29.25 51 24.05 46.35 Q 19.1 41.9 15.85 36.35 Q 10.75 27.6 15.25 11.25 Z M 59.15 17.6 Q 53.95 13.75 47.05 14.55 Q 40.2 15.35 36.7 20.05 Q 34 23.75 34.4 28.15 Q 37.9 33.05 41.95 34.1 Q 45.9 35.15 48.85 33.05 Q 51.25 31.4 51.55 28.35 Q 51.7 27.1 51.25 25.75 Q 50.8 24.4 49.95 23.45 Q 48.65 21.95 46.8 21.95 Q 44.75 21.95 43.3 23.7 Q 42.2 25.15 42.5 26.5 L 40.25 27.05 Q 39.6 24.55 41.45 22.25 Q 43.6 19.5 46.8 19.6 Q 49.7 19.6 51.7 21.85 Q 52.9 23.2 53.5 25 Q 54.1 26.8 53.9 28.6 Q 53.5 32.7 50.2 35 Q 46.35 37.7 41.35 36.35 L 40.1 35.95 L 37.65 34.65 L 35.45 32.85 L 34.4 31.8 Q 34.25 31.65 33.95 31.3 L 32.45 29.5 L 30.4 26.25 L 29.1 23.5 Q 26.6 17.45 25.8 11.05 Q 25.4 7.25 25.75 3.8 L 20.8 2.7 Q 18.65 7.8 17.3 12.95 Q 14.95 21.85 15.7 28.3 Q 16.15 32.2 17.9 35.15 Q 23.2 44.25 32.05 49.3 Q 41.9 54.85 50.8 51.9 Q 59.4 49.15 63.5 42.75 Q 67.6 36.3 65.85 28.45 Q 64.3 21.45 59.15 17.6 Z M 46.8 12.2 Q 54.65 11.3 60.55 15.65 Q 66.45 20 68.15 27.95 Q 70.1 36.75 65.6 43.9 Q 61.05 51.05 51.55 54.15 Q 45.25 56.25 38.4 54.4 Q 34.25 56.25 29.55 56.6 Q 20 57.5 11.55 49.85 Q 3.9 43 0.75 32.85 Q -1.8 24.7 4.2 12.4 Q 7.25 6.2 11.15 1.15 L 11.7 0.45 L 17.9 3.45 L 19.4 0 L 28.35 1.95 L 28.2 3.05 Q 27.65 6.55 28.15 10.75 Q 28.6 14.15 29.5 17.35 L 31.25 22.6 L 32.25 24.75 L 32.4 24.05 Q 32.95 21.7 34.2 19.6 L 34.8 18.65 L 35.65 17.6 Q 39.75 13 46.8 12.2 Z" fill="#452454"/>
		<path d="M 47.05 14.55 Q 53.95 13.75 59.15 17.6 Q 64.3 21.45 65.85 28.45 Q 67.6 36.3 63.5 42.75 Q 59.4 49.15 50.8 51.9 Q 41.9 54.85 32.05 49.3 Q 23.2 44.25 17.9 35.15 Q 16.15 32.2 15.7 28.3 Q 14.95 21.85 17.3 12.95 Q 18.65 7.8 20.8 2.7 L 25.75 3.8 Q 25.4 7.25 25.8 11.05 Q 26.6 17.45 29.1 23.5 L 31.7 28.4 L 32.45 29.5 L 32.5 29.55 L 33.95 31.3 Q 34.25 31.65 34.4 31.8 L 35.45 32.85 L 37.65 34.65 L 39.65 35.75 L 40.1 35.95 L 41.35 36.35 Q 46.35 37.7 50.2 35 Q 53.5 32.7 53.9 28.6 Q 54.1 26.8 53.5 25 Q 52.9 23.2 51.7 21.85 Q 49.7 19.6 46.8 19.6 Q 43.6 19.5 41.45 22.25 Q 39.6 24.55 40.25 27.05 L 42.5 26.5 Q 42.2 25.15 43.3 23.7 Q 44.75 21.95 46.8 21.95 Q 48.65 21.95 49.95 23.45 Q 50.8 24.4 51.25 25.75 Q 51.7 27.1 51.55 28.35 Q 51.25 31.4 48.85 33.05 Q 45.9 35.15 41.95 34.1 Q 37.9 33.05 34.4 28.15 Q 34 23.75 36.7 20.05 Q 40.2 15.35 47.05 14.55 Z" fill="#FF98BB"/>
	</g>
</svg>
