<?xml version="1.0"?>
<!DOCTYPE svg PUBLIC "-//W3C//DTD SVG 1.1//EN" "http://www.w3.org/Graphics/SVG/1.1/DTD/svg11.dtd">
<svg version='1.1' width='77px' height='56px' xmlns='http://www.w3.org/2000/svg' xmlns:xlink='http://www.w3.org/1999/xlink'>
		<path d="M 72.4 10.75 Q 72.15 12.7 72.05 14.95 L 71 14.9 Q 70.75 18.6 71.35 23.25 Q 71.75 26.1 72.75 31.2 Q 73.6 35.65 73.85 37.65 Q 74.15 40.8 73.55 41.95 Q 70.15 48.45 56.1 51.45 Q 44.9 53.8 37.95 52.85 Q 29.6 51.7 19.6 45.95 Q 10.15 40.5 3 33.2 L 1.25 34.25 L 1.15 34.15 L 16.05 0 Z" fill="#FFEDC7"/>
		<path d="M 73.9 15.05 Q 73.2 20.1 73.55 24.05 Q 73.8 27.15 74.95 31.2 Q 76.35 36.1 76.65 38.35 Q 77.05 41.5 76.1 43.3 Q 72.35 50.45 56.9 53.4 Q 48.1 55.05 38.1 55.05 Q 30.25 55.05 16.6 47.4 Q 4.05 40.35 0 35.05 L 3 33.2 Q 10.15 40.5 19.6 45.95 Q 29.6 51.7 37.95 52.85 Q 44.9 53.8 56.1 51.45 Q 70.15 48.45 73.55 41.95 Q 74.15 40.8 73.85 37.65 Q 73.6 35.65 72.75 31.2 Q 71.75 26.1 71.35 23.25 Q 70.75 18.6 71 14.9 Z" fill="#452454"/>
</svg>
