<?xml version="1.0"?>
<!DOCTYPE svg PUBLIC "-//W3C//DTD SVG 1.1//EN" "http://www.w3.org/Graphics/SVG/1.1/DTD/svg11.dtd">
<svg version='1.1' width='79px' height='92px' xmlns='http://www.w3.org/2000/svg' xmlns:xlink='http://www.w3.org/1999/xlink'>
		<path d="M 32.4 65.55 Q 32.9 68.6 34.8 72.8 Q 35.05 73.3 36.9 76.45 Q 38.65 79.6 38.55 81.1 Q 38.25 84.5 35.55 86.4 Q 33.25 88.05 29.9 88.2 Q 26.4 88.4 22.65 86.4 Q 18.95 84.45 17.65 81.9 Q 15.35 77.25 17.1 64.05 Q 17.45 61.35 18.35 58.8 Q 19.15 56.35 20.1 55.05 Q 20.1 55.3 20.1 55.35 Q 20.25 55.5 20.4 55.9 Q 23.1 55.9 24.5 55.35 Q 24.9 56.4 26.7 59.45 Q 27.45 59.5 31.35 58.4 Q 31.85 58.95 32.25 59.3 Q 31.6 61.35 32.4 65.55 Z" fill="#FFEDC7"/>
		<path d="M 68.75 68.5 Q 72.15 69.3 74 71.35 Q 76.65 74.2 75.95 79.05 Q 75.65 81.2 74.05 82.7 Q 72.55 84.1 70.15 84.7 Q 67.1 85.5 63.5 84.15 Q 60 82.9 57.25 80.15 Q 54.7 77.6 53.05 74.1 Q 52 71.9 50.85 68.1 Q 51.2 68.05 51.7 67.8 Q 52 67.65 52.65 67.3 Q 53.1 68.2 56.05 70.35 Q 59.3 67 60.35 65.25 Q 60.65 65.3 62.95 66.05 Q 65.45 67.75 68.75 68.5 Z" fill="#FFEDC7"/>
		<path d="M 21.25 46.7 L 31.45 49 Q 38.25 50.75 41.1 51.65 Q 43.5 52.55 46.6 54.1 Q 44.8 55.55 42.05 56.25 Q 39.25 57 37.75 56.35 L 37.05 55 Q 37.1 55.8 36.45 57.6 Q 35.85 59.3 35.3 60 Q 34.25 59.15 33.1 57.5 L 32.15 56 Q 29.35 57.4 28.05 57.1 Q 27.35 56 26.7 54.45 L 26.2 53.15 Q 24.1 53.9 22.35 53.7 Q 22.05 53.15 21.6 51.65 L 21.15 50.25 Q 18.7 49.8 17.8 49.15 Q 18.15 48.5 19.45 47.65 Q 20.55 46.95 21.25 46.7 Z" fill="#FFFFFF"/>
		<path d="M 51.6 56.75 L 54.15 58.4 Q 57.75 60.65 57.95 60.75 Q 56.9 62 56.2 62.2 Q 56.8 62.4 58.25 62.4 Q 59.6 62.35 59.95 62.2 Q 60.5 62.6 62.1 64 L 59.8 63.7 Q 57.1 66.9 55.95 67.9 Q 55.15 67.45 54.1 66 L 53.2 64.6 Q 50.3 67.2 48.75 67.55 Q 48.15 66.85 47.5 65.45 L 47 64.25 Q 44.55 65.25 43.95 65.4 Q 43.8 64.4 44.1 63.25 Q 44.4 62.05 44.95 61.5 Q 45.25 61.65 46.05 61.75 Q 46.95 61.8 47.15 61.9 Q 46 61.25 45.05 60.3 Q 44 59.25 43.7 58.3 L 44.9 57.6 Q 46.5 56.8 48.4 55.2 Q 51.4 56.65 51.6 56.75 Z" fill="#FFFFFF"/>
		<path d="M 35.3 67.6 Q 34.95 67.05 34.8 66.4 Q 34.75 66.1 34.65 65 Q 34.5 62.85 34.75 61.85 L 35.25 62.35 Q 35.8 62.85 36.2 62.9 Q 36.65 62.4 37.4 60.6 L 38.1 58.9 Q 39.8 59 41.55 58.7 Q 42.45 59.6 43.4 60.25 L 42.55 62.9 Q 41.6 65.85 41.8 67.4 Q 42.2 67.5 43.75 67.1 Q 44.6 66.85 45.85 66.45 L 47.7 69.05 L 48.2 70.65 Q 45.45 71.25 40.95 69.95 Q 37.05 68.85 35.3 67.6 Z" fill="#D9DBD4"/>
		<path d="M 5 45.65 Q 4.6 45.05 4.7 44.8 Q 4.85 44.45 5.25 44.45 Q 10.75 44.6 17.2 45.85 L 17.6 46.6 Q 17.25 46.85 16.05 48.25 Q 14.7 49.75 14.75 50 Q 14.8 50.4 18.85 51.4 Q 17.15 53.25 15.55 58.2 Q 10.75 54.05 5 45.65 Z" fill="#D9DBD4"/>
		<path d="M 57.95 60.75 Q 57.75 60.65 54.15 58.4 L 51.6 56.75 Q 51.4 56.65 48.4 55.2 Q 46.5 56.8 44.9 57.6 L 43.7 58.3 Q 44 59.25 45.05 60.3 Q 46 61.25 47.15 61.9 Q 46.95 61.8 46.05 61.75 Q 45.25 61.65 44.95 61.5 Q 44.4 62.05 44.1 63.25 Q 43.8 64.4 43.95 65.4 Q 44.55 65.25 47 64.25 L 47.5 65.45 Q 48.15 66.85 48.75 67.55 Q 50.3 67.2 53.2 64.6 L 54.1 66 Q 55.15 67.45 55.95 67.9 Q 57.1 66.9 59.8 63.7 L 62.1 64 Q 60.5 62.6 59.95 62.2 Q 59.6 62.35 58.25 62.4 Q 56.8 62.4 56.2 62.2 Q 56.9 62 57.95 60.75 Z M 68.75 68.5 Q 65.45 67.75 62.95 66.05 Q 60.65 65.3 60.35 65.25 Q 59.3 67 56.05 70.35 Q 53.1 68.2 52.65 67.3 Q 52 67.65 51.7 67.8 Q 51.2 68.05 50.85 68.1 Q 52 71.9 53.05 74.1 Q 54.7 77.6 57.25 80.15 Q 60 82.9 63.5 84.15 Q 67.1 85.5 70.15 84.7 Q 72.55 84.1 74.05 82.7 Q 75.65 81.2 75.95 79.05 Q 76.65 74.2 74 71.35 Q 72.15 69.3 68.75 68.5 Z M 38.1 58.9 L 37.4 60.6 Q 36.65 62.4 36.2 62.9 Q 35.8 62.85 35.25 62.35 L 34.75 61.85 Q 34.5 62.85 34.65 65 Q 34.75 66.1 34.8 66.4 Q 34.95 67.05 35.3 67.6 Q 37.05 68.85 40.95 69.95 Q 45.45 71.25 48.2 70.65 L 47.7 69.05 L 45.85 66.45 Q 44.6 66.85 43.75 67.1 Q 42.2 67.5 41.8 67.4 Q 41.6 65.85 42.55 62.9 L 43.4 60.25 Q 42.45 59.6 41.55 58.7 Q 39.8 59 38.1 58.9 Z M 32.25 59.3 Q 31.85 58.95 31.35 58.4 Q 27.45 59.5 26.7 59.45 Q 24.9 56.4 24.5 55.35 Q 23.1 55.9 20.4 55.9 Q 20.25 55.5 20.1 55.35 Q 20.1 55.3 20.1 55.05 Q 19.15 56.35 18.35 58.8 Q 17.45 61.35 17.1 64.05 Q 15.35 77.25 17.65 81.9 Q 18.95 84.45 22.65 86.4 Q 26.4 88.4 29.9 88.2 Q 33.25 88.05 35.55 86.4 Q 38.25 84.5 38.55 81.1 Q 38.65 79.6 36.9 76.45 Q 35.05 73.3 34.8 72.8 Q 32.9 68.6 32.4 65.55 Q 31.6 61.35 32.25 59.3 Z M 19.45 47.65 Q 18.15 48.5 17.8 49.15 Q 18.7 49.8 21.15 50.25 L 21.6 51.65 Q 22.05 53.15 22.35 53.7 Q 24.1 53.9 26.2 53.15 L 26.7 54.45 Q 27.35 56 28.05 57.1 Q 29.35 57.4 32.15 56 L 33.1 57.5 Q 34.25 59.15 35.3 60 Q 35.85 59.3 36.45 57.6 Q 37.1 55.8 37.05 55 L 37.75 56.35 Q 39.25 57 42.05 56.25 Q 44.8 55.55 46.6 54.1 Q 43.5 52.55 41.1 51.65 Q 38.25 50.75 31.45 49 L 21.25 46.7 Q 20.55 46.95 19.45 47.65 Z M 5.25 44.45 Q 4.85 44.45 4.7 44.8 Q 4.6 45.05 5 45.65 Q 10.75 54.05 15.55 58.2 Q 17.15 53.25 18.85 51.4 Q 14.8 50.4 14.75 50 Q 14.7 49.75 16.05 48.25 Q 17.25 46.85 17.6 46.6 L 17.2 45.85 Q 10.75 44.6 5.25 44.45 Z M 61.9 0 L 62.45 4.2 Q 60.2 5.5 53.75 10.5 Q 47.15 15.6 44.7 17.05 L 40.8 20.35 Q 37.95 21.65 34 24.3 Q 19.35 34.1 8.1 40.95 Q 16.55 41.3 27.15 44.45 Q 30 45.3 41.8 49.45 Q 54.55 54 65.6 65.2 Q 65.95 65.35 67 65.5 Q 68.2 65.6 68.35 65.65 Q 68.6 64.6 68.05 62.95 Q 67.35 61 65.7 58.95 L 62.2 55.4 L 65.15 56.85 Q 63.55 51.6 62.8 48.1 Q 62.45 45.6 62.4 45.5 L 58.3 40.85 L 61.9 42.75 Q 63.9 35.6 66.95 28.8 L 67.25 28.2 Q 69.2 24 72.3 20.15 Q 73.85 18.2 75 17.1 Q 72.65 20.6 70.1 25.95 Q 64.95 36.55 63.8 45.55 Q 63.85 46.15 67.55 57.4 Q 70.4 61.05 71.05 62.1 Q 72.7 64.95 71.8 66.95 Q 74.85 68.05 77.15 71.55 Q 79.65 75.45 78.75 79.1 Q 77.25 85.2 72.8 86.9 Q 69.1 88.25 64.55 86.85 Q 60 85.4 55.6 81.55 Q 51.65 78.1 48.9 72.45 Q 48.25 72.6 46.5 72.45 Q 44.6 72.35 44.1 72.3 Q 39.4 71.85 35.9 70.2 Q 36.25 71.15 37.85 73.5 Q 38.2 74.15 39.85 76 Q 41.4 77.95 41.65 79.8 Q 42.2 83.65 39.65 86.55 Q 37.3 89.2 32.95 90.55 Q 29.45 91.65 24.4 90.1 Q 18.5 88.35 15.85 83.95 Q 13.6 80.25 13.5 74.2 Q 13.45 70.55 14.4 63.2 Q 14.6 61.4 15.1 59.5 Q 3.35 49.65 0 42.1 Q 16 34 32.9 22.7 Q 36.55 20.25 39 18.25 Q 40.7 16.8 40.85 16.75 Q 42.7 16.3 49.9 10.4 Q 55.7 5.65 61.9 0 Z" fill="#452454"/>
		<path d="M 62.45 4.2 L 62.5 4.15 L 62.5 4.25 L 75 17.1 Q 73.85 18.2 72.3 20.15 Q 69.2 24 67.25 28.2 L 66.95 28.75 L 66.95 28.8 Q 63.9 35.6 61.9 42.75 L 58.3 40.85 L 62.4 45.5 Q 62.45 45.6 62.8 48.1 Q 63.55 51.6 65.15 56.85 L 62.2 55.4 L 65.7 58.95 Q 67.35 61 68.05 62.95 Q 68.6 64.6 68.35 65.65 Q 68.2 65.6 67 65.5 Q 65.95 65.35 65.6 65.2 Q 54.55 54 41.8 49.45 Q 30 45.3 27.15 44.45 Q 16.55 41.3 8.1 40.95 Q 19.35 34.1 34 24.3 Q 37.95 21.65 40.8 20.35 L 44.7 17.05 Q 47.15 15.6 53.75 10.5 Q 60.2 5.5 62.45 4.2 Z" fill="#FFFFFF"/>
</svg>
