<?xml version="1.0"?>
<!DOCTYPE svg PUBLIC "-//W3C//DTD SVG 1.1//EN" "http://www.w3.org/Graphics/SVG/1.1/DTD/svg11.dtd">
<svg version='1.1' width='23px' height='23px' xmlns='http://www.w3.org/2000/svg' xmlns:xlink='http://www.w3.org/1999/xlink'>
		<path d="M 11.1 0 Q 15.7 0 18.95 3.25 Q 22.2 6.55 22.2 11.1 Q 22.2 15.7 18.95 18.95 Q 15.7 22.2 11.1 22.2 Q 6.5 22.2 3.25 18.95 Q 0 15.7 0 11.1 Q 0 6.5 3.25 3.25 Q 6.5 0 11.1 0 Z M 19.8 11.1 Q 19.8 7.5 17.25 4.95 Q 14.7 2.4 11.1 2.4 Q 7.5 2.4 4.95 4.95 Q 2.4 7.5 2.4 11.1 Q 2.4 14.7 4.95 17.25 Q 7.5 19.8 11.1 19.8 Q 14.7 19.8 17.25 17.25 Q 19.8 14.7 19.8 11.1 Z" fill="#FFFFFF"/>
</svg>
