<?xml version="1.0"?>
<!DOCTYPE svg PUBLIC "-//W3C//DTD SVG 1.1//EN" "http://www.w3.org/Graphics/SVG/1.1/DTD/svg11.dtd">
<svg version='1.1' width='60px' height='43px' xmlns='http://www.w3.org/2000/svg' xmlns:xlink='http://www.w3.org/1999/xlink'>
		<path d="M 45.15 42.15 Q 39.6 42.4 35.15 40.2 Q 28.1 36.75 16.75 25.9 Q 4.9 14.7 0 6.35 L 9.95 0 Q 13.5 4.45 19.95 9.25 Q 27 14.45 33.15 16.75 Q 35.5 17.6 38.7 18.2 Q 40.55 18.55 44.55 19.05 Q 51.15 19.95 53.7 20.85 Q 57.9 22.4 58.75 25.75 Q 60.85 34.05 55.15 38.65 Q 51.2 41.85 45.15 42.15 Z" fill="#452454"/>
		<path d="M 44.7 21.1 Q 49.2 21.7 51.85 23.1 Q 54.4 24.45 55.7 26.9 Q 57.1 29.6 56.25 32.7 Q 55.45 35.6 53.1 37.5 Q 49.75 40.2 44.45 40 Q 39.55 39.85 35 37.4 Q 26.6 32.9 16.35 22.25 Q 6.35 11.85 3.1 4.55 L 8.55 1.15 Q 12.35 5.9 19.05 10.9 Q 26.25 16.3 32.8 18.7 Q 36.7 20.1 44.7 21.1 Z" fill="#FFEDC7"/>
</svg>
