<?xml version="1.0"?>
<!DOCTYPE svg PUBLIC "-//W3C//DTD SVG 1.1//EN" "http://www.w3.org/Graphics/SVG/1.1/DTD/svg11.dtd">
<svg version='1.1' width='208px' height='133px' xmlns='http://www.w3.org/2000/svg' xmlns:xlink='http://www.w3.org/1999/xlink'>
		<path d="M 75.9 105.8 L 70.65 107.45 L 70.6 105.4 L 75.35 104.1 Q 80 102.85 82.85 101.8 L 84.4 103.35 Q 81.35 104.35 75.9 105.8 Z" fill="#452454"/>
		<path d="M 92.5 95.45 L 92.05 95.2 Q 90.15 94.35 87.5 95.35 Q 85.65 96.05 84.15 97.4 Q 82.6 98.7 82.1 100 L 81.8 100.75 L 82.85 101.8 Q 80 102.85 75.35 104.1 L 70.6 105.4 L 70.6 104.9 L 70.1 104.55 Q 67.85 102.95 64.6 104.1 Q 63.05 104.65 61.85 105.6 Q 60.45 106.65 60.1 107.85 L 59.95 108.35 L 60.45 109.05 Q 58.9 109.75 57.9 110.4 Q 56.85 111.05 56 111.85 Q 50.05 117.05 46.95 125.1 Q 46.5 119.8 48.6 115.05 Q 50.75 110.2 54.8 107.65 Q 57.15 106.15 61.65 104.35 Q 63.85 103.45 70.15 101.15 Q 78.75 98.1 86.05 93.45 Q 91.35 90.1 93.35 88.3 Q 96.7 85.3 99.35 80.3 L 99.75 79.45 L 105.5 82.2 Q 101.2 91.55 92.95 97 Z" fill="#A31AFA"/>
		<path d="M 96.65 49.15 Q 94.85 44.15 93.7 40.25 Q 94.6 42.25 96.25 43.2 L 96.8 43.5 L 99.55 41.9 L 102.65 48.6 L 102.45 48.7 Q 100.4 49.65 100.25 52.3 Q 100.05 54.3 101 56.4 Q 101.95 58.45 103.55 59.5 L 104.05 59.85 L 106.85 58.6 Q 109.55 67.5 107.6 76 L 101.3 72.9 Q 101.65 69.1 101.25 64.9 Q 100.8 60.75 99.65 57.3 Z" fill="#A31AFA"/>
		<path d="M 94.3 33.7 Q 92.75 34.95 93 37.65 L 93.05 38 Q 90.6 29.45 89.75 22.1 Q 88.55 11.7 97.05 4.75 Q 93.2 12.45 93.65 21.75 Q 93.95 27 96.15 33.4 L 94.6 33.5 Z" fill="#A31AFA"/>
		<path d="M 7 48.45 L 24.9 43.15 L 41.45 51.15 L 30.3 57.9 Z" fill="#574A5C"/>
		<path d="M 41.3 34.55 Q 41.4 36.75 42.85 44.65 L 27.65 37.25 L 19.65 19.2 L 24.9 22.85 Q 39.55 33.1 41.3 34.55 Z" fill="#574A5C"/>
		<path d="M 116.8 83 L 116.15 84.8 L 24.35 40.3 L 25 38.55 Z" fill="#A31AFA"/>
		<path d="M 123.75 88.2 Q 127.6 83.2 131.2 80.25 Q 134.75 77.3 140.7 74.05 Q 146.9 70.55 150.95 69.45 L 159.9 78.35 Q 155.55 79.9 148.9 83.9 Q 142.85 87.5 139.25 90.45 Q 134.55 94.35 130 102 Q 125.4 109.65 123.55 116.6 L 121.6 116.7 Q 117.2 108.3 118 97.15 Q 119.9 93.1 123.75 88.2 Z" fill="#574A5C"/>
		<path d="M 162.6 80.9 L 171.2 89.5 Q 167.2 90.75 162.3 93.45 Q 157.4 96.2 153.65 99.25 Q 149.65 102.5 145.8 107.65 Q 141.8 113.05 140.7 116.85 L 126.75 117.4 Q 128.65 110.75 132.9 103.7 Q 137.25 96.55 141.6 92.95 Q 145.35 89.85 151.65 86.15 Q 158.6 82.05 162.6 80.9 Z" fill="#574A5C"/>
		<path d="M 165.45 95.45 Q 170.6 92.7 174.4 91.75 L 181.75 99.1 Q 176.05 100.4 170.25 104.25 Q 166.6 106.7 163.7 109.7 Q 160.25 113.3 158.95 116.7 L 144.4 117.3 Q 145.6 113.8 149.35 108.95 Q 152.95 104.3 156.45 101.4 Q 160.3 98.25 165.45 95.45 Z" fill="#574A5C"/>
		<path d="M 191.45 107.75 Q 189 108.4 185.4 110.3 Q 180.3 113 178.8 116.45 L 162.7 117.1 Q 164.1 114.2 167.2 111.1 Q 169.85 108.5 172.9 106.45 Q 179.2 102.3 185 101.35 Z" fill="#574A5C"/>
		<path d="M 194.7 110 L 200.9 116.1 L 182.75 116.85 Q 184.15 114.65 187.95 112.6 Q 191.75 110.6 194.7 110 Z" fill="#574A5C"/>
		<path d="M 118.2 89.65 Q 118.85 86.5 120 83.3 Q 124.85 70 136 62.95 Q 138.85 61.1 142.35 59.75 L 148.6 65.95 Q 144.25 67.4 138.4 70.75 Q 132.75 73.95 129.25 76.8 Q 126.5 79.1 123.45 82.65 Q 120.55 86.05 118.2 89.65 Z" fill="#574A5C"/>
		<path d="M 103.25 50.95 L 118.45 51.25 L 104.4 57.2 Q 103.5 56.35 102.95 55.05 Q 102.45 53.7 102.55 52.45 Q 102.65 51.35 103.25 50.95 Z" fill="#574A5C"/>
		<path d="M 86.75 98.35 Q 87.25 98 88.35 97.5 Q 89.75 97 90.55 97.15 L 93.6 108.7 L 84.65 100.2 Q 85.45 99.15 86.75 98.35 Z" fill="#574A5C"/>
		<path d="M 24.9 43.15 L 7 48.45 L 30.3 57.9 L 41.45 51.15 Z M 42.85 44.65 Q 41.4 36.75 41.3 34.55 Q 39.55 33.1 24.9 22.85 L 19.65 19.2 L 27.65 37.25 Z M 131.2 80.25 Q 127.6 83.2 123.75 88.2 Q 119.9 93.1 118 97.15 Q 117.2 108.3 121.6 116.7 L 123.55 116.6 Q 125.4 109.65 130 102 Q 134.55 94.35 139.25 90.45 Q 142.85 87.5 148.9 83.9 Q 155.55 79.9 159.9 78.35 L 150.95 69.45 Q 146.9 70.55 140.7 74.05 Q 134.75 77.3 131.2 80.25 Z M 120 83.3 Q 118.85 86.5 118.2 89.65 Q 120.55 86.05 123.45 82.65 Q 126.5 79.1 129.25 76.8 Q 132.75 73.95 138.4 70.75 Q 144.25 67.4 148.6 65.95 L 142.35 59.75 Q 138.85 61.1 136 62.95 Q 124.85 70 120 83.3 Z M 116.15 84.8 L 116.8 83 L 25 38.55 L 24.35 40.3 Z M 88.35 97.5 Q 87.25 98 86.75 98.35 Q 85.45 99.15 84.65 100.2 L 93.6 108.7 L 90.55 97.15 Q 89.75 97 88.35 97.5 Z M 103.25 50.95 Q 102.65 51.35 102.55 52.45 Q 102.45 53.7 102.95 55.05 Q 103.5 56.35 104.4 57.2 L 118.45 51.25 Z M 95.3 37.45 Q 95.45 39.55 96.95 40.8 L 107.85 35.1 Q 96.8 35.75 95.55 35.75 Q 95.25 36.5 95.3 37.45 Z M 93.7 40.25 Q 94.85 44.15 96.65 49.15 L 99.65 57.3 Q 100.8 60.75 101.25 64.9 Q 101.65 69.1 101.3 72.9 L 107.6 76 Q 109.55 67.5 106.85 58.6 L 104.05 59.85 L 103.55 59.5 Q 101.95 58.45 101 56.4 Q 100.05 54.3 100.25 52.3 Q 100.4 49.65 102.45 48.7 L 102.65 48.6 L 99.55 41.9 L 96.8 43.5 L 96.25 43.2 Q 94.6 42.25 93.7 40.25 Z M 93.65 21.75 Q 93.2 12.45 97.05 4.75 Q 88.55 11.7 89.75 22.1 Q 90.6 29.45 93.05 38 L 93 37.65 Q 92.75 34.95 94.3 33.7 L 94.6 33.5 L 96.15 33.4 Q 93.95 27 93.65 21.75 Z M 86.7 16.25 Q 87.4 9 90.85 5.65 Q 93.05 3.55 101.15 0 Q 98.9 2.85 97.4 7.8 Q 95.55 14.05 95.9 21.15 Q 96.25 27.15 98.5 33.3 L 115.45 32.65 L 101.7 40.6 L 103.3 43.7 Q 104.45 45.95 105.65 48.8 L 126.45 49.95 L 108.95 57.65 L 109.35 58.95 Q 112.4 69.7 110.55 77.4 L 117.7 80.85 Q 121.55 71.9 128.15 65.45 Q 134.8 58.95 143.5 55.7 L 144.2 55.45 L 207.35 118.2 L 118.55 121.85 L 118.2 121.2 Q 115.4 116.25 114.25 110.1 Q 113.05 104 113.6 97.45 L 113.5 97.4 L 113.6 97.15 Q 114.05 91.9 115.45 87.05 L 108.15 83.5 Q 102.95 93.6 93.55 99.1 L 98.85 117.85 L 81.8 100.75 L 82.1 100 Q 82.6 98.7 84.15 97.4 Q 85.65 96.05 87.5 95.35 Q 90.15 94.35 92.05 95.2 L 92.5 95.45 L 92.95 97 Q 101.2 91.55 105.5 82.2 L 99.75 79.45 L 99.35 80.3 Q 96.7 85.3 93.35 88.3 Q 91.35 90.1 86.05 93.45 Q 78.75 98.1 70.15 101.15 Q 63.85 103.45 61.65 104.35 Q 57.15 106.15 54.8 107.65 Q 50.75 110.2 48.6 115.05 Q 46.5 119.8 46.95 125.1 Q 50.05 117.05 56 111.85 Q 56.85 111.05 57.9 110.4 Q 58.9 109.75 60.45 109.05 L 59.95 108.35 L 60.1 107.85 Q 60.45 106.65 61.85 105.6 Q 63.05 104.65 64.6 104.1 Q 67.85 102.95 70.1 104.55 L 70.6 104.9 L 70.95 124.25 L 61.9 111.2 Q 58.4 113.05 56.8 114.5 Q 52.75 118.1 50.55 122.15 Q 49.35 124.35 47.6 129.35 L 46.45 132.7 L 45.4 129.3 Q 43.65 121.2 45.4 114.85 Q 46.95 109 51.05 105.95 Q 53.35 104.25 58.8 102.2 Q 61.9 101 68.45 98.8 Q 78.75 95.1 85 91.35 Q 89.2 88.8 91.65 86 Q 94.35 82.9 96.5 77.85 L 43.95 52.35 L 30.5 60.5 L 0 48.1 L 21.8 41.6 L 21.4 41.45 L 23.7 35.35 L 24.4 35.7 Q 16.45 17.6 15.75 16.3 Q 15.45 16 15.55 15.35 L 15.75 14.55 L 16.6 14.45 Q 17.2 14.4 17.5 14.8 L 17.55 14.8 Q 17.75 15 26.2 20.95 Q 38.45 29.5 41.35 31.65 Q 43.5 33.3 43.6 33.95 L 43.65 34.25 L 43.55 34.4 Q 43.55 35.95 45.5 45.9 L 98.4 71.55 Q 98.8 68.7 98.5 65.15 Q 98.2 62.3 97.2 57.25 L 93.8 47.5 Q 90.4 38.3 88.8 32.3 Q 86.1 22.3 86.7 16.25 Z M 200.9 116.1 L 194.7 110 Q 191.75 110.6 187.95 112.6 Q 184.15 114.65 182.75 116.85 Z M 191.45 107.75 L 185 101.35 Q 179.2 102.3 172.9 106.45 Q 169.85 108.5 167.2 111.1 Q 164.1 114.2 162.7 117.1 L 178.8 116.45 Q 180.3 113 185.4 110.3 Q 189 108.4 191.45 107.75 Z M 174.4 91.75 Q 170.6 92.7 165.45 95.45 Q 160.3 98.25 156.45 101.4 Q 152.95 104.3 149.35 108.95 Q 145.6 113.8 144.4 117.3 L 158.95 116.7 Q 160.25 113.3 163.7 109.7 Q 166.6 106.7 170.25 104.25 Q 176.05 100.4 181.75 99.1 Z M 162.3 93.45 Q 167.2 90.75 171.2 89.5 L 162.6 80.9 Q 158.6 82.05 151.65 86.15 Q 145.35 89.85 141.6 92.95 Q 137.25 96.55 132.9 103.7 Q 128.65 110.75 126.75 117.4 L 140.7 116.85 Q 141.8 113.05 145.8 107.65 Q 149.65 102.5 153.65 99.25 Q 157.4 96.2 162.3 93.45 Z" fill="#452454"/>
		<path d="M 68.25 106.2 L 68 115.85 L 62.6 108.1 Q 63 107.55 63.85 107.05 Q 64.45 106.6 65.35 106.3 Q 67 105.7 68.25 106.2 Z" fill="#574A5C"/>
		<path d="M 95.55 35.75 Q 96.8 35.75 107.85 35.1 L 96.95 40.8 Q 95.45 39.55 95.3 37.45 Q 95.25 36.5 95.55 35.75 Z" fill="#574A5C"/>
</svg>
