<?xml version="1.0"?>
<!DOCTYPE svg PUBLIC "-//W3C//DTD SVG 1.1//EN" "http://www.w3.org/Graphics/SVG/1.1/DTD/svg11.dtd">
<svg version='1.1' width='79px' height='69px' xmlns='http://www.w3.org/2000/svg' xmlns:xlink='http://www.w3.org/1999/xlink'>
	<g transform="translate(0.01,-0.0125)">
		<path d="M 383.95 -118.55 Q 385.65 -117.25 390.15 -111.4 Q 395.05 -104.9 397.65 -100.1 Q 391.35 -104.6 380.2 -109.2 Q 369 -113.8 361.4 -115.05 Q 366.55 -116.65 374.6 -117.8 Q 381.85 -118.8 383.95 -118.55 Z" transform="translate(-325.45,120.65)" fill="#C9CFD1"/>
		<path d="M 399.55 -95.5 Q 399 -95.1 396.5 -95.4 L 397 -96.55 Q 397.3 -97.1 396.95 -98 L 396.85 -98.25 Q 399.4 -96.3 399.55 -95.5 Z" transform="translate(-325.45,120.65)" fill="#C9CFD1"/>
		<path d="M 356.8 -113.1 Q 357.6 -113.6 360.75 -113.1 Q 359.7 -112.75 359.35 -112.05 L 358.9 -110.9 Q 357 -112.35 356.8 -113.1 Z" transform="translate(-325.45,120.65)" fill="#C9CFD1"/>
		<path d="M 385.9 -100.7 Q 384.95 -102.95 382.75 -103.85 Q 380.5 -104.8 378.25 -103.8 Q 376.05 -102.85 375.1 -100.6 Q 374.15 -98.3 375.1 -96.05 Q 376 -93.8 378.2 -92.9 Q 380.45 -92 382.65 -92.9 Q 384.95 -93.85 385.85 -96.15 Q 386.8 -98.45 385.9 -100.7 Z M 357.35 -101.9 L 357.55 -101.35 Q 358.25 -99.7 359.7 -99.1 Q 361.1 -98.5 362.75 -99.2 Q 365.1 -100.15 366.2 -102.85 Q 367.15 -105.15 366.55 -107.25 Q 365.95 -109.35 364.2 -110.1 Q 362.45 -110.8 360.55 -109.7 L 361.2 -111.2 Q 362.1 -111.7 366.5 -110.75 Q 371.95 -109.5 379.1 -106.55 Q 386.25 -103.6 391 -100.65 Q 394.8 -98.25 395.1 -97.25 L 394.7 -96.25 L 394.5 -96.35 Q 393.9 -96.6 393.4 -96.35 Q 392.45 -95.95 391.35 -94.15 Q 390.65 -92.95 390.2 -91.7 Q 389.65 -90.5 389.35 -89.15 Q 388.8 -87.15 389.2 -86.2 Q 389.4 -85.65 389.95 -85.4 L 390.2 -85.35 L 390.05 -84.95 L 389.35 -85.5 Q 384.95 -89.4 373.9 -93.95 Q 362.7 -98.5 357 -98.85 L 356.1 -98.9 Z" transform="translate(-325.45,120.65)" fill="#C9CFD1"/>
		<path d="M 378.425 -91.95 Q 385.92 -88.5402 389.35 -85.5 Q 387 -87.35 382.8 -89.65 Q 380.65 -90.85 378.425 -91.95 Z" transform="translate(-325.45,120.65)" fill="#402673"/>
		<path d="M 368.05 -96.15 Q 366.335 -96.7016 364.6 -97.2 Q 360 -98.5 357 -98.85 Q 361.108 -98.5979 368.05 -96.15 Z" transform="translate(-325.45,120.65)" fill="#402673"/>
		<path d="M 389.55 -82.6 L 395.15 -72.4 Q 397.5 -67.25 399.9 -60.85 Q 395.2 -64.85 385.4 -70 Q 377 -74.4 367.75 -78.2 Q 358.5 -82.05 349.35 -84.85 Q 338.75 -88.1 332.55 -88.5 Q 337.2 -90.8 343.95 -93.55 L 354.75 -96.85 L 354.85 -96.9 L 354.9 -96.9 Q 356 -97.25 360.85 -96.1 Q 366.75 -94.75 373.15 -92.1 Q 379.6 -89.45 384.7 -86.3 Q 388.95 -83.65 389.5 -82.65 Z" transform="translate(-325.45,120.65)" fill="#C9CFD1"/>
		<path d="M 329.55 -85 Q 329.1 -83.85 330.05 -82.3 Q 327.05 -84.85 327.45 -85.9 Q 327.85 -86.9 331.85 -86.6 Q 330.1 -86.2 329.55 -85 Z" transform="translate(-325.45,120.65)" fill="#C9CFD1"/>
		<path d="M 399.65 -56.15 Q 400 -57.05 399.55 -58.2 L 399.2 -58.85 Q 402.15 -56.25 401.75 -55.3 Q 401.7 -55.15 401.2 -54.9 Q 399.9 -54.4 397.35 -54.6 Q 399.15 -55 399.65 -56.15 Z" transform="translate(-325.45,120.65)" fill="#C9CFD1"/>
		<path d="M 353.7 -75.75 Q 353.05 -75.5 352.85 -75 Q 352.6 -74.55 352.85 -73.85 Q 353.4 -72.55 356.75 -70.6 Q 359.5 -69 363.3 -67.4 L 364.65 -66.85 Q 363.6 -67 363.05 -66.75 Q 362.5 -66.55 362.3 -66.05 L 362.2 -65.65 Q 355.6 -68.35 348.45 -71.9 Q 349.75 -72.85 350.25 -74.1 Q 351.15 -76.2 343.45 -79.4 Q 337.4 -81.9 335.6 -81.15 Q 335.15 -80.9 334.9 -80.45 L 334.8 -80.2 Q 331 -83.25 331.4 -84.25 Q 331.9 -85.45 337.7 -84.6 Q 344.25 -83.7 354 -80.45 Q 353.65 -80.2 353.55 -79.9 Q 352.75 -78 353.7 -75.75 Z" transform="translate(-325.45,120.65)" fill="#C9CFD1"/>
		<path d="M 368.9 -74.6 L 368.75 -74.8 Q 380.9 -69.65 389.15 -64.55 Q 396.65 -59.9 397.7 -57.45 Q 397.85 -57 397.8 -56.95 Q 397.2 -55.6 390.2 -56.8 L 390.25 -56.8 Q 392.5 -57.7 393.25 -59.65 Q 393.45 -60.15 393.25 -60.7 Q 392.55 -62.35 386.45 -64.95 Q 380.25 -67.4 378.65 -66.7 Q 378.15 -66.45 377.9 -66 Q 377.25 -64.4 377.75 -62.55 Q 378.25 -60.85 379.75 -59.3 L 377.75 -59.95 Q 378.1 -61.9 371.5 -64.75 Q 375.45 -63.95 376.05 -65.45 Q 377.1 -67.85 367.85 -72.05 Q 368.55 -72.75 368.9 -73.6 Q 369.1 -74 368.9 -74.6 Z" transform="translate(-325.45,120.65)" fill="#C9CFD1"/>
		<path d="M 365.9 -70.75 Q 371.45 -68.35 373.65 -66.45 Q 370.4 -66.65 364.05 -69.25 L 361.9 -70.2 Q 364.05 -69.95 365.9 -70.75 Z" transform="translate(-325.45,120.65)" fill="#827A75"/>
		<path d="M 346.5 -73.1 Q 344 -72.05 340.95 -73.35 Q 337.9 -74.6 336.85 -77.1 Q 336.35 -78.2 336.6 -79.3 Q 338.35 -79.3 342.7 -77.55 Q 346.75 -75.9 348.2 -74.55 Q 347.65 -73.6 346.5 -73.1 Z" transform="translate(-325.45,120.65)" fill="#FCCF42"/>
		<path d="M 366.85 -74 Q 366.25 -73 365.15 -72.6 Q 362.6 -71.55 359.6 -72.8 Q 357.35 -73.75 356.1 -75.5 Q 354.9 -77.2 355.3 -78.8 Q 357.35 -78.65 361.35 -77 Q 365.4 -75.35 366.85 -74 Z" transform="translate(-325.45,120.65)" fill="#FCCF42"/>
		<path d="M 391.2 -60.1 Q 390.65 -59.15 389.5 -58.65 Q 387.05 -57.6 383.95 -58.9 Q 381.7 -59.8 380.45 -61.55 Q 379.25 -63.25 379.65 -64.85 Q 381.35 -64.85 385.7 -63.1 Q 389.85 -61.3 391.2 -60.1 Z" transform="translate(-325.45,120.65)" fill="#FCCF42"/>
		<path d="M 375.6 -60.2 Q 374.8 -59.45 372 -59.1 Q 369.65 -58.85 368.3 -59 Q 366.1 -59.95 364.85 -61.65 Q 363.65 -63.35 364.05 -64.9 Q 365.95 -64.9 370.1 -63.15 Q 374 -61.55 375.6 -60.2 Z" transform="translate(-325.45,120.65)" fill="#FCCF42"/>
		<path d="M 360.45 -100.95 Q 359.7 -101.3 359.4 -102.1 Q 358.75 -103.6 359.55 -105.6 Q 360.2 -107.05 361.35 -107.85 Q 362.5 -108.6 363.45 -108.25 Q 364.45 -107.85 364.7 -106.45 Q 364.95 -105.1 364.35 -103.6 Q 363.55 -101.7 362 -101.05 Q 361.25 -100.7 360.45 -100.95 Z" transform="translate(-325.45,120.65)" fill="#4596E0"/>
		<path d="M 376.95 -99.85 Q 377.55 -101.35 379.05 -101.95 Q 380.5 -102.6 382 -102 Q 383.45 -101.4 384.05 -99.9 Q 384.65 -98.4 384 -96.9 Q 383.35 -95.35 381.9 -94.75 Q 380.4 -94.1 379 -94.75 Q 377.55 -95.35 376.95 -96.85 Q 376.3 -98.35 376.95 -99.85 Z" transform="translate(-325.45,120.65)" fill="#4596E0"/>
		<path d="M 392.05 -90.95 Q 392.65 -92.45 393.25 -93.35 Q 393 -92.1 392.4 -90.8 Q 391.95 -89.7 391.2 -88.4 Q 391.45 -89.65 392.05 -90.95 Z" transform="translate(-325.45,120.65)" fill="#4596E0"/>
		<path d="M 336.6 -79.3 Q 336.35 -78.25 336.85 -77.05 Q 337.9 -74.55 340.95 -73.35 Q 344.05 -72.05 346.5 -73.1 Q 347.65 -73.6 348.2 -74.55 Q 346.85 -75.75 342.7 -77.55 Q 338.7 -79.15 336.6 -79.3 Z M 327.45 -85.85 Q 327.05 -84.85 330.05 -82.3 Q 329.1 -83.85 329.55 -85 Q 330.05 -86.15 331.85 -86.6 Q 327.85 -86.85 327.45 -85.85 Z M 352.85 -75 Q 353.05 -75.5 353.7 -75.75 Q 352.75 -78 353.55 -79.9 Q 353.65 -80.2 354 -80.45 Q 344.25 -83.7 337.7 -84.6 Q 331.9 -85.45 331.4 -84.25 Q 331 -83.15 334.85 -80.2 L 334.9 -80.45 Q 335.15 -80.9 335.65 -81.15 Q 337.2 -81.75 343.45 -79.4 Q 351.15 -76.2 350.25 -74.1 Q 349.75 -72.85 348.45 -71.9 Q 355.6 -68.35 362.2 -65.65 L 362.3 -66.05 Q 362.5 -66.55 363.05 -66.75 Q 363.6 -67 364.65 -66.85 L 363.3 -67.4 Q 359.5 -69 356.75 -70.6 Q 353.4 -72.55 352.85 -73.85 Q 352.6 -74.4 352.85 -75 Z M 399.55 -58.2 Q 400 -57.05 399.65 -56.2 Q 399.15 -55 397.35 -54.6 Q 400.05 -54.45 401.25 -54.9 Q 401.7 -55.15 401.75 -55.3 Q 402.15 -56.25 399.25 -58.85 Z M 380.5 -61.55 Q 381.75 -59.8 383.95 -58.9 Q 387.05 -57.6 389.5 -58.65 Q 390.7 -59.2 391.2 -60.1 Q 389.75 -61.45 385.7 -63.1 Q 381.35 -64.85 379.65 -64.85 Q 379.25 -63.25 380.5 -61.55 Z M 368.3 -59 Q 369.6 -58.85 372 -59.15 Q 374.8 -59.45 375.6 -60.2 Q 374 -61.55 370.1 -63.15 Q 365.95 -64.9 364.05 -64.9 Q 363.65 -63.35 364.85 -61.65 Q 366.1 -59.95 368.3 -59 Z M 365.15 -72.6 Q 366.25 -73 366.85 -74 Q 365.4 -75.35 361.35 -77 Q 357.35 -78.65 355.3 -78.8 Q 354.9 -77.2 356.15 -75.5 Q 357.4 -73.75 359.6 -72.8 Q 362.65 -71.55 365.15 -72.6 Z M 373.65 -66.45 Q 371.45 -68.35 365.9 -70.75 Q 364.05 -69.95 361.9 -70.2 L 364.05 -69.25 Q 370.4 -66.65 373.65 -66.45 Z M 368.75 -74.8 L 368.9 -74.6 Q 369.1 -74 368.9 -73.6 Q 368.55 -72.75 367.85 -72.05 Q 377.1 -67.85 376.1 -65.45 Q 375.45 -63.95 371.55 -64.75 Q 378.15 -61.9 377.75 -59.95 L 379.75 -59.3 Q 378.3 -60.85 377.8 -62.55 Q 377.25 -64.4 377.9 -66 Q 378.15 -66.45 378.65 -66.7 Q 379.7 -67.15 382.65 -66.3 Q 384.55 -65.75 386.45 -64.95 Q 392.55 -62.35 393.25 -60.7 Q 393.45 -60.15 393.25 -59.65 Q 392.5 -57.75 390.3 -56.8 L 390.2 -56.8 Q 397.3 -55.6 397.8 -56.95 Q 397.85 -57.05 397.7 -57.45 Q 396.7 -59.9 389.2 -64.55 Q 380.95 -69.65 368.75 -74.8 Z M 389.55 -82.6 L 389.5 -82.65 Q 388.95 -83.65 384.7 -86.3 Q 379.6 -89.45 373.15 -92.1 Q 366.75 -94.75 360.85 -96.1 Q 356 -97.25 354.9 -96.9 L 354.85 -96.9 L 354.75 -96.85 L 343.95 -93.55 Q 337.2 -90.8 332.55 -88.5 Q 338.7 -88.1 349.35 -84.85 Q 358.4 -82.1 367.75 -78.25 Q 377.05 -74.4 385.4 -70 Q 395.2 -64.85 399.9 -60.85 Q 397.85 -66.35 395.2 -72.4 Z M 392.4 -90.8 Q 392.95 -92 393.25 -93.35 Q 392.6 -92.35 392.05 -90.95 Q 391.5 -89.7 391.2 -88.45 Q 391.9 -89.55 392.4 -90.8 Z M 399.55 -95.55 Q 399.4 -96.4 396.8 -98.25 L 396.95 -98 Q 397.25 -97.3 397 -96.6 L 396.5 -95.4 Q 399 -95.15 399.55 -95.55 Z M 383.95 -118.55 Q 381.85 -118.8 374.6 -117.8 Q 366.5 -116.65 361.35 -115 Q 368.9 -113.85 380.2 -109.2 Q 391.6 -104.5 397.65 -100.1 Q 395.05 -104.9 390.15 -111.4 Q 385.65 -117.25 383.95 -118.55 Z M 384.05 -99.9 Q 383.45 -101.4 381.95 -102 Q 380.5 -102.6 379 -101.95 Q 377.55 -101.35 376.95 -99.85 Q 376.3 -98.35 376.95 -96.85 Q 377.55 -95.35 379 -94.75 Q 380.4 -94.1 381.9 -94.75 Q 383.35 -95.35 384 -96.9 Q 384.65 -98.4 384.05 -99.9 Z M 375.1 -100.6 Q 376.05 -102.85 378.25 -103.8 Q 380.5 -104.8 382.75 -103.85 Q 384.95 -102.95 385.9 -100.7 Q 386.8 -98.45 385.85 -96.15 Q 384.9 -93.8 382.65 -92.9 Q 380.45 -92 378.2 -92.9 Q 376 -93.8 375.1 -96.05 Q 374.15 -98.3 375.1 -100.6 Z M 361.15 -111.2 L 360.55 -109.7 Q 362.45 -110.8 364.2 -110.1 Q 365.95 -109.35 366.55 -107.25 Q 367.15 -105.15 366.2 -102.85 Q 365.1 -100.15 362.75 -99.2 Q 361.1 -98.5 359.7 -99.1 Q 358.2 -99.7 357.55 -101.35 L 357.35 -101.9 L 356.1 -98.9 L 357 -98.85 Q 360 -98.5 364.6 -97.2 Q 369.3 -95.85 373.9 -93.95 Q 378.5 -92.05 382.8 -89.65 Q 387 -87.35 389.35 -85.5 L 390.05 -84.95 L 390.2 -85.35 L 389.95 -85.4 Q 389.4 -85.65 389.2 -86.2 Q 388.55 -87.8 390.2 -91.75 Q 391.75 -95.7 393.4 -96.35 Q 393.95 -96.6 394.45 -96.35 L 394.7 -96.25 L 395.1 -97.25 Q 394.8 -98.25 391 -100.65 Q 386.25 -103.6 379.1 -106.55 Q 371.95 -109.5 366.5 -110.75 Q 362.1 -111.7 361.15 -111.2 Z M 361.3 -107.85 Q 360.15 -107.05 359.55 -105.6 Q 358.75 -103.6 359.4 -102.1 Q 359.7 -101.3 360.45 -100.95 Q 361.25 -100.7 362 -101.05 Q 363.55 -101.7 364.35 -103.6 Q 364.95 -105.1 364.7 -106.45 Q 364.45 -107.85 363.45 -108.25 Q 362.45 -108.6 361.3 -107.85 Z M 359.35 -112.05 Q 359.7 -112.8 360.75 -113.1 Q 357.6 -113.6 356.8 -113.1 Q 357 -112.35 358.9 -110.9 Z M 354.95 -112.3 Q 354.65 -113.1 354.9 -113.9 Q 355.2 -114.65 356.1 -115 L 356.3 -115.05 Q 360.6 -117.55 371.9 -119.4 Q 382.1 -121.05 384.55 -120.5 L 384.7 -120.45 L 384.85 -120.35 Q 387 -119 393.15 -110.6 Q 400 -101.35 401.3 -96.55 L 401.4 -96.35 Q 401.75 -95.5 401.45 -94.75 Q 400.7 -92.9 395.75 -93.5 L 391.5 -83.2 L 396.95 -73.3 Q 398 -71 399.8 -66.6 Q 402.35 -60.3 403.25 -57.1 Q 404.05 -55.6 403.6 -54.55 Q 403.2 -53.55 402 -53.1 Q 399.35 -51.95 392.1 -53.25 Q 385.05 -54.5 375.25 -57.8 Q 373.4 -57.1 370.5 -57 Q 368.2 -56.9 367.6 -57.1 Q 365.55 -57.95 364.1 -59.45 Q 362.7 -60.9 362.2 -62.65 L 361.45 -62.95 Q 352.5 -66.65 344.75 -70.7 Q 342.4 -70.55 340.2 -71.5 Q 336.4 -73 335.05 -76.2 Q 324.2 -83.15 325.6 -86.65 Q 326.05 -87.65 327.6 -88.2 Q 332.3 -90.95 343.3 -95.45 L 353.85 -98.65 L 358.1 -109 Q 355.55 -110.95 354.95 -112.3 Z" transform="translate(-325.45,120.65)" fill="#402673"/>
	</g>
</svg>
