<?xml version="1.0"?>
<!DOCTYPE svg PUBLIC "-//W3C//DTD SVG 1.1//EN" "http://www.w3.org/Graphics/SVG/1.1/DTD/svg11.dtd">
<svg version='1.1' width='65px' height='42px' xmlns='http://www.w3.org/2000/svg' xmlns:xlink='http://www.w3.org/1999/xlink'>
	<g transform="translate(-0.021875,0.0234694)">
		<path d="M 58.85 13.4 Q 64.35 18.75 64.2 22.45 Q 63.85 32.3 58.5 36.9 Q 53.9 40.85 43.55 41.65 Q 36.35 42.2 27.1 41.15 L 25.7 41 Q 12.9 39.55 7.15 34.4 Q 1.6 29.4 0.1 18.6 Q -0.15 16.75 0.4 15.15 Q 1 13.6 2.65 11.6 Q 6.25 7.3 12 4.1 Q 18.5 0.45 24.85 0.05 Q 34.05 -0.55 44.05 3.75 Q 52.9 7.55 58.85 13.4 Z M 40.6 21.6 Q 42.45 20.65 43.5 19.15 Q 40.9 20.9 37.05 20.8 Q 34.05 20.7 31.95 19.7 Q 29.4 18.5 27.8 16.8 Q 26.05 14.9 25.85 12.85 Q 27.85 12.25 29.1 11 Q 30.35 9.7 30.35 8.2 Q 30.35 6.05 28.05 4.55 Q 25.75 3 22.5 3 Q 19.25 3 16.95 4.55 Q 14.65 6.05 14.65 8.2 Q 14.65 10.3 16.9 11.8 Q 19.15 13.3 22.35 13.35 Q 21.5 16.95 17.8 18.35 Q 16.15 19 14.15 18.85 Q 12.15 18.65 11.55 17.7 Q 11.45 19.45 14 20.9 Q 16.65 22.35 19.05 21.4 Q 20.75 20.7 22 19.2 Q 23.2 17.75 23.6 15.95 Q 23.95 18.3 26.2 20.15 Q 28.05 21.65 30.35 22.35 Q 32 22.85 33.9 22.95 Q 34.2 24.6 34.8 28.3 Q 35.25 31.5 34.65 33.4 Q 33.75 36.3 34.2 38.2 Q 34.65 40.3 36.7 40.5 Q 39.2 40.8 40.2 39.85 Q 42.7 37.5 41.25 33.35 Q 40.3 30.75 40.1 28.55 Q 39.75 25.3 40.6 21.6 Z" fill="#FFE078"/>
	</g>
</svg>
