<?xml version="1.0"?>
<!DOCTYPE svg PUBLIC "-//W3C//DTD SVG 1.1//EN" "http://www.w3.org/Graphics/SVG/1.1/DTD/svg11.dtd">
<svg version='1.1' width='37px' height='18px' xmlns='http://www.w3.org/2000/svg' xmlns:xlink='http://www.w3.org/1999/xlink'>
	<g transform="translate(0.0216216,0.0121951)">
		<path d="M 7.7 4.65 Q 7.15 3.25 5.85 2.75 Q 4.65 2.3 3.55 2.8 Q 1.85 3.65 2.8 6.15 Q 3.2 7.05 4.45 8.5 Q 5.8 10 6.9 10.7 Q 7.75 9.8 7.95 7.65 Q 8.1 5.75 7.7 4.65 Z M 26.1 15.05 Q 31.7 14.25 36.35 12.25 Q 33.05 15.8 25.45 17.1 Q 18.85 18.25 13.5 17.25 Q 9.25 16.45 5.55 13.65 Q 2.4 11.35 1.5 9.3 Q -0.15 6.2 0.05 3.95 Q 0.2 1.8 2.05 0.75 Q 4.35 -0.5 6.75 0.3 Q 9.05 1.05 9.95 3.1 Q 10.95 5.6 10.3 7.95 Q 9.7 10.35 8.45 11.9 Q 9.25 12.7 11.6 13.6 Q 13.95 14.5 16.75 15.05 Q 20.6 15.85 26.1 15.05 Z" transform="translate(-0.05,0)" fill="#361447"/>
		<path d="M 3.55 2.8 Q 4.65 2.3 5.85 2.75 Q 7.15 3.25 7.7 4.65 Q 8.1 5.75 7.95 7.65 Q 7.75 9.8 6.9 10.7 Q 5.8 10 4.45 8.5 Q 3.2 7.05 2.8 6.15 Q 1.85 3.65 3.55 2.8 Z" transform="translate(-0.05,0)" fill="#FF9C99"/>
	</g>
</svg>
