<?xml version="1.0"?>
<!DOCTYPE svg PUBLIC "-//W3C//DTD SVG 1.1//EN" "http://www.w3.org/Graphics/SVG/1.1/DTD/svg11.dtd">
<svg version='1.1' width='113px' height='93px' xmlns='http://www.w3.org/2000/svg' xmlns:xlink='http://www.w3.org/1999/xlink'>
	<g transform="translate(-0.0239583,0.0193548)">
		<path d="M 109.3 41.95 Q 110.15 42.7 110.15 43.9 L 110.45 50.65 Q 110.5 51.7 109.95 52.45 Q 109.45 53.2 108.7 53.25 L 108.55 53.25 Q 108.4 47.15 108.1 41.5 L 108.15 41.5 Q 108.8 41.45 109.3 41.95 Z" transform="translate(0.1,-0.05)" fill="#D86088"/>
		<path d="M 88.4 34.35 Q 87.5852 30.0055 86.15 23.65 L 86.6 25 L 87.55 28.9 Z" transform="translate(0.1,-0.05)" fill="#D86088"/>
		<path d="M 96.5 20.1 L 102.55 19.35 L 102.6 20 Q 104.25 44.8 104.35 51.65 Q 104.7 75.1 100.05 76.3 L 98.85 76.6 Q 101.25 57.7 98.35 33.2 Q 97.5 25.95 96.5 20.1 Z" transform="translate(0.1,-0.05)" fill="#D86088"/>
		<path d="M 89.05 20.7 L 93.5 20.4 Q 95.3 30.45 96.25 42.2 Q 97.8 62 95.75 77.3 L 93.4 77.75 Q 94.15 51.85 92.05 35 Q 90.85 25.25 89.05 20.7 Z" transform="translate(0.1,-0.05)" fill="#D86088"/>
		<path d="M 4.25 32.05 Q 7.05 20.55 14.3 16.65 Q 16.65 15.6 19.05 15.7 L 18 19.7 Q 13.95 23.6 11.9 28.25 Q 8.95 34.95 10.3 42.65 L 9.75 43.65 Q 6.85 48.7 5.35 53.6 L 4.5 51.25 Q 1.6 42.8 4.25 32.05 Z" transform="translate(0.1,-0.05)" fill="#D86088"/>
		<path d="M 11.75 43.8 Q 12.3 42.8 14.5 39.45 Q 16.05 36.95 16.85 35.2 Q 17.05 37.7 18.85 39.8 Q 20.55 41.8 22.9 42.65 Q 21.2 49.1 18.75 54.85 Q 16.8 59.45 16 63.7 Q 15.4 68.55 16.45 73.65 Q 18.15 81.75 23.75 87.2 Q 17.6 84.55 13.8 80.75 Q 8 74.9 7.1 64.6 Q 6.15 53.55 11.75 43.8 Z" transform="translate(0.1,-0.05)" fill="#8CC7FF"/>
		<path d="M 24 21.3 L 24.05 21.65 Q 25 27 25.1 28.95 Q 25.3 32.3 24.45 36.5 Q 22.05 36 20.45 34.55 Q 18.75 33.05 18.2 30.85 Q 18.9 27.55 18.75 22.9 Q 18.65 19.3 20.65 15.95 Q 22.1 13.5 23.9 12.2 Q 23.15 16.2 24 21.15 L 23.95 21.15 Z" transform="translate(0.1,-0.05)" fill="#8CC7FF"/>
		<path d="M 51.9 10.75 Q 52.45 11.25 53.15 12.3 Q 49.15 15.3 46.4 20.8 Q 43.65 26.35 42.95 32.95 Q 39.5 34.95 34.5 36 Q 30 36.95 26.25 36.75 Q 26.75 35.8 27.15 33.45 Q 27.85 28.7 27.1 21.55 Q 26.45 17.25 26.4 15.45 Q 26.15 11.3 27.2 9 Q 29.45 6.5 31.2 5.3 Q 33.9 3.45 36.85 3.3 Q 43.4 2.9 51.9 10.75 Z" transform="translate(0.1,-0.05)" fill="#8CC7FF"/>
		<path d="M 59.45 25.45 Q 61.4 30.55 63.15 36.35 Q 66.25 46.7 67 56.35 Q 61.05 50.8 58.75 43.35 Q 55.8 33.8 59.45 25.45 Z" transform="translate(0.1,-0.05)" fill="#8CC7FF"/>
		<path d="M 23.55 47.85 Q 24.4 45.4 24.95 43.1 Q 28.85 43.45 33.55 42.1 Q 39.55 40.45 42.75 36.85 Q 42.75 44.4 45.6 51.05 Q 48.85 58.6 54.8 64.2 Q 59.65 68.65 65.8 71.5 Q 65.6 72.3 65 73.9 Q 61.9 81.25 54.25 85.6 Q 48.85 88.7 42.55 89.75 Q 36.75 90.7 30.55 89.35 Q 20.3 86.1 18.3 69.9 Q 17.8 65.6 20 58.05 Q 20.9 55.05 23.55 47.85 Z" transform="translate(0.1,-0.05)" fill="#8CC7FF"/>
		<path d="M 42.95 32.95 Q 42.75 35.55 42.75 36.85 Q 39.55 40.45 33.55 42.1 Q 28.85 43.45 24.95 43.1 L 24.6 43.05 Q 23.8 43 22.9 42.65 Q 20.55 41.8 18.85 39.8 Q 17.05 37.7 16.85 35.2 Q 16.6 32.6 18.05 30.3 L 18.2 30.85 Q 18.75 33.05 20.45 34.55 Q 22.05 36 24.45 36.5 L 25.55 36.65 L 25.75 36.7 L 26 36.7 L 26.25 36.75 Q 30 36.95 34.5 36 Q 39.5 34.95 42.95 32.95 Z" transform="translate(0.1,-0.05)" fill="#FFFFFF"/>
		<path d="M 47.25 47.85 Q 44.35 39.35 47 28.6 Q 49.8 17.15 57 13.25 Q 60 11.9 62.75 12.35 Q 65.45 12.8 63.55 13.85 Q 46.95 27.15 55.4 46.9 Q 59.7 56.5 71.35 62.9 Q 77.2 66.1 82.15 67.4 Q 81.25 68.3 79.8 69.1 Q 76.95 70.7 74.3 70.3 Q 68.85 69.45 60.75 64.1 Q 50 57 47.25 47.85 Z" transform="translate(0.1,-0.05)" fill="#D86088"/>
		<path d="M 89.35 7.95 Q 98.5 10.55 101.4 15.85 Q 100.3 16.25 94.35 16.7 Q 88.05 17.15 86.85 17.25 Q 85.25 17.65 85.15 18.7 Q 85.15 18.8 85.5 20.6 L 86.15 23.65 Q 87.9 31.4 88.7 36.15 Q 90.15 44.45 90.55 52.25 Q 90.75 56.75 90.8 70.6 L 90.8 78.2 Q 81.35 80.4 70.95 80.7 L 62.5 80.55 Q 64.9 77.65 66.3 74.2 L 67.1 72.05 Q 72.1 74.1 75.75 74.45 Q 79.55 74.85 83.75 70.5 Q 85.9 68.35 87.25 66.1 Q 84.8 65.75 81.25 64.55 Q 74.25 62.2 68.95 58.05 Q 68.85 47.85 65.75 35.55 Q 63.85 28.35 61.4 21.9 Q 63.6 18.45 66.85 15.65 Q 68.5 14.25 69.65 13.55 Q 70.75 12.7 70.55 11.55 Q 70.35 10.4 68.85 9.6 Q 65.05 7.65 57.45 10 L 55.95 10.6 Q 55 9.2 54.1 8.3 L 53.05 7.35 Q 58.5 6.3 64.7 6 Q 70.7 5.65 74.4 6.15 Q 82 5.85 89.35 7.95 Z" transform="translate(0.1,-0.05)" fill="#D86088"/>
		<path d="M 18 19.7 L 19.05 15.7 Q 16.65 15.6 14.3 16.65 Q 7.05 20.55 4.25 32.05 Q 1.6 42.8 4.5 51.25 L 5.35 53.6 Q 6.85 48.7 9.75 43.65 L 10.3 42.65 Q 8.95 34.95 11.9 28.25 Q 13.95 23.6 18 19.7 Z M 59.45 25.45 Q 55.8 33.8 58.75 43.35 Q 61.05 50.8 67 56.35 Q 66.25 46.7 63.15 36.35 Q 61.4 30.55 59.45 25.45 Z M 46.4 20.8 Q 49.15 15.3 53.15 12.3 Q 52.45 11.25 51.9 10.75 Q 43.4 2.9 36.85 3.3 Q 33.9 3.45 31.2 5.3 Q 29.45 6.5 27.2 9 Q 26.15 11.3 26.4 15.45 Q 26.45 17.25 27.1 21.55 Q 27.85 28.7 27.15 33.45 Q 26.75 35.8 26.25 36.75 L 24.45 36.5 Q 25.3 32.3 25.1 28.95 Q 25 27 24.05 21.65 L 24 21.3 L 24 21.15 Q 23.15 16.2 23.9 12.2 Q 22.1 13.5 20.65 15.95 Q 18.65 19.3 18.75 22.9 Q 18.9 27.55 18.2 30.85 L 18.05 30.3 Q 16.6 32.6 16.85 35.2 Q 16.05 36.95 14.5 39.45 Q 12.3 42.8 11.75 43.8 Q 6.15 53.55 7.1 64.6 Q 8 74.9 13.8 80.75 Q 17.6 84.55 23.75 87.2 Q 18.15 81.75 16.45 73.65 Q 15.4 68.55 16 63.7 Q 16.8 59.45 18.75 54.85 Q 21.2 49.1 22.9 42.65 Q 23.8 43 24.6 43.05 L 24.95 43.1 Q 24.4 45.4 23.55 47.85 Q 20.9 55.05 20 58.05 Q 17.8 65.6 18.3 69.9 Q 20.3 86.1 30.55 89.35 Q 36.75 90.7 42.55 89.75 Q 48.85 88.7 54.25 85.6 Q 61.9 81.25 65 73.9 Q 65.6 72.3 65.8 71.5 Q 59.65 68.65 54.8 64.2 Q 48.85 58.6 45.6 51.05 Q 42.75 44.4 42.75 36.85 Q 42.75 35.55 42.95 32.95 Q 43.65 26.35 46.4 20.8 Z M 63.55 13.85 Q 65.45 12.8 62.75 12.35 Q 60 11.9 57 13.25 Q 49.8 17.15 47 28.6 Q 44.35 39.35 47.25 47.85 Q 50 57 60.75 64.1 Q 68.85 69.45 74.3 70.3 Q 76.95 70.7 79.8 69.1 Q 81.25 68.3 82.15 67.4 Q 77.2 66.1 71.35 62.9 Q 59.7 56.5 55.4 46.9 Q 46.95 27.15 63.55 13.85 Z M 108.15 41.5 L 108.1 41.5 Q 108.4 47.15 108.55 53.25 L 108.7 53.25 Q 109.45 53.2 109.95 52.45 Q 110.5 51.7 110.45 50.65 L 110.15 43.9 Q 110.15 42.7 109.3 41.95 Q 108.8 41.45 108.15 41.5 Z M 108 39.5 L 108.1 39.5 Q 109.55 39.4 110.65 40.45 Q 112.1 41.8 112.15 43.85 L 112.45 50.55 Q 112.55 52.45 111.45 53.8 Q 110.35 55.2 108.75 55.25 L 108.55 55.25 Q 108.75 79.2 103.5 80.55 Q 96.2 82.35 85.35 83.75 Q 69.5 85.85 57.8 85.15 Q 51.55 90.1 42.65 91.6 Q 33.5 93.2 24.9 90.85 Q 16.15 88.45 11.35 82.9 Q 6.75 77.55 4.95 71.2 Q 3.15 64.7 4.4 57.65 Q 3.85 56.65 2.85 54.45 Q -2.45 41.95 1.85 28.8 Q 5.9 16.2 14.75 13.45 Q 17.8 12.5 20.25 12.25 Q 21.3 9.95 22.45 9.25 Q 22.65 9.15 24.25 7.4 Q 27.05 4.25 29.1 2.8 Q 32.65 0.25 36.65 0.05 Q 42.35 -0.25 48.8 4.1 Q 55.2 2.95 62.35 2.6 Q 69.3 2.2 73.6 2.75 Q 84.45 2.35 93.9 5.65 Q 105.95 9.85 106.5 18.15 Q 107.85 36.95 108 39.5 Z M 93.5 20.4 L 89.05 20.7 Q 90.85 25.25 92.05 35 Q 94.15 51.85 93.4 77.75 L 95.75 77.3 Q 97.8 62 96.25 42.2 Q 95.3 30.45 93.5 20.4 Z M 86.15 23.65 L 85.5 20.6 Q 85.15 18.8 85.15 18.7 Q 85.25 17.65 86.85 17.25 Q 88.05 17.15 94.35 16.7 Q 100.3 16.25 101.4 15.85 Q 98.5 10.55 89.35 7.95 Q 82 5.85 74.4 6.15 Q 70.7 5.65 64.7 6 Q 58.5 6.3 53.05 7.35 L 54.1 8.3 Q 55 9.2 55.95 10.6 L 57.45 10 Q 65.05 7.65 68.85 9.6 Q 70.35 10.4 70.55 11.55 Q 70.75 12.7 69.65 13.55 Q 68.5 14.25 66.85 15.65 Q 63.6 18.45 61.4 21.9 Q 63.85 28.35 65.75 35.55 Q 68.85 47.85 68.95 58.05 Q 74.25 62.2 81.25 64.55 Q 84.8 65.75 87.25 66.1 Q 85.9 68.35 83.75 70.5 Q 79.55 74.85 75.75 74.45 Q 72.1 74.1 67.1 72.05 L 66.3 74.2 Q 64.9 77.65 62.5 80.55 L 70.95 80.7 Q 81.35 80.4 90.8 78.2 L 90.8 70.6 Q 90.75 56.75 90.55 52.25 Q 90.15 44.45 88.7 36.15 L 87.55 28.9 L 86.6 25 Z M 102.6 20 L 102.55 19.35 L 96.5 20.1 Q 97.5 25.95 98.35 33.2 Q 101.25 57.7 98.85 76.6 L 100.05 76.3 Q 104.7 75.1 104.35 51.65 Q 104.25 44.8 102.6 20 Z" transform="translate(0.1,-0.05)" fill="#330A29"/>
	</g>
</svg>
