<?xml version="1.0"?>
<!DOCTYPE svg PUBLIC "-//W3C//DTD SVG 1.1//EN" "http://www.w3.org/Graphics/SVG/1.1/DTD/svg11.dtd">
<svg version='1.1' width='29px' height='23px' xmlns='http://www.w3.org/2000/svg' xmlns:xlink='http://www.w3.org/1999/xlink'>
	<g transform="translate(-0,0.005)">
		<path d="M 25.7 12.1 Q 26.05 10.5 25.95 8.6 L 26.1 8.8 Q 26.45 10.75 25.85 12.7 Q 25.25 15 23.85 16.85 Q 25.15 14.7 25.7 12.1 Z" fill="#FFFFFF"/>
		<path d="M 6.2 8.2 Q 5.1 13.9 7.95 18.1 L 8.15 18.45 Q 3.1 15.65 1.95 7.95 L 2.05 5.8 Q 4.8 4.65 7.75 4 Q 6.6 6.1 6.2 8.2 Z" fill="#FFFFFF"/>
		<path d="M 23.55 8.1 Q 23.6953 9.92285 23.35 11.6 Q 22.4 16.4 18.9 18.75 Q 16.5 20.4 14 19.85 Q 11.5 19.4 9.9 16.95 Q 8.45 14.8 8.3 11.95 Q 8.2 10.25 8.5 8.7 Q 9.1 5.7 10.9 3.5 Q 15.75 3.1 19.8 4.65 Q 19.15 5.1 18.65 5.9 Q 18 5.1 17.1 4.95 Q 15.6 4.65 14.2 6 Q 12.8 7.35 12.4 9.55 Q 11.95 11.75 12.7 13.55 Q 13.45 15.3 14.95 15.6 Q 16.5 15.9 17.85 14.55 Q 19.25 13.2 19.65 11 L 19.7 10.75 L 20.25 10.9 Q 21.35 11.15 22.3 10.3 Q 23.3 9.5 23.55 8.1 Z" fill="#8CFFB8"/>
		<path d="M 18.25 7.05 Q 18 8.25 18.4 9.3 Q 18.85 10.35 19.7 10.75 L 19.65 11 Q 19.25 13.2 17.85 14.55 Q 16.5 15.9 14.95 15.6 Q 13.45 15.3 12.7 13.55 Q 11.95 11.75 12.4 9.55 Q 12.8 7.35 14.2 6 Q 15.6 4.65 17.1 4.95 Q 18 5.1 18.65 5.9 Q 18.3 6.5 18.25 7.05 Z" fill="#409942"/>
		<path d="M 22.3 10.3 Q 21.35 11.15 20.25 10.9 L 19.7 10.75 Q 18.85 10.35 18.4 9.3 Q 18 8.25 18.25 7.05 Q 18.3 6.5 18.65 5.9 Q 19.15 5.1 19.8 4.65 Q 21.65 5.35 23.55 6.65 Q 23.65 7.55 23.55 8.05 L 23.55 8.1 Q 23.3 9.5 22.3 10.3 Z" fill="#FFFFFF"/>
		<path d="M 23.55 8.05 Q 23.65 7.55 23.55 6.65 Q 21.65 5.35 19.8 4.65 Q 15.75 3.1 10.9 3.5 Q 9.1 5.7 8.5 8.7 Q 8.2 10.25 8.3 11.95 Q 8.45 14.8 9.9 16.95 Q 11.5 19.4 14 19.85 Q 16.5 20.4 18.9 18.75 Q 22.4 16.4 23.35 11.6 Q 23.7 9.9 23.55 8.05 Z M 25.45 5.5 L 25.5 5.55 Q 27.15 7.3 28.05 9.4 Q 28.7 11 28.75 12.15 L 28.6 11.9 Q 28 10.7 26.1 8.8 L 25.95 8.6 Q 26.05 10.5 25.7 12.1 Q 25.15 14.7 23.85 16.85 Q 22.35 19.25 20.3 20.55 Q 17.1 22.75 13.6 22.05 Q 10.3 21.35 8.15 18.45 L 7.95 18.1 Q 5.1 13.9 6.2 8.2 Q 6.6 6.1 7.75 4 Q 4.8 4.65 2.05 5.8 L 1.75 10.25 L 0 3.65 L 0.1 3.6 Q 1.3 2.7 3.4 1.8 Q 6.9 0.25 10.6 0.05 L 11.2 0 Q 13.25 -0.05 15.85 0.4 L 16.85 0.65 Q 19.05 1.2 21.05 2.2 Q 23.65 3.55 25.45 5.5 Z" fill="#452454"/>
	</g>
</svg>
