<?xml version="1.0"?>
<!DOCTYPE svg PUBLIC "-//W3C//DTD SVG 1.1//EN" "http://www.w3.org/Graphics/SVG/1.1/DTD/svg11.dtd">
<svg version='1.1' width='41px' height='37px' xmlns='http://www.w3.org/2000/svg' xmlns:xlink='http://www.w3.org/1999/xlink'>
	<g transform="translate(-0.0131579,-0)">
		<path d="M 28.15 5.8 Q 27.25 3.2 24.15 2.15 Q 20.5 0.95 14.95 2.25 Q 13.8 2.5 13.3 3.65 Q 12.8 4.75 13 6.25 L 12.95 6.2 Q 9.55 3.9 8.55 6.5 Q 7.6 9.1 10.95 10.65 Q 13.75 11.9 14.4 10.05 Q 15.7 12.05 17.7 13 Q 20 14.05 22.7 13.5 Q 25.9 12.85 27.45 10.45 Q 28.95 8.2 28.15 5.8 Z M 20.8 0 Q 28.3 0 33.6 5.35 Q 38.85 10.65 38.85 18.15 Q 38.85 21.65 37.6 24.85 L 36.45 26.6 Q 33.8 27.1 29.95 27 Q 22.3 26.75 16.5 23.7 Q 9.6 19.65 6.75 14.95 Q 5 11.95 5.1 9.25 L 6.2 7.55 L 7.2 6.65 L 6.95 6.6 Q 9.5 3.55 13.05 1.8 Q 16.7 0 20.8 0 Z" transform="translate(0.05,0)" fill="#84C3BF"/>
		<path d="M 21.8 32.1 Q 26 33.5 30.8 33.3 Q 26.3 36.3 20.8 36.3 Q 13.75 36.3 8.6 31.5 Q 3.45 26.7 2.85 19.7 Q 5.8 23.7 11 27.05 Q 16 30.25 21.8 32.1 Z" transform="translate(0.05,0)" fill="#84C3BF"/>
		<path d="M 27.45 10.45 Q 25.9 12.85 22.7 13.5 Q 20 14.05 17.7 13 Q 15.7 12.05 14.4 10.05 Q 14.75 9.15 14.35 8.05 Q 13.9 6.9 13 6.25 Q 12.8 4.75 13.3 3.65 Q 13.8 2.5 14.95 2.25 Q 20.5 0.95 24.15 2.15 Q 27.25 3.2 28.15 5.8 Q 28.95 8.2 27.45 10.45 Z" transform="translate(0.05,0)" fill="#A4D8D3"/>
		<path d="M 10.95 10.65 Q 7.6 9.1 8.55 6.5 Q 9.55 3.9 12.95 6.2 L 13 6.25 Q 13.9 6.9 14.35 8.05 Q 14.75 9.15 14.4 10.05 Q 13.75 11.9 10.95 10.65 Z" transform="translate(0.05,0)" fill="#A4D8D3"/>
		<path d="M 7.2 6.65 L 5.2 8.45 L 5.1 9.25 Q 5 11.95 6.75 14.95 Q 9.6 19.65 16.5 23.7 Q 22.3 26.75 29.95 27 Q 33.8 27.1 36.45 26.6 L 38.2 23.95 L 39.6 25.3 Q 41 27 40.85 28.8 Q 40.75 30.35 37.9 31.65 Q 34.9 33.1 30.8 33.3 Q 26 33.5 21.8 32.1 Q 16 30.25 11 27.05 Q 5.8 23.7 2.85 19.7 Q 1.05 17.2 0.35 15.05 Q -0.7 11.35 1.1 8.55 Q 3.05 5.55 6.95 6.6 Z" transform="translate(0.05,0)" fill="#EBEAB6"/>
	</g>
</svg>
