<?xml version="1.0"?>
<!DOCTYPE svg PUBLIC "-//W3C//DTD SVG 1.1//EN" "http://www.w3.org/Graphics/SVG/1.1/DTD/svg11.dtd">
<svg version='1.1' width='25px' height='23px' xmlns='http://www.w3.org/2000/svg' xmlns:xlink='http://www.w3.org/1999/xlink'>
	<g transform="translate(-0,0.0153846)">
		<path d="M 17.95 15.85 Q 18.55 14.9 19 13.75 Q 20.05 11.45 20.5 8.8 Q 21.05 11.05 20.5 13.65 Q 19.95 16 18.7 17.9 L 18.75 17.85 L 18.7 17.95 Q 16.05 20.1 13.45 20.7 Q 16 19.15 17.95 15.85 Z" fill="#FFFFFF"/>
		<path d="M 3.55 5.35 Q 2.1 9.75 2.55 13.85 Q 1.35 10.7 1.55 7.25 Q 2.55 6.15 3.55 5.35 Z" fill="#FFFFFF"/>
		<path d="M 18.8 5.6 Q 18.8 9.15 17.3 12.45 Q 15.35 16.8 12.15 18.45 Q 9.45 19.8 7.35 18.3 Q 5.25 16.8 4.7 13.25 Q 4.15 8.9 6.05 4.6 L 6.55 3.6 Q 7.45 3.2 8.65 2.95 Q 8.65 3.6 8.9 4.2 Q 8.3 5.15 7.9 6 Q 6.5 9.1 6.9 12.15 Q 7.25 14.45 8.6 15.4 Q 10 16.4 11.75 15.5 Q 14.05 14.35 15.35 11.25 Q 16.75 8.15 16.35 5.15 Q 16.3 4.5 15.95 3.65 Q 17.5 4.3 18.8 5.6 Z" fill="#8CFFB8"/>
		<path d="M 15.35 11.25 Q 14.05 14.35 11.75 15.5 Q 10 16.4 8.6 15.4 Q 7.25 14.45 6.9 12.15 Q 6.5 9.1 7.9 6 Q 8.3 5.15 8.9 4.2 L 9.2 4.6 Q 9.75 5.15 10.45 4.95 Q 11.15 4.8 11.65 3.95 Q 12.05 3.35 12.1 2.75 Q 13.5 2.85 14.55 3.15 Q 15.55 3.45 15.95 3.65 Q 16.3 4.5 16.35 5.15 Q 16.75 8.15 15.35 11.25 Z" fill="#409942"/>
		<path d="M 9.2 4.6 L 8.9 4.2 Q 8.65 3.6 8.65 2.95 Q 10.15 2.6 12.1 2.75 Q 12.05 3.35 11.65 3.95 Q 11.15 4.8 10.45 4.95 Q 9.75 5.15 9.2 4.6 Z" fill="#FFFFFF"/>
		<path d="M 18.8 5.6 Q 17.5 4.3 15.95 3.65 Q 15.55 3.45 14.55 3.15 Q 13.5 2.85 12.1 2.75 Q 10.15 2.6 8.65 2.95 Q 7.45 3.2 6.55 3.6 L 6.05 4.6 Q 4.15 8.9 4.7 13.25 Q 5.25 16.8 7.35 18.3 Q 9.45 19.8 12.15 18.45 Q 15.35 16.8 17.3 12.45 Q 18.8 9.15 18.8 5.6 Z M 20.65 2.9 L 21.35 3.55 Q 23.3 5.6 23.9 8.4 Q 24.4 10.85 23.75 12.6 Q 23.1 14.4 21.05 16.2 Q 19.85 17.25 18.75 17.85 L 18.7 17.9 Q 19.95 16 20.5 13.65 Q 21.05 11.05 20.5 8.8 Q 20.05 11.45 19 13.75 Q 18.55 14.9 17.95 15.85 Q 16 19.15 13.45 20.7 L 12.55 21.25 Q 9 23.05 6.1 21 Q 3.2 18.95 2.6 14.3 L 2.55 13.85 Q 2.1 9.75 3.55 5.35 Q 2.55 6.15 1.55 7.25 Q 0.5 8.4 0 9.35 L 0 9.25 Q 0.85 4.9 4.6 2.3 L 5 2 Q 7 0.8 8.9 0.4 Q 12.4 -0.5 16.1 0.55 Q 16.85 0.7 17.9 1.2 Q 19.4 1.8 20.65 2.9 Z" fill="#452454"/>
	</g>
</svg>
