<?xml version="1.0"?>
<!DOCTYPE svg PUBLIC "-//W3C//DTD SVG 1.1//EN" "http://www.w3.org/Graphics/SVG/1.1/DTD/svg11.dtd">
<svg version='1.1' width='43px' height='87px' xmlns='http://www.w3.org/2000/svg' xmlns:xlink='http://www.w3.org/1999/xlink'>
	<g transform="translate(-0.00272727,0.00942029)">
		<path d="M 20.3 18.15 Q 21.35 17.75 22.15 16.95 Q 26.4 23.15 30.6 31.2 Q 34.6 38.85 36.9 44.9 Q 39.9 52.95 39.6 61.1 Q 39.25 70 34.95 75.6 Q 32.95 78.2 30.15 79.3 Q 27.8 80.25 23.8 80.5 Q 17.6 80.95 13.65 76.95 Q 8.7 71.9 9.15 66.35 Q 9.35 63.8 10.15 61.7 Q 10.55 60.7 11.9 58.25 Q 13.05 56 13.65 53.15 Q 14.4 49.75 14.1 46.6 Q 13.6 41.2 10.3 32.65 Q 6.25 23 4.55 18.95 Q 2.4 14.05 4.15 9.75 Q 5.3 7.1 7.65 6.2 Q 8.7 5.85 9.7 5.75 Q 8.65 9.05 10.05 12.55 Q 11.7 16.6 15.2 18.05 Q 17.85 19.15 20.3 18.15 Z" transform="translate(0.05,0)" fill="#8CC7FF"/>
		<path d="M 22.15 16.95 Q 21.35 17.75 20.3 18.15 Q 17.85 19.15 15.2 18.05 Q 11.7 16.6 10.05 12.55 Q 8.65 9.05 9.7 5.75 Q 8.7 5.85 7.65 6.2 Q 5.3 7.1 4.15 9.75 Q 2.4 14.05 4.55 18.95 Q 6.25 23 10.3 32.65 Q 13.6 41.2 14.1 46.6 Q 14.4 49.75 13.65 53.15 Q 13.05 56 11.9 58.25 Q 10.55 60.7 10.15 61.7 Q 9.35 63.8 9.15 66.35 Q 8.7 71.9 13.65 76.95 Q 17.6 80.95 23.8 80.5 Q 27.8 80.25 30.15 79.3 Q 32.95 78.2 34.95 75.6 Q 39.25 70 39.6 61.1 Q 39.9 52.95 36.9 44.9 Q 34.6 38.85 30.6 31.2 Q 26.4 23.15 22.15 16.95 Z M 20.4 15.65 Q 21.7 15.15 22.5 13.45 Q 23.6 10.8 22.35 7.7 Q 21.35 5.2 19.25 3.9 Q 17.2 2.6 15.4 3.3 Q 13.6 4.05 13 6.4 Q 12.45 8.8 13.45 11.3 Q 14.75 14.45 17.35 15.55 Q 19.05 16.2 20.4 15.65 Z M 23.75 7.05 Q 24.9 9.9 24.4 12.75 Q 28.7 20.2 33.35 29.45 Q 38.45 39.75 40 44.5 Q 42.75 53 42.45 61.9 Q 42.1 72 37.7 78.35 Q 32.65 85.7 23.4 86.15 Q 19.5 86.35 16.1 85.05 Q 12.75 83.8 10.3 81.25 Q 7.7 78.6 6.5 74.85 Q 5.3 71.05 5.65 66.9 Q 5.9 63.95 6.7 61.2 Q 7.15 59.6 8.2 56.8 Q 9.25 53.95 9.6 52.45 Q 10.15 49.95 9.95 47.25 Q 9.15 37.15 1.7 18.9 Q -1.4 11.45 1 6.05 Q 2.7 2.1 6.8 0.6 Q 10.65 -0.85 14.5 1.15 Q 17.2 0.55 19.8 2.2 Q 22.5 3.9 23.75 7.05 Z" transform="translate(0.05,0)" fill="#330A29"/>
		<path d="M 13.45 11.3 Q 12.45 8.8 13 6.4 Q 13.6 4.05 15.4 3.3 Q 17.2 2.6 19.25 3.9 Q 21.35 5.2 22.35 7.7 Q 23.6 10.8 22.5 13.45 Q 21.7 15.15 20.4 15.65 Q 19.05 16.2 17.35 15.55 Q 14.75 14.45 13.45 11.3 Z" transform="translate(0.05,0)" fill="#963DD6"/>
	</g>
</svg>
