<?xml version="1.0"?>
<!DOCTYPE svg PUBLIC "-//W3C//DTD SVG 1.1//EN" "http://www.w3.org/Graphics/SVG/1.1/DTD/svg11.dtd">
<svg version='1.1' width='34px' height='37px' xmlns='http://www.w3.org/2000/svg' xmlns:xlink='http://www.w3.org/1999/xlink'>
	<g transform="translate(0.0215385,-0.00123153)">
		<path d="M 30.9 12.25 Q 32.2 10.9 31.5 9 Q 30.9 7.7 27.35 6 Q 23.65 4.25 19.2 3.3 Q 15.4 2.25 12.65 2.4 Q 7.95 2.7 4.8 6.15 Q 1.8 9.45 3.45 15.65 Q 5.3 22.75 12.65 30.55 Q 15.55 33.65 19.9 33.2 Q 23.35 32.8 25.85 30.75 Q 28.15 28.85 28.6 26.35 Q 29.1 23.65 27.4 21.15 Q 25.1 17.8 22.05 15.1 Q 20.1 13.35 17 11.1 L 14.3 9.15 Q 14.45 9.2 16.8 9.7 Q 19.8 10.65 23.1 12.65 Q 26.65 14.05 28.25 13.75 Q 29.8 13.4 30.9 12.25 Z M 33.75 9.05 Q 33.95 10.2 33.8 10.7 Q 33.3 12.95 31.75 14.15 Q 30.2 15.35 28.55 15.6 Q 27.65 15.75 25.65 15.2 Q 27.35 16.9 29.35 19.85 Q 31.55 23.15 31.15 26.85 Q 30.7 30.55 27.8 32.95 Q 24.45 35.75 20.3 36.2 Q 15.15 36.8 11.65 33.1 Q 3.7 24.7 1.05 16.5 Q -1.65 8.3 2.15 4.1 Q 8.05 -2.35 21.5 1.35 Q 31 3.85 33.2 7.4 Q 33.55 7.95 33.75 9.05 Z" transform="translate(0.05,0)" fill="#452454"/>
		<path d="M 27.35 6 Q 30.9 7.7 31.5 9 Q 32.2 10.9 30.9 12.25 Q 29.8 13.4 28.25 13.75 Q 26.65 14.05 23.1 12.65 Q 19.8 10.65 16.8 9.7 Q 14.45 9.2 14.3 9.15 L 17 11.1 Q 20.1 13.35 22.05 15.1 Q 25.1 17.8 27.4 21.15 Q 29.1 23.65 28.6 26.35 Q 28.15 28.85 25.85 30.75 Q 23.35 32.8 19.9 33.2 Q 15.55 33.65 12.65 30.55 Q 5.3 22.75 3.45 15.65 Q 1.8 9.45 4.8 6.15 Q 7.95 2.7 12.65 2.4 Q 15.4 2.25 19.2 3.3 Q 23.65 4.25 27.35 6 Z" transform="translate(0.05,0)" fill="#FFF0BF"/>
	</g>
</svg>
