<?xml version="1.0"?>
<!DOCTYPE svg PUBLIC "-//W3C//DTD SVG 1.1//EN" "http://www.w3.org/Graphics/SVG/1.1/DTD/svg11.dtd">
<svg version='1.1' width='126px' height='108px' xmlns='http://www.w3.org/2000/svg' xmlns:xlink='http://www.w3.org/1999/xlink'>
	<g transform="translate(0.0107143,-6.18085)">
		<path d="M 25.65 9.95 Q 35.5 12.65 37.95 20.5 Q 35.2 21.5 33.6 22.25 L 33.25 21.25 Q 32.35 19.2 30.3 17.55 Q 28.3 15.9 25.6 15.05 Q 22.4 14.05 19.15 14.35 Q 15.9 14.7 13.15 16.3 Q 8.7 18.9 6.9 23.35 Q 4.9 28.3 7.45 32.9 Q 9.55 36.65 13.25 38.45 L 11.8 40.7 Q 3.45 36.35 3.15 27.4 L 3.15 26.8 Q 3.15 22.8 4.8 19.3 Q 6.5 15.85 9.6 13.35 Q 13.05 10.65 17.3 9.75 Q 21.5 8.85 25.65 9.95 Z" fill="#8CC7FF"/>
		<path d="M 37.95 20.5 Q 35.5 12.65 25.65 9.95 Q 21.5 8.85 17.3 9.75 Q 13.05 10.65 9.6 13.35 Q 6.5 15.85 4.8 19.3 Q 3.15 22.8 3.15 26.8 L 3.15 27.4 Q 3.45 36.35 11.8 40.7 L 10.25 43.45 Q 0.3 38.3 0 27.5 Q -0.15 22.5 1.8 18.2 Q 3.8 13.9 7.65 10.85 Q 11.65 7.7 16.65 6.65 Q 21.65 5.6 26.5 6.9 Q 38.05 10.05 41 19.55 Z" fill="#330A29"/>
		<path d="M 24.65 18.05 Q 26.65 18.75 28.2 19.9 Q 29.7 21.1 30.35 22.5 L 30.75 23.6 Q 22.65 27.7 17.25 33.6 Q 16.35 34.45 15.2 35.9 Q 11.95 34.45 10.2 31.35 Q 8.3 28 9.9 24.35 Q 11.3 21.05 14.75 19 Q 19.25 16.4 24.65 18.05 Z" fill="#FFE078"/>
		<path d="M 25.6 15.05 Q 28.3 15.9 30.3 17.55 Q 32.35 19.2 33.25 21.25 L 33.6 22.25 Q 31.85 23 30.75 23.6 L 30.35 22.5 Q 29.7 21.1 28.2 19.9 Q 26.65 18.75 24.65 18.05 Q 19.25 16.4 14.75 19 Q 11.3 21.05 9.9 24.35 Q 8.3 28 10.2 31.35 Q 11.95 34.45 15.2 35.9 Q 14.25 37.05 13.25 38.45 Q 9.55 36.65 7.45 32.9 Q 4.9 28.3 6.9 23.35 Q 8.7 18.9 13.15 16.3 Q 15.9 14.7 19.15 14.35 Q 22.4 14.05 25.6 15.05 Z" fill="#330A29"/>
		<path d="M 109.65 14.2 Q 112.5 16.95 113.2 19.6 Q 114 22.45 112.4 25.7 Q 111.7 26.9 110.15 27.8 Q 109.45 28.25 107.2 29.25 Q 101.15 23.95 93.1 20.75 Q 93 18.05 94.9 15.55 Q 96.6 13.3 98.65 12.7 Q 101.15 11.8 104.9 12.55 Q 107.65 13.15 109.65 14.2 Z" fill="#FFE078"/>
		<path d="M 112.8 41 Q 114.8 40.35 116 39.7 Q 123.8 51.9 125 64.05 Q 126.25 76.65 120.15 88.05 Q 114.5 98.6 101.15 105.5 Q 87.15 112.75 69.25 113.4 Q 58.1 113.8 47.45 112.35 Q 36.8 110.85 28.55 107.7 Q 14.8 102.55 9.9 94.3 Q 2.35 81.55 3.5 66.5 Q 4.35 54.5 10.25 43.45 L 13.25 38.45 Q 14.25 37.05 15.2 35.9 Q 16.35 34.45 17.25 33.6 Q 22.65 27.7 30.75 23.6 Q 31.85 23 33.6 22.25 Q 35.2 21.5 37.95 20.5 L 41 19.55 Q 52.4 16.15 66.75 16.15 Q 75.35 16.15 83.1 17.75 Q 83 19.4 83.15 20.8 Q 75.15 18.95 66.25 18.95 Q 53.15 18.95 41.95 22.55 Q 27.95 27.1 19.4 36.65 Q 12.4 44.6 9.35 53.45 Q 6.3 64.4 7 74.55 Q 8.15 92.55 21.3 100.25 Q 23.45 103.9 27.45 106.4 Q 31.6 109 37.8 110.45 Q 42.3 111.55 48.95 112.25 L 50.3 112.4 Q 58.95 113.4 68.15 112.7 Q 79.05 111.9 81.7 108.95 L 82.55 107.9 Q 94.5 105.15 103.6 98.85 Q 112.2 92.9 116.2 85.15 Q 121.15 75.45 120.05 62.95 Q 119 50.85 112.8 41 Z" fill="#330A29"/>
		<path d="M 107.2 29.25 Q 104.9 30.4 104.2 31.05 Q 99.2 26.85 93.3 24.2 Q 93.4 22.55 93.15 21.1 L 93.1 20.75 Q 101.15 23.95 107.2 29.25 Z" fill="#330A29"/>
		<path d="M 83.15 20.8 L 83.15 21.1 Q 82.85 26.85 87.85 28.45 Q 92.9 29.65 93.3 24.2 Q 99.2 26.85 104.2 31.05 L 103.65 31.6 Q 102.1 33.4 102.5 36.2 Q 102.9 38.85 104.6 40.25 Q 106.15 42.05 108.45 41.85 Q 110.7 41.7 112.8 41 Q 119 50.85 120.05 62.95 Q 121.15 75.45 116.2 85.15 Q 112.2 92.9 103.6 98.85 Q 94.5 105.15 82.55 107.9 Q 87.55 101.65 87.9 91.35 Q 88.15 86.2 81.6 79.8 Q 75.3 73.65 66.35 69.95 Q 56.25 65.75 46.3 66.4 Q 39.15 66.85 31.95 70.7 Q 25.45 74.15 21.45 78.9 Q 18 83 18.4 89.6 Q 18.8 95.95 21.3 100.25 Q 8.15 92.55 7 74.55 Q 6.3 64.4 9.35 53.45 Q 12.4 44.6 19.4 36.65 Q 27.95 27.1 41.95 22.55 Q 53.15 18.95 66.25 18.95 Q 75.15 18.95 83.15 20.8 Z" fill="#8CC7FF"/>
		<path d="M 32.45 72.85 Q 26.7 76.05 23.1 80.35 Q 21.45 82.35 20.85 83.9 Q 20.3 85.5 20.55 87.35 Q 22.05 98.15 27.6 103.15 Q 33.35 108.3 46.15 109.75 L 47.55 109.9 Q 56.8 110.95 64 110.4 Q 74.35 109.6 78.95 105.65 Q 84.3 101.05 84.65 91.2 Q 84.8 87.5 79.3 82.15 Q 73.35 76.3 64.5 72.5 Q 54.5 68.2 45.3 68.8 Q 38.95 69.2 32.45 72.85 Z M 81.6 79.8 Q 88.15 86.2 87.9 91.35 Q 87.55 101.65 82.55 107.9 L 81.7 108.95 Q 79.05 111.9 68.15 112.7 Q 58.95 113.4 50.3 112.4 L 48.95 112.25 Q 42.3 111.55 37.8 110.45 Q 31.6 109 27.45 106.4 Q 23.45 103.9 21.3 100.25 Q 18.8 95.95 18.4 89.6 Q 18 83 21.45 78.9 Q 25.45 74.15 31.95 70.7 Q 39.15 66.85 46.3 66.4 Q 56.25 65.75 66.35 69.95 Q 75.3 73.65 81.6 79.8 Z" fill="#330A29"/>
	</g>
</svg>
