<?xml version="1.0"?>
<!DOCTYPE svg PUBLIC "-//W3C//DTD SVG 1.1//EN" "http://www.w3.org/Graphics/SVG/1.1/DTD/svg11.dtd">
<svg version='1.1' width='76px' height='42px' xmlns='http://www.w3.org/2000/svg' xmlns:xlink='http://www.w3.org/1999/xlink'>
	<g transform="translate(0.014881,0.00737705)">
		<path d="M 47.55 7.8 Q 55.3 8.3 62.15 10.15 Q 53.8 6.05 44.7 4.15 Q 35.4 2.2 26.9 2.9 Q 19.95 3.45 14.7 5.8 Q 9.4 8.15 6.45 11.95 Q 4.3 14.6 4.55 17.85 Q 4.55 18.45 4.7 19.05 Q 5.8 24.95 13.55 32.25 Q 18.55 36.9 25.2 41.3 Q 20.5 36.1 18.2 32.75 Q 14.15 26.85 13.8 22.2 L 13.85 20.65 Q 14.15 16.45 17.65 13.7 Q 21.9 10.3 29.85 8.75 Q 37.8 7.15 47.55 7.8 Z M 52.65 4.3 Q 65.75 8.7 75.3 17.5 Q 69.85 14 63.15 12.55 Q 57.95 11.4 47.4 10.7 Q 38.05 10.1 30.25 11.35 Q 22.15 12.7 18.45 15.65 Q 16.15 17.5 15.85 21.05 Q 15.5 25.25 19.4 31.65 Q 22.2 36.3 26.1 40.5 Q 27.4 41.9 25.7 41.95 L 23.75 41.75 Q 18 39.1 12.55 35.15 Q 1.7 27.35 0.2 19.4 Q -0.75 14.2 2.5 9.95 Q 6 5.45 12.45 2.75 Q 19.2 -0.15 26.7 0 Q 40.8 0.3 52.65 4.3 Z" fill="#452454"/>
		<path d="M 44.7 4.15 Q 53.8 6.05 62.15 10.15 Q 55.3 8.3 47.55 7.8 Q 37.8 7.15 29.85 8.75 Q 21.9 10.3 17.65 13.7 Q 14.15 16.45 13.85 20.65 L 13.8 22.2 Q 14.15 26.85 18.2 32.75 Q 20.5 36.1 25.2 41.3 Q 18.55 36.9 13.55 32.25 Q 5.8 24.95 4.7 19.05 Q 4.55 18.45 4.55 17.85 Q 4.3 14.6 6.45 11.95 Q 9.4 8.15 14.7 5.8 Q 19.95 3.45 26.9 2.9 Q 35.4 2.2 44.7 4.15 Z" fill="#FF98BB"/>
	</g>
</svg>
