<?xml version="1.0"?>
<!DOCTYPE svg PUBLIC "-//W3C//DTD SVG 1.1//EN" "http://www.w3.org/Graphics/SVG/1.1/DTD/svg11.dtd">
<svg version='1.1' width='87px' height='43px' xmlns='http://www.w3.org/2000/svg' xmlns:xlink='http://www.w3.org/1999/xlink'>
	<g transform="translate(-0.02,-0.0220588)">
		<path d="M 81.5 13.85 L 81.45 13.45 Q 81.6 8.55 70.4 5.65 L 59.2 3.75 Q 52.65 2.7 44.75 2.35 Q 37.65 2.05 33.6 2.4 Q 26 3.05 18.35 6.65 Q 9.8 10.65 6.2 16.25 Q 4.4 19.1 4.55 23.05 Q 4.65 26.9 6.5 30.1 Q 8.1 32.9 9.95 34.45 Q 11.7 35.95 14.35 36.95 Q 17.3 38.1 19.6 38.15 Q 22.3 38.2 25.05 36.75 Q 28.7 34.8 32.35 31.2 Q 34.7 29 36.1 28 Q 38.4 26.35 41.3 25.4 Q 50.95 22.15 70.35 21.95 Q 76.75 21.85 79.7 18.75 Q 81.6 16.75 81.5 13.85 Z M 81.25 5.55 Q 86.3 8.45 86.5 13.6 Q 86.65 17.95 83.75 21.1 Q 79.65 25.35 71.6 25.45 Q 51.85 25.65 42.3 28.9 Q 39.75 29.75 37.65 31.25 Q 36.5 32.1 34.2 34.25 Q 32.15 36.2 30.75 37.3 Q 28.5 39.1 25.85 40.5 Q 22.2 42.5 18.25 42.85 Q 14.35 43.15 10.85 41.85 Q 7.55 40.55 5.05 37.95 Q 2.55 35.3 1.25 31.7 Q -1.95 23 2.85 15.5 Q 7 8.95 16.15 4.7 Q 24.2 0.95 33.15 0.15 Q 39.3 -0.4 54.15 0.75 Q 68.25 1.85 74.05 3.05 Q 78.65 4.05 81.25 5.55 Z" transform="translate(0.05,0.05)" fill="#330A29"/>
		<path d="M 81.45 13.45 L 81.5 13.85 Q 81.6 16.75 79.7 18.75 Q 76.75 21.85 70.35 21.95 Q 50.95 22.15 41.3 25.4 Q 38.4 26.35 36.1 28 Q 34.7 29 32.35 31.2 Q 28.7 34.8 25.05 36.75 Q 22.3 38.2 19.6 38.15 Q 17.3 38.1 14.35 36.95 Q 11.7 35.95 9.95 34.45 Q 8.1 32.9 6.5 30.1 Q 4.65 26.9 4.55 23.05 Q 4.4 19.1 6.2 16.25 Q 9.8 10.65 18.35 6.65 Q 26 3.05 33.6 2.4 Q 37.65 2.05 44.75 2.35 Q 52.65 2.7 59.2 3.75 L 70.4 5.65 Q 81.6 8.55 81.45 13.45 Z" transform="translate(0.05,0.05)" fill="#8CC7FF"/>
	</g>
</svg>
