<?xml version="1.0"?>
<!DOCTYPE svg PUBLIC "-//W3C//DTD SVG 1.1//EN" "http://www.w3.org/Graphics/SVG/1.1/DTD/svg11.dtd">
<svg version='1.1' width='207px' height='321px' xmlns='http://www.w3.org/2000/svg' xmlns:xlink='http://www.w3.org/1999/xlink'>
	<g transform="translate(-0,-0.0222222)">
		<path d="M 156.95 215.85 Q 153.9 210.95 149.95 212.1 L 151.1 214.3 Q 152.35 217.05 152.7 220.1 Q 153.9 229.75 145.95 238.1 Q 148.15 238.1 150.7 236.85 Q 155.9 234.35 157.95 228.1 Q 160.3 221.15 156.95 215.85 Z M 143.95 145.45 L 147.6 147.5 Q 151.75 150.35 154.45 154.35 Q 163.15 167.2 153.95 186.75 Q 155.95 186.45 158.2 184.35 Q 162.7 180.2 163.95 171.45 Q 165.5 160.5 159.45 151.95 Q 153.15 143.05 143.95 145.45 Z M 112.65 38.75 Q 110.3 37.05 107.55 38.15 Q 105 39.2 103.45 41.95 Q 101.85 44.85 102.45 47.65 Q 103.15 50.9 106.65 52.75 Q 110.2 54.65 113.2 53.85 Q 115.95 53.1 117.15 50.5 Q 118.35 47.9 117.35 44.8 Q 116.2 41.35 112.65 38.75 Z M 96.7 23.6 Q 93.6 16.75 83.3 12.75 Q 79.15 11.15 73.55 13.6 Q 68.1 16 64.7 20.6 Q 61.05 25.65 62 30.7 Q 63.2 36.55 70.65 40.75 Q 78.2 45 85.75 43.05 Q 92.6 41.25 95.95 35.5 Q 99.45 29.65 96.7 23.6 Z M 188.65 179.45 Q 191.3 170.95 188.5 161.95 Q 185.55 152.5 179.3 153.45 L 181.3 156.1 Q 183.5 159.55 184.4 163.7 Q 187.2 176.85 175.95 191.45 Q 178.3 191.1 181.05 189.45 Q 186.55 186.1 188.65 179.45 Z M 177.3 109.45 Q 183.1 122.4 182.35 133.5 Q 181.8 142.25 177.95 146.1 L 179.55 145.55 Q 181.45 144.75 183.15 143.35 Q 188.5 138.85 189.3 130.1 Q 190.45 118.45 184.5 105.8 Q 177.85 91.65 166.65 87.45 Q 158.8 84.7 150.15 86.8 Q 142.4 88.65 140.65 92.1 L 144.8 91.35 Q 149.9 90.75 154.75 91.5 Q 170.25 94 177.3 109.45 Z M 163.95 60.75 L 166.55 62.15 Q 169.65 64.05 171.9 66.45 Q 179.05 74.1 175.3 84.1 L 177.8 84.15 Q 180.85 84.35 183.4 85.35 Q 191.55 88.5 191.95 98.1 L 193.55 98.75 Q 195.55 99.75 197.4 101.45 Q 203.25 106.75 205.3 116.75 Q 207.6 127.7 203.8 136.45 Q 200.65 143.75 195.3 146.1 L 196.8 147.45 Q 198.6 149.4 199.95 152.1 Q 204.3 160.75 202.65 174.1 Q 200.95 187.45 192.65 197.8 Q 188.5 202.95 184.65 205.45 Q 182.8 208.3 179.5 210.7 Q 172.8 215.5 165.3 213.45 L 165.8 216.05 Q 166.3 219.25 165.95 222.2 Q 164.95 231.7 156.65 235.45 L 155 241.3 Q 152.55 248.1 148.6 252.9 L 148.65 251.45 Q 146.15 255.2 143.15 255.7 L 140.65 255.45 Q 134.45 260.95 127.6 262.15 Q 121.4 263.3 115.8 260.75 Q 110.5 258.35 107.3 253.35 Q 104 248.25 104 242.1 Q 104 231.7 110 225.2 Q 111.9 223.15 114.15 221.75 L 116 220.75 Q 115.55 212.85 119.75 208 Q 121.05 206.5 122.65 205.45 L 124 204.75 Q 110.25 195.6 107.4 181.25 Q 106.5 176.8 106.8 172.3 L 107.3 168.75 Q 100.5 168.75 93.65 164.15 Q 80 155 80 132.1 Q 80 109.2 94 96.05 Q 101 89.45 108 87.45 Q 94.65 80.75 91 68.75 Q 89.85 65 89.8 61.2 L 90 58.1 Q 65 62.25 47.65 51.25 Q 42.25 47.85 38.2 43.3 L 35.3 39.45 Q 25.75 49 14.4 49.5 Q 8.75 49.75 5 48.1 L 5 20.75 Q 7.75 18.1 12.5 16.45 Q 21.95 13.1 31.95 18.1 Q 33.8 12.75 38.15 8.7 Q 46.8 0.5 59.3 6.75 L 61.05 5 Q 63.55 3 66.95 1.75 Q 77.95 -2.25 94.65 2.75 Q 114.2 8.65 124.1 16.85 Q 113.95 10.85 97.95 14.75 L 102.75 15.05 Q 108.45 15.85 113.2 18.2 Q 128.4 25.7 127.95 46.1 L 130.9 45.65 Q 134.5 45.25 137.9 45.5 Q 148.75 46.35 153.3 53.45 Q 153.75 51.25 152.9 48.4 Q 151.25 42.75 144.7 39.45 Q 151.5 41 156.1 45.3 Q 162.15 50.9 163.95 60.75 Z" transform="translate(0,0.05)" fill="#FFCCF2"/>
		<path d="M 90 58.1 L 89.8 61.2 Q 89.85 65 91 68.75 Q 94.65 80.75 108 87.45 Q 101 89.45 94 96.05 Q 80 109.2 80 132.1 Q 80 155 93.65 164.15 Q 100.5 168.75 107.3 168.75 L 106.8 172.3 Q 106.5 176.8 107.4 181.25 Q 110.25 195.6 124 204.75 L 122.65 205.45 Q 121.05 206.5 119.75 208 Q 115.55 212.85 116 220.75 L 114.15 221.75 Q 111.9 223.15 110 225.2 Q 104 231.7 104 242.1 Q 104 248.25 107.3 253.35 Q 110.5 258.35 115.8 260.75 Q 121.4 263.3 127.6 262.15 Q 134.45 260.95 140.65 255.45 L 143.15 255.7 Q 146.15 255.2 148.65 251.45 L 148.6 252.9 Q 148.35 257.05 146.6 260.3 Q 143.85 265.4 138 266.75 L 135.75 271.35 Q 132.6 276.65 128 280.35 Q 113.3 292.2 90 283.45 L 88.4 286.3 Q 86.2 289.6 83.25 291.75 Q 73.75 298.75 60 292.1 L 58.9 295.25 Q 57.25 298.95 54.3 301.75 Q 44.95 310.75 26.65 307.45 L 24.45 309.6 Q 21.65 312.2 18.75 314.2 Q 9.35 320.6 2 318.9 Q 8.95 312.75 16.9 297.95 Q 25.25 282.3 30 265.45 Q 34.4 249.75 45.9 238.95 Q 49.35 235.65 55.45 231.15 Q 61.9 226.35 64 224.45 Q 70 219.05 83.4 214.2 Q 98.7 208.6 99 208.45 L 109 209.1 Q 119 208.85 119 204.45 Q 118.6 203.2 117.65 201.6 Q 116.7 199.55 114.6 197.7 Q 111.3 194.8 105.85 193.05 Q 97.6 191.1 94.7 190.3 Q 90 189 88.15 187.15 Q 86.05 185.05 77 183.35 Q 68.3 181.7 65.4 182.4 Q 63.55 182.9 62.85 181.4 Q 62.4 180.5 62.45 179 Q 66.3 168.7 67 156.45 Q 67.4 149.7 66.4 135.7 Q 65.75 126.95 68 122.45 Q 69.95 118.45 67.35 115.05 Q 64.75 111.7 60.75 112.4 Q 56.2 113.05 52.75 119.55 Q 51.25 122.35 48.1 128.9 Q 46.25 132.6 44.75 134.6 Q 40.45 140.35 35.05 149.95 Q 32.15 155.1 30.1 156.95 Q 27.5 159.35 25.3 157.75 Q 24.5 156.05 23.75 151.6 Q 22.65 145.3 22.35 143.95 Q 20.2 134.9 15 136.45 Q 9.05 138.25 10.15 142.95 Q 10.45 144.35 11.5 147.4 Q 12.3 150.3 12 152.45 Q 11.25 157.6 9.85 161.35 Q 8.25 165.65 3.3 175 L 5 48.1 Q 8.75 49.75 14.4 49.5 Q 25.75 49 35.3 39.45 L 38.2 43.3 Q 42.25 47.85 47.65 51.25 Q 65 62.25 90 58.1 Z" transform="translate(0,0.05)" fill="#EE8ED5"/>
		<path d="M 41.4 225.9 Q 49.5 217.05 57 213.45 Q 59.6 208.95 50.45 214.9 Q 41.25 220.8 34.5 227.95 Q 28.45 234.35 25.3 242.2 Q 23.35 247.15 21 257.95 Q 19.5 264.95 16.2 269.2 Q 14.25 271.7 9.5 277.45 Q 4.5 284.95 0.5 292.45 L 0.5 301.45 Q 4.05 298.75 8.05 290.2 Q 12.95 279.9 16 275.95 Q 20.3 270.45 24.8 258.25 Q 29.25 245.2 31 240.95 Q 33.8 234.15 41.4 225.9 Z M 40.15 178.65 Q 35.35 189 33.5 196.45 Q 32.1 202.05 28.65 203.6 Q 23.6 205.75 21.5 208.45 Q 19.2 211.35 15.55 218.1 Q 12.75 223.25 10 225.45 Q 5 229.45 2 232.45 L 1 250.95 Q 1.25 248.35 2.7 244.85 Q 5.55 237.85 11.5 233.45 Q 16.15 230 20.05 221.2 Q 23.9 212.5 29 208.95 Q 35 204.75 37.75 197.5 Q 39.1 193.4 39.8 191.3 Q 41.1 187.5 42.5 184.95 Q 44.05 182.15 44.25 179.1 Q 44.25 175.2 44.5 172.45 Q 44.9 168.3 40.15 178.65 Z M 15.5 159.95 Q 15.2 163.8 12.75 168.75 Q 12.6 169.1 8.5 176.45 Q 6.95 179.25 4.55 181.4 Q 3.4 182.45 2.5 182.95 L 2.1 193.25 Q 2.65 187.9 8 182.95 Q 12.25 179 13.95 174.4 Q 14.25 173.55 16.5 163.95 Q 17.6 159.65 16.75 157.45 Q 15.9 155.2 15.5 159.95 Z M 45 148.35 Q 49.9 143.65 52 138.45 Q 53.25 135.4 54.15 130.3 Q 55 124.65 55.5 122.1 Q 57.25 113.05 62 112.45 Q 61.5 112.35 60.75 112.4 Q 64.75 111.7 67.35 115.05 Q 69.95 118.45 68 122.45 Q 65.75 126.95 66.4 135.7 Q 67.4 149.7 67 156.45 Q 66.3 168.7 62.45 179 L 62.45 178.6 L 60 184.45 Q 59.3 186.65 60.6 187.9 Q 62.1 189.45 65.7 188 Q 69.75 186.45 76.65 187.6 Q 83.6 188.75 88.45 191.85 Q 93.25 194.95 98.3 196.5 Q 103.35 198.05 105.55 197.15 Q 107.85 196.25 112.05 197.95 Q 116.45 199.7 117.95 202.5 L 117.65 201.6 Q 118.6 203.2 119 204.45 Q 119 208.85 109 209.1 L 99 208.45 Q 98.7 208.6 83.4 214.2 Q 70 219.05 64 224.45 Q 61.9 226.35 55.45 231.15 Q 49.35 235.65 45.9 238.95 Q 34.4 249.75 30 265.45 Q 25.25 282.3 16.9 297.95 Q 8.95 312.75 2 318.9 L 0 320.45 L 2 177.45 L 3.3 175 Q 8.25 165.65 9.85 161.35 Q 11.25 157.6 12 152.45 Q 12.3 150.3 11.5 147.4 Q 10.45 144.35 10.15 142.95 Q 9.05 138.25 15 136.45 Q 20.2 134.9 22.35 143.95 Q 22.65 145.3 23.75 151.6 Q 24.5 156.05 25.3 157.75 Q 24.5 157.1 24 156.45 Q 27.5 165.6 31.4 165.2 Q 34.7 164.85 38 157.45 Q 39.9 153.15 45 148.35 Z" transform="translate(0,0.05)" fill="#C29446"/>
		<path d="M 44.75 134.6 Q 46.25 132.6 48.1 128.9 Q 51.25 122.35 52.75 119.55 Q 56.2 113.05 60.75 112.4 Q 61.5 112.35 62 112.45 Q 57.25 113.05 55.5 122.1 Q 55 124.65 54.15 130.3 Q 53.25 135.4 52 138.45 Q 49.9 143.65 45 148.35 Q 39.9 153.15 38 157.45 Q 34.7 164.85 31.4 165.2 Q 27.5 165.6 24 156.45 Q 24.5 157.1 25.3 157.75 Q 27.5 159.35 30.1 156.95 Q 32.15 155.1 35.05 149.95 Q 40.45 140.35 44.75 134.6 Z" transform="translate(0,0.05)" fill="#A86427"/>
		<path d="M 60 184.45 L 62.45 178.6 L 62.45 179 Q 62.4 180.5 62.85 181.4 Q 63.55 182.9 65.4 182.4 Q 68.3 181.7 77 183.35 Q 86.05 185.05 88.15 187.15 Q 90 189 94.7 190.3 Q 97.6 191.1 105.85 193.05 Q 111.3 194.8 114.6 197.7 Q 116.7 199.55 117.65 201.6 L 117.95 202.5 Q 116.45 199.7 112.05 197.95 Q 107.85 196.25 105.55 197.15 Q 103.35 198.05 98.3 196.5 Q 93.25 194.95 88.45 191.85 Q 83.6 188.75 76.65 187.6 Q 69.75 186.45 65.7 188 Q 62.1 189.45 60.6 187.9 Q 59.3 186.65 60 184.45 Z" transform="translate(0,0.05)" fill="#A86427"/>
		<path d="M 50.45 214.9 Q 59.6 208.95 57 213.45 Q 49.5 217.05 41.4 225.9 Q 33.8 234.15 31 240.95 Q 29.25 245.2 24.8 258.25 Q 20.3 270.45 16 275.95 Q 12.95 279.9 8.05 290.2 Q 4.05 298.75 0.5 301.45 L 0.5 292.45 Q 4.5 284.95 9.5 277.45 Q 14.25 271.7 16.2 269.2 Q 19.5 264.95 21 257.95 Q 23.35 247.15 25.3 242.2 Q 28.45 234.35 34.5 227.95 Q 41.25 220.8 50.45 214.9 Z" transform="translate(0,0.05)" fill="#91501A"/>
		<path d="M 33.5 196.45 Q 35.35 189 40.15 178.65 Q 44.9 168.3 44.5 172.45 Q 44.25 175.2 44.25 179.1 Q 44.05 182.15 42.5 184.95 Q 41.1 187.5 39.8 191.3 Q 39.1 193.4 37.75 197.5 Q 35 204.75 29 208.95 Q 23.9 212.5 20.05 221.2 Q 16.15 230 11.5 233.45 Q 5.55 237.85 2.7 244.85 Q 1.25 248.35 1 250.95 L 2 232.45 Q 5 229.45 10 225.45 Q 12.75 223.25 15.55 218.1 Q 19.2 211.35 21.5 208.45 Q 23.6 205.75 28.65 203.6 Q 32.1 202.05 33.5 196.45 Z" transform="translate(0,0.05)" fill="#91501A"/>
		<path d="M 16.75 157.45 Q 17.6 159.65 16.5 163.95 Q 14.25 173.55 13.95 174.4 Q 12.25 179 8 182.95 Q 2.65 187.9 2.1 193.25 L 2.5 182.95 Q 3.4 182.45 4.55 181.4 Q 6.95 179.25 8.5 176.45 Q 12.6 169.1 12.75 168.75 Q 15.2 163.8 15.5 159.95 Q 15.9 155.2 16.75 157.45 Z" transform="translate(0,0.05)" fill="#91501A"/>
		<path d="M 83.3 12.75 Q 93.6 16.75 96.7 23.6 Q 99.45 29.65 95.95 35.5 Q 92.6 41.25 85.75 43.05 Q 78.2 45 70.65 40.75 Q 63.2 36.55 62 30.7 Q 61.05 25.65 64.7 20.6 Q 68.1 16 73.55 13.6 Q 79.15 11.15 83.3 12.75 Z" transform="translate(0,0.05)" fill="#FFF1FB"/>
		<path d="M 112.65 38.75 Q 116.2 41.35 117.35 44.8 Q 118.35 47.9 117.15 50.5 Q 115.95 53.1 113.2 53.85 Q 110.2 54.65 106.65 52.75 Q 103.15 50.9 102.45 47.65 Q 101.85 44.85 103.45 41.95 Q 105 39.2 107.55 38.15 Q 110.3 37.05 112.65 38.75 Z" transform="translate(0,0.05)" fill="#FFF1FB"/>
		<path d="M 177.95 146.1 Q 181.8 142.25 182.35 133.5 Q 183.1 122.4 177.3 109.45 Q 170.25 94 154.75 91.5 Q 149.9 90.75 144.8 91.35 L 140.65 92.1 Q 142.4 88.65 150.15 86.8 Q 158.8 84.7 166.65 87.45 Q 177.85 91.65 184.5 105.8 Q 190.45 118.45 189.3 130.1 Q 188.5 138.85 183.15 143.35 Q 181.45 144.75 179.55 145.55 Z" transform="translate(0,0.05)" fill="#EE8ED5"/>
		<path d="M 179.3 153.45 Q 185.55 152.5 188.5 161.95 Q 191.3 170.95 188.65 179.45 Q 186.55 186.1 181.05 189.45 Q 178.3 191.1 175.95 191.45 Q 187.2 176.85 184.4 163.7 Q 183.5 159.55 181.3 156.1 Z" transform="translate(0,0.05)" fill="#EE8ED5"/>
		<path d="M 124.1 16.85 Q 131.05 21 134.55 29.3 Q 136.3 33.45 136.65 36.75 Q 141.15 37.7 144.7 39.45 Q 151.25 42.75 152.9 48.4 Q 153.75 51.25 153.3 53.45 Q 148.75 46.35 137.9 45.5 Q 134.5 45.25 130.9 45.65 L 127.95 46.1 Q 128.4 25.7 113.2 18.2 Q 108.45 15.85 102.75 15.05 L 97.95 14.75 Q 113.95 10.85 124.1 16.85 Z" transform="translate(0,0.05)" fill="#EE8ED5"/>
		<path d="M 147.6 147.5 L 143.95 145.45 Q 153.15 143.05 159.45 151.95 Q 165.5 160.5 163.95 171.45 Q 162.7 180.2 158.2 184.35 Q 155.95 186.45 153.95 186.75 Q 163.15 167.2 154.45 154.35 Q 151.75 150.35 147.6 147.5 Z" transform="translate(0,0.05)" fill="#FFF1FB"/>
		<path d="M 149.95 212.1 Q 153.9 210.95 156.95 215.85 Q 160.3 221.15 157.95 228.1 Q 155.9 234.35 150.7 236.85 Q 148.15 238.1 145.95 238.1 Q 153.9 229.75 152.7 220.1 Q 152.35 217.05 151.1 214.3 Z" transform="translate(0,0.05)" fill="#FFF1FB"/>
	</g>
</svg>
