<?xml version="1.0"?>
<!DOCTYPE svg PUBLIC "-//W3C//DTD SVG 1.1//EN" "http://www.w3.org/Graphics/SVG/1.1/DTD/svg11.dtd">
<svg version='1.1' width='75px' height='70px' xmlns='http://www.w3.org/2000/svg' xmlns:xlink='http://www.w3.org/1999/xlink'>
	<g transform="translate(-0,0.0210526)">
		<path d="M 70.5 22.15 Q 68 17.95 63.7 17.05 Q 60.6 16.4 57.3 17.5 Q 55.55 18.05 53.7 19.45 Q 51.9 20.8 51.45 21.75 Q 49.85 25.45 44.2 25.3 Q 41.35 25.2 34.4 21.95 Q 28.7 19.25 24.2 16.45 Q 22 15.1 16.2 10.5 Q 7.85 3.8 6 3.55 Q 5.3 3.55 4.8 4.15 Q 3.55 5.45 3.05 8.4 Q 2.45 11.55 3.15 14.5 Q 4.1 18.85 7.55 21.95 Q 9.55 23.7 12.1 24.85 Q 17.8 27.2 28.2 29.65 Q 38.35 32 41.5 31.85 Q 38.9 33.6 33.1 35.75 Q 30.35 36.75 22.9 39.2 Q 19.05 40.5 10.05 42.7 Q 5.2 43.85 4.65 44.35 L 4.65 44.4 Q 4.65 44.9 5 45.65 Q 5.9 47.5 7.45 49.05 Q 9.35 51.05 11.65 51.95 Q 14.9 53.2 18.7 53.15 Q 22.65 53.05 25.8 51.5 Q 30.1 49.45 36.5 44.2 Q 42.35 39.45 45.25 36.05 Q 40.85 49.2 36.4 54.75 Q 34.2 57.55 30.15 60.25 Q 27.5 62.1 27.85 63.7 Q 28.15 64.75 29.8 65.7 Q 31.6 66.7 33.65 66.85 Q 35.95 67.1 38.35 66.45 Q 40.75 65.8 42.25 64.5 Q 44.75 62.3 46.35 58.4 Q 47.3 56 48.2 51.95 Q 48.8 49.35 49.25 45.65 Q 49.7 42 49.75 39.6 Q 51.5 41.85 52.5 44.85 Q 54.1 49.5 54.2 55.2 Q 54.2 57.95 54.35 59.35 Q 56.45 58.6 58.6 56.45 Q 59.75 55.3 60.5 53.25 Q 61.2 51.3 61.2 49.4 L 61.2 49.3 Q 61.1 44.7 59.1 40.65 Q 57.85 38 56.1 36.15 Q 53.25 34 52.95 30.05 Q 52.85 28.85 53.4 27.35 Q 54.05 25.75 55.2 24.65 Q 56.3 23.65 57.9 23.15 Q 59.4 22.7 60.6 22.9 Q 63.45 23.3 64.6 25.3 Q 65.6 27.1 64.85 29.4 Q 64.9 27.75 63.8 26.45 Q 62.8 25.25 61.4 25 Q 60.35 24.75 59.05 25.1 Q 57.7 25.4 57 26.05 Q 55.5 27.55 55.75 30.35 Q 55.8 31.05 56.5 32.1 Q 57.35 33.55 58.75 34.4 Q 60.45 35.45 62 35.6 Q 63.75 35.8 66.25 35.1 Q 68.25 34.55 69.75 33.1 Q 71.1 31.75 71.45 30.3 Q 72.55 25.6 70.5 22.15 Z M 67.5 15.1 Q 71.15 16.6 73.2 20 Q 74.7 22.55 74.9 25.8 Q 75.05 28.8 74.15 31.25 Q 72.65 35.25 68.1 37.05 Q 65.9 37.9 63.15 37.9 Q 60.55 37.9 59 37.15 Q 63.9 44 64 49.3 Q 64.05 51.5 62.9 54.4 Q 61.9 56.9 60.75 58.25 Q 59.65 59.55 57.55 60.9 Q 55.1 62.4 53.5 62.3 Q 52.2 62.2 52 60.2 Q 52 57.05 51.95 54.75 Q 51.95 52.65 51.65 49.4 Q 51.25 44.95 50.55 43.7 Q 49.6 60.2 44.7 65.9 Q 42.75 68.1 38.4 68.95 Q 35.85 69.45 33 69.35 Q 30.75 69.25 28.35 68.35 Q 25.2 67.15 24.45 65.25 Q 24.25 64.75 24.25 63.65 Q 24.25 62.3 25.15 61.15 Q 26.1 59.9 28.45 58.45 Q 30.05 57.45 31.95 55.9 Q 34.1 54.15 35.05 52.9 Q 39.2 47.45 41.6 41.8 Q 38.3 45.25 34.65 48.25 Q 30.4 51.8 27.35 53.35 Q 22.45 55.85 18.2 56.1 Q 14.85 56.3 10.5 55 Q 8.15 54.3 5.45 51.8 Q 2.9 49.5 1.95 47.4 Q 1.35 46.2 1.35 45.15 Q 1.35 44.5 1.6 43.9 Q 2.15 42.6 3.25 41.9 Q 4.5 41.1 7.55 40.4 Q 7.95 40.3 14.3 39 Q 19.25 37.95 22.05 37 Q 24.2 36.3 29.2 34.9 Q 33.75 33.55 36.1 32.4 Q 30.75 32.1 23.25 30.7 Q 15.25 29.15 11.05 27.45 Q 6.95 25.75 4.1 22.45 Q 1.3 19.2 0.4 15.1 Q 0 13.45 0 11.3 Q 0 8.3 0.55 5.75 Q 1.2 2.85 2.4 1.55 Q 4 -0.15 6.1 0.05 Q 7.6 0.25 10.75 2.6 Q 11.15 2.85 17.95 8.3 Q 22.75 12.15 25.65 14.05 Q 32.1 18.4 35.15 20.15 Q 40.4 23.1 43.8 23.65 Q 48.15 24.35 50.15 20.15 Q 52.45 15.45 58.45 14.4 Q 63.55 13.55 67.5 15.1 Z" transform="translate(0,-0.05)" fill="#452454"/>
		<path d="M 63.7 17.05 Q 68 17.95 70.5 22.15 Q 72.55 25.6 71.45 30.3 Q 71.1 31.75 69.75 33.1 Q 68.25 34.55 66.25 35.1 Q 63.75 35.8 62 35.6 Q 60.45 35.45 58.75 34.4 Q 57.35 33.55 56.5 32.1 Q 55.8 31.05 55.75 30.35 Q 55.5 27.55 57 26.05 Q 57.7 25.4 59.05 25.1 Q 60.35 24.75 61.4 25 Q 62.8 25.25 63.8 26.45 Q 64.9 27.75 64.85 29.4 Q 65.6 27.1 64.6 25.3 Q 63.45 23.3 60.6 22.9 Q 59.4 22.7 57.9 23.15 Q 56.3 23.65 55.2 24.65 Q 54.05 25.75 53.4 27.35 Q 52.85 28.85 52.95 30.05 Q 53.25 34 56.1 36.15 Q 57.85 38 59.1 40.65 Q 61.1 44.7 61.2 49.3 L 61.2 49.4 Q 61.2 51.3 60.5 53.25 Q 59.75 55.3 58.6 56.45 Q 56.45 58.6 54.35 59.35 Q 54.2 57.95 54.2 55.2 Q 54.1 49.5 52.5 44.85 Q 51.5 41.85 49.75 39.6 Q 49.7 42 49.25 45.65 Q 48.8 49.35 48.2 51.95 Q 47.3 56 46.35 58.4 Q 44.75 62.3 42.25 64.5 Q 40.75 65.8 38.35 66.45 Q 35.95 67.1 33.65 66.85 Q 31.6 66.7 29.8 65.7 Q 28.15 64.75 27.85 63.7 Q 27.5 62.1 30.15 60.25 Q 34.2 57.55 36.4 54.75 Q 40.85 49.2 45.25 36.05 Q 42.35 39.45 36.5 44.2 Q 30.1 49.45 25.8 51.5 Q 22.65 53.05 18.7 53.15 Q 14.9 53.2 11.65 51.95 Q 9.35 51.05 7.45 49.05 Q 5.9 47.5 5 45.65 Q 4.65 44.9 4.65 44.4 L 4.65 44.35 Q 5.2 43.85 10.05 42.7 Q 19.05 40.5 22.9 39.2 Q 30.35 36.75 33.1 35.75 Q 38.9 33.6 41.5 31.85 Q 38.35 32 28.2 29.65 Q 17.8 27.2 12.1 24.85 Q 9.55 23.7 7.55 21.95 Q 4.1 18.85 3.15 14.5 Q 2.45 11.55 3.05 8.4 Q 3.55 5.45 4.8 4.15 Q 5.3 3.55 6 3.55 Q 7.85 3.8 16.2 10.5 Q 22 15.1 24.2 16.45 Q 28.7 19.25 34.4 21.95 Q 41.35 25.2 44.2 25.3 Q 49.85 25.45 51.45 21.75 Q 51.9 20.8 53.7 19.45 Q 55.55 18.05 57.3 17.5 Q 60.6 16.4 63.7 17.05 Z" transform="translate(0,-0.05)" fill="#574A5C"/>
	</g>
</svg>
