<?xml version="1.0"?>
<!DOCTYPE svg PUBLIC "-//W3C//DTD SVG 1.1//EN" "http://www.w3.org/Graphics/SVG/1.1/DTD/svg11.dtd">
<svg version='1.1' width='95px' height='110px' xmlns='http://www.w3.org/2000/svg' xmlns:xlink='http://www.w3.org/1999/xlink'>
	<g transform="translate(-31.9962,0.00185185)">
		<path d="M 56.7 97.95 Q 56.55 96.1 56 91.65 Q 57.95 91.5 59.4 91 Q 58.6 94.65 58.6 97.15 Q 58.6 99.45 59.45 101.7 Q 60.05 103.6 60.05 105.05 Q 60.05 105.55 59.45 106.1 Q 59.15 106.4 58.75 106.7 L 57.2 106.35 Q 56.65 106.3 56.45 105.1 Q 56.25 103.9 56.6 102.35 Q 56.95 100.95 56.7 97.95 Z" fill="#FFFFFF"/>
		<path d="M 58.6 97.15 Q 58.6 94.65 59.4 91 Q 60.45 90.65 61.05 90.35 Q 60.2 94.05 60.55 97.3 Q 60.75 99.5 61.7 102.1 Q 63.15 106.25 60.65 108.6 Q 59.65 109.55 57.15 109.25 Q 55.1 109.05 54.65 106.95 Q 54.2 105.05 55.1 102.15 Q 55.7 100.25 55.25 97.05 Q 54.65 93.35 54.35 91.7 L 56 91.65 Q 56.55 96.1 56.7 97.95 Q 56.95 100.95 56.6 102.35 Q 56.25 103.9 56.45 105.1 Q 56.65 106.3 57.2 106.35 L 58.75 106.7 Q 59.15 106.4 59.45 106.1 Q 60.05 105.55 60.05 105.05 Q 60.05 103.6 59.45 101.7 Q 58.6 99.45 58.6 97.15 Z" fill="#330A29"/>
		<path d="M 39.5 90.15 Q 37.1 91.1 34.45 89.65 Q 31.9 88.2 32 86.45 Q 32.6 87.4 34.6 87.6 Q 36.6 87.75 38.25 87.1 Q 41.95 85.7 42.8 82.1 L 42.95 82.1 Q 44.65 82.1 46.3 81.6 Q 46.5 83.65 48.25 85.55 Q 49.85 87.25 52.4 88.45 Q 54.5 89.45 57.5 89.55 Q 61.35 89.65 63.95 87.9 Q 62.9 89.4 61.05 90.35 Q 60.45 90.65 59.4 91 Q 57.95 91.5 56 91.65 L 54.35 91.7 Q 52.45 91.6 50.8 91.1 Q 48.5 90.4 46.65 88.9 Q 44.4 87.05 44.05 84.7 Q 43.65 86.5 42.45 87.95 Q 41.2 89.45 39.5 90.15 Z" fill="#330A29"/>
		<path d="M 37.35 80.55 Q 35.1 79.05 35.1 76.95 Q 35.1 74.8 37.4 73.3 Q 39.7 71.75 42.95 71.75 Q 46.2 71.75 48.5 73.3 Q 50.8 74.8 50.8 76.95 Q 50.8 78.45 49.55 79.75 Q 48.3 81 46.3 81.6 Q 44.65 82.1 42.95 82.1 L 42.8 82.1 Q 39.6 82.05 37.35 80.55 Z" fill="#330A29"/>
		<path d="M 123.55 22.5 L 123.55 21.9 Q 123.55 17.5 122.15 13.95 Q 120.65 9.95 117.55 7.5 Q 113.95 4.65 109.15 3.5 Q 104.15 2.3 100 3.4 Q 93.2 5.2 89.5 9.55 Q 85.75 13.95 85.75 20.4 Q 85.75 23.75 87.05 25.15 Q 87.4 25.5 88.05 25.75 Q 88.85 26 89.5 25.85 Q 90.7 25.5 90.4 24 Q 89.95 21.55 89.9 20.8 Q 89.75 18.05 90.7 15.9 Q 92.85 11.05 97.65 9.55 Q 100.95 8.5 104.3 8.85 Q 107.65 9.15 110.45 10.8 Q 114.9 13.45 116.45 17.8 Q 118.1 22.55 115.4 27.35 Q 114.05 29.75 110.6 31.85 Q 108.3 33.25 106.85 33.65 Q 106.3 33.75 106 34.8 Q 105.6 35.95 105.9 37 Q 106.2 38.05 106.8 38.5 Q 107.5 38.95 109.1 38.9 Q 112.2 38.75 116.95 34.95 Q 123.3 29.85 123.55 22.5 Z M 126.8 22.65 Q 126.6 28.95 123.3 33.6 Q 120.55 37.4 116 39.7 Q 114.8 40.35 112.8 41 Q 110.7 41.7 108.45 41.85 Q 106.15 42.05 104.6 40.25 Q 102.9 38.85 102.5 36.2 Q 102.1 33.4 103.65 31.6 L 104.2 31.05 Q 104.9 30.4 107.2 29.25 Q 109.45 28.25 110.15 27.8 Q 111.7 26.9 112.4 25.7 Q 114 22.45 113.2 19.6 Q 112.5 16.95 109.65 14.2 Q 107.65 13.15 104.9 12.55 Q 101.15 11.8 98.65 12.7 Q 96.6 13.3 94.9 15.55 Q 93 18.05 93.1 20.75 L 93.15 21.1 Q 93.4 22.55 93.3 24.2 Q 92.9 29.65 87.85 28.45 Q 82.85 26.85 83.15 21.1 L 83.15 20.8 Q 83 19.4 83.1 17.75 Q 83.7 5.85 96.15 1.45 Q 103.55 -1.35 111.2 1.25 Q 116.35 2.95 118.9 5.5 Q 122.85 8.65 124.9 13.1 Q 126.95 17.5 126.8 22.65 Z" fill="#330A29"/>
		<path d="M 123.55 21.9 L 123.55 22.5 Q 123.3 29.85 116.95 34.95 Q 112.2 38.75 109.1 38.9 Q 107.5 38.95 106.8 38.5 Q 106.2 38.05 105.9 37 Q 105.6 35.95 106 34.8 Q 106.3 33.75 106.85 33.65 Q 108.3 33.25 110.6 31.85 Q 114.05 29.75 115.4 27.35 Q 118.1 22.55 116.45 17.8 Q 114.9 13.45 110.45 10.8 Q 107.65 9.15 104.3 8.85 Q 100.95 8.5 97.65 9.55 Q 92.85 11.05 90.7 15.9 Q 89.75 18.05 89.9 20.8 Q 89.95 21.55 90.4 24 Q 90.7 25.5 89.5 25.85 Q 88.85 26 88.05 25.75 Q 87.4 25.5 87.05 25.15 Q 85.75 23.75 85.75 20.4 Q 85.75 13.95 89.5 9.55 Q 93.2 5.2 100 3.4 Q 104.15 2.3 109.15 3.5 Q 113.95 4.65 117.55 7.5 Q 120.65 9.95 122.15 13.95 Q 123.55 17.5 123.55 21.9 Z" fill="#8CC7FF"/>
	</g>
</svg>
