<?xml version="1.0"?>
<!DOCTYPE svg PUBLIC "-//W3C//DTD SVG 1.1//EN" "http://www.w3.org/Graphics/SVG/1.1/DTD/svg11.dtd">
<svg version='1.1' width='25px' height='29px' xmlns='http://www.w3.org/2000/svg' xmlns:xlink='http://www.w3.org/1999/xlink'>
	<g transform="translate(-0,-0.0210526)">
		<path d="M 21.85 17.55 Q 21.7 18.75 21.5 19.25 Q 21.25 20.1 20.4 21.95 Q 19.45 23.95 18.85 24.75 Q 16.2 26.9 13.6 27.5 Q 16.15 25.95 18.1 22.7 L 19.15 20.6 Q 21.6 15.05 20.85 9.8 Q 20.55 7.7 19.65 5.85 Q 21.8 8.7 22.05 15.7 Q 22.05 16.4 21.85 17.55 Z" fill="#FFFFFF"/>
		<path d="M 4.4 10.3 Q 2.1 15.55 2.7 20.65 Q 1.35 17.1 1.8 13.35 Q 3.6 10.45 5.5 8.15 Z" fill="#FFFFFF"/>
		<path d="M 18.8 10.65 Q 18.35 7.1 16.2 5.6 Q 14.05 4.15 11.35 5.45 Q 8.15 7.05 6.25 11.4 Q 4.3 15.8 4.85 20.05 Q 5.4 23.6 7.5 25.1 Q 9.65 26.55 12.3 25.25 Q 15.6 23.55 17.45 19.25 Q 19.45 14.9 18.8 10.65 Z M 24.25 9.2 Q 24.95 12.8 24.7 19.1 Q 23.75 20.9 21.6 22.85 Q 19.6 24.7 18.85 24.75 Q 19.45 23.95 20.4 21.95 Q 21.25 20.1 21.5 19.25 Q 21.7 18.75 21.85 17.55 Q 22.05 16.4 22.05 15.7 Q 21.8 8.7 19.65 5.85 Q 20.55 7.7 20.85 9.8 Q 21.6 15.05 19.15 20.6 L 18.1 22.7 Q 16.15 25.95 13.6 27.5 L 12.7 28.05 Q 9.15 29.8 6.3 27.8 Q 3.35 25.75 2.75 21.1 L 2.7 20.65 Q 2.1 15.55 4.4 10.3 L 5.5 8.15 Q 3.6 10.45 1.8 13.35 L 1.65 13.5 L 0 16.35 Q 0.05 15.35 0.45 13.75 Q 0.8 12.4 1.1 11.75 Q 4.3 5.35 7.85 2.55 Q 11.75 -0.55 16.6 0.15 Q 22.6 1.05 24.25 9.2 Z" fill="#452454"/>
		<path d="M 16.5 11.95 Q 16.2 9.6 14.8 8.65 Q 13.65 7.9 12.25 8.35 Q 12.1 7.75 11.75 7.4 Q 11.25 6.85 10.5 7.05 Q 9.8 7.2 9.3 8.05 Q 8.35 9.7 9.1 11 Q 8.5 11.85 8.05 12.85 Q 6.65 16 7.1 18.95 Q 7.45 21.3 8.75 22.25 Q 10.15 23.15 11.9 22.3 Q 14.15 21.2 15.55 18.05 Q 16.9 14.9 16.5 11.95 Z M 11.35 5.45 Q 14.05 4.15 16.2 5.6 Q 18.35 7.1 18.8 10.65 Q 19.45 14.9 17.45 19.25 Q 15.6 23.55 12.3 25.25 Q 9.65 26.55 7.5 25.1 Q 5.4 23.6 4.85 20.05 Q 4.3 15.8 6.25 11.4 Q 8.15 7.05 11.35 5.45 Z" fill="#8CFFB8"/>
		<path d="M 16.5 11.95 Q 16.9 14.9 15.55 18.05 Q 14.15 21.2 11.9 22.3 Q 10.15 23.15 8.75 22.25 Q 7.45 21.3 7.1 18.95 Q 6.65 16 8.05 12.85 Q 8.5 11.85 9.1 11 L 9.35 11.45 Q 9.9 12 10.6 11.8 Q 11.35 11.6 11.85 10.75 Q 12.5 9.55 12.25 8.35 Q 13.65 7.9 14.8 8.65 Q 16.2 9.6 16.5 11.95 Z" fill="#409942"/>
		<path d="M 11.85 10.75 Q 11.35 11.6 10.6 11.8 Q 9.9 12 9.35 11.45 L 9.1 11 Q 8.35 9.7 9.3 8.05 Q 9.8 7.2 10.5 7.05 Q 11.25 6.85 11.75 7.4 Q 12.1 7.75 12.25 8.35 Q 12.5 9.55 11.85 10.75 Z" fill="#FFFFFF"/>
	</g>
</svg>
