<?xml version="1.0"?>
<!DOCTYPE svg PUBLIC "-//W3C//DTD SVG 1.1//EN" "http://www.w3.org/Graphics/SVG/1.1/DTD/svg11.dtd">
<svg version='1.1' width='26px' height='40px' xmlns='http://www.w3.org/2000/svg' xmlns:xlink='http://www.w3.org/1999/xlink'>
	<g transform="translate(-0,-0.0152778)">
		<path d="M 12.05 17.8 Q 14.7 18.9 17.15 17.9 Q 18.25 17.5 19.35 16.4 Q 22.15 22.9 22.35 25.95 Q 22.85 32.7 15.35 34.85 Q 11.9 35.85 8.6 33.7 Q 5.8 31.95 4.35 29.05 Q 2.4 25.1 2.25 10.75 Q 2.2 7.2 3.5 5.55 Q 4.7 4.05 7.6 3.45 Q 6.4 5.15 6.2 7.5 Q 6 9.95 6.9 12.3 Q 8.55 16.35 12.05 17.8 Z" fill="#8CC7FF"/>
		<path d="M 6.9 12.3 Q 6 9.95 6.2 7.5 Q 6.4 5.15 7.6 3.45 Q 4.7 4.05 3.5 5.55 Q 2.2 7.2 2.25 10.75 Q 2.4 25.1 4.35 29.05 Q 5.8 31.95 8.6 33.7 Q 11.9 35.85 15.35 34.85 Q 22.85 32.7 22.35 25.95 Q 22.15 22.9 19.35 16.4 Q 18.25 17.5 17.15 17.9 Q 14.7 18.9 12.05 17.8 Q 8.55 16.35 6.9 12.3 Z M 18.85 7.2 Q 17.85 4.75 15.85 3.5 Q 13.85 2.2 12.1 2.9 Q 10.35 3.6 9.8 5.9 Q 9.25 8.2 10.2 10.7 Q 11.4 13.7 14 14.85 Q 15.55 15.5 16.95 14.95 Q 18.35 14.4 19 12.8 Q 20.15 10.25 18.85 7.2 Z M 20.6 6.8 Q 21.8 9.65 21.25 12.6 Q 25.3 21.6 25.6 25.75 Q 25.95 30.6 23.5 34.15 Q 21.1 37.75 16.55 39.05 Q 12.4 40.25 8.85 38.45 Q 5.25 36.65 2.9 32.2 Q 1.9 30.4 0.95 22.6 Q 0.05 15.65 0 11.8 L 0 11 Q 0 7.05 1.05 4.75 Q 2.65 1.1 7 0.25 Q 10.1 -0.4 12.7 0.75 Q 15.15 0.75 17.3 2.4 Q 19.5 4.05 20.6 6.8 Z" fill="#330A29"/>
		<path d="M 10.2 10.7 Q 9.25 8.2 9.8 5.9 Q 10.35 3.6 12.1 2.9 Q 13.85 2.2 15.85 3.5 Q 17.85 4.75 18.85 7.2 Q 20.15 10.25 19 12.8 Q 18.35 14.4 16.95 14.95 Q 15.55 15.5 14 14.85 Q 11.4 13.7 10.2 10.7 Z" fill="#963DD6"/>
	</g>
</svg>
