<?xml version="1.0"?>
<!DOCTYPE svg PUBLIC "-//W3C//DTD SVG 1.1//EN" "http://www.w3.org/Graphics/SVG/1.1/DTD/svg11.dtd">
<svg version='1.1' width='57px' height='53px' xmlns='http://www.w3.org/2000/svg' xmlns:xlink='http://www.w3.org/1999/xlink'>
	<g transform="translate(-0.211765,0.00416667)">
		<path d="M 28.1 0.25 Q 25.6 -0.05 21.1 1.05 L 17.1 2.25 Q 14.85 6 11.1 9.75 Q 8.75 12.1 9.55 12.05 Q 10 12 10.85 11.5 Q 11.75 11.25 12.85 10.65 Q 15.1 9.4 16.35 7.5 Q 17.6 5.65 23 2.75 Q 25.65 1.3 28.1 0.25 Z M 48.1 7.25 Q 52.35 11.1 54.4 16.45 Q 56.35 21.55 56.05 27.15 Q 48.25 31.4 47.2 32.05 Q 43.2 34.5 40.65 37.5 Q 39.25 39.15 35.7 44.75 Q 33.35 48.5 32 48.5 Q 31.15 48.5 31.1 49 Q 31.05 49.5 31.85 49.7 Q 34.05 50.35 37.65 47.15 Q 40.5 44.65 45.55 39.1 Q 50.15 34.65 54.65 33.8 Q 55.15 31.6 55.85 29.35 Q 55.15 34.05 53 38.15 Q 50.6 42.6 46.75 45.8 Q 42.6 49.15 37.3 50.65 Q 31.95 52.15 26.55 52.15 Q 20.75 52.15 15.85 50.35 Q 17.1 50.55 18 50.5 Q 19.45 47.1 22.45 43.1 Q 25.3 39.3 27.65 37.5 Q 29.15 36.35 33.95 33.25 Q 38.6 30.1 41 27.5 Q 43.7 24.6 43.15 23 Q 42.95 22.4 42.4 22.5 Q 41.8 22.65 41.35 23.5 Q 40.3 25.35 33.65 29.85 Q 26.8 34.55 22 36.5 Q 17.95 38.1 14.35 42.5 Q 11.9 45.4 10.75 47.9 Q 8.2 46.2 6.2 44.05 Q 1.35 38.6 0.45 30.6 Q 0.7 32.25 1 33.5 Q 3.25 30.85 6.3 27.8 Q 12.4 21.8 16.35 20.15 Q 20.65 18.35 24.3 13.65 Q 27.8 9.15 26 9.15 Q 25.2 9.15 21.05 12.55 Q 16.75 16.1 14.35 16.5 Q 11.55 16.9 7.25 19.4 Q 5.45 20.4 0.4 23.75 Q 1.35 15.45 6 9.9 Q 12.1 2.65 21.5 0.65 Q 30.55 -1.3 39.7 2.15 Q 41.7 2.95 42.85 3.6 Q 40.75 4.8 37.45 8.7 Q 34.7 11.95 32.65 15.15 Q 31.8 16.5 25.3 21.05 Q 18.9 25.55 16.65 29.5 Q 14.1 34 17.1 32.45 Q 18 32 23.35 28.15 Q 25.2 26.85 30.7 23.25 Q 35.7 19.55 38 15.8 Q 40.1 12.4 43.9 9.7 Q 45.95 8.25 48.1 7.25 Z" transform="translate(0,0.05)" fill="#D3C075"/>
		<path d="M 26 9.15 Q 27.8 9.15 24.3 13.65 Q 20.65 18.35 16.35 20.15 Q 12.4 21.8 6.3 27.8 Q 3.25 30.85 1 33.5 Q 0.7 32.25 0.45 30.6 Q 0 27.3 0.4 23.75 Q 5.45 20.4 7.25 19.4 Q 11.55 16.9 14.35 16.5 Q 16.75 16.1 21.05 12.55 Q 25.2 9.15 26 9.15 Z" transform="translate(0,0.05)" fill="#D3C075"/>
		<path d="M 42.85 3.6 L 43 3.5 Q 44.35 4.15 48.35 7.15 L 48.1 7.25 Q 45.95 8.25 43.9 9.7 Q 40.1 12.4 38 15.8 Q 35.7 19.55 30.7 23.25 Q 25.2 26.85 23.35 28.15 Q 18 32 17.1 32.45 Q 14.1 34 16.65 29.5 Q 18.9 25.55 25.3 21.05 Q 31.8 16.5 32.65 15.15 Q 34.7 11.95 37.45 8.7 Q 40.75 4.8 42.85 3.6 Z" transform="translate(0,0.05)" fill="#B49B3A"/>
		<path d="M 41.35 23.5 Q 41.8 22.65 42.4 22.5 Q 42.95 22.4 43.15 23 Q 43.7 24.6 41 27.5 Q 38.6 30.1 33.95 33.25 Q 29.15 36.35 27.65 37.5 Q 25.3 39.3 22.45 43.1 Q 19.45 47.1 18 50.5 Q 17.1 50.55 15.85 50.35 Q 12.85 49.95 10.65 48.15 L 10.75 47.9 Q 11.9 45.4 14.35 42.5 Q 17.95 38.1 22 36.5 Q 26.8 34.55 33.65 29.85 Q 40.3 25.35 41.35 23.5 Z" transform="translate(0,0.05)" fill="#B49B3A"/>
		<path d="M 40.65 37.5 Q 43.2 34.5 47.2 32.05 Q 48.25 31.4 56.05 27.15 L 56.65 26.8 Q 56.35 27.55 55.85 29.35 Q 55.15 31.6 54.65 33.8 Q 50.15 34.65 45.55 39.1 Q 40.5 44.65 37.65 47.15 Q 34.05 50.35 31.85 49.7 Q 31.05 49.5 31.1 49 Q 31.15 48.5 32 48.5 Q 33.35 48.5 35.7 44.75 Q 39.25 39.15 40.65 37.5 Z" transform="translate(0,0.05)" fill="#B49B3A"/>
		<path d="M 28.1 0.25 Q 25.65 1.3 23 2.75 Q 17.6 5.65 16.35 7.5 Q 15.1 9.4 12.85 10.65 Q 11.75 11.25 10.85 11.5 Q 10 12 9.55 12.05 Q 8.75 12.1 11.1 9.75 Q 14.85 6 17.1 2.25 L 21.1 1.05 Q 25.6 -0.05 28.1 0.25 Z" transform="translate(0,0.05)" fill="#B49B3A"/>
	</g>
</svg>
