<?xml version="1.0"?>
<!DOCTYPE svg PUBLIC "-//W3C//DTD SVG 1.1//EN" "http://www.w3.org/Graphics/SVG/1.1/DTD/svg11.dtd">
<svg version='1.1' width='278px' height='305px' xmlns='http://www.w3.org/2000/svg' xmlns:xlink='http://www.w3.org/1999/xlink'>
	<g transform="translate(-0.0239927,-0.00934211)">
		<path d="M 22.3 214.6 Q 23.1 218.65 25.3 220.6 Q 29.05 223.95 32.55 223.95 Q 34.3 223.95 35.3 223.25 Q 25.3 214.95 26.95 205.25 Q 27.45 202.25 29.1 199.45 L 30.6 197.25 Q 23.9 196.8 22.2 206.7 Q 21.5 210.75 22.3 214.6 Z M 51.95 217.25 L 51.05 213.95 Q 45.9 223.75 54.6 231.75 Q 58 234.85 62.7 236.8 Q 67.05 238.6 70.55 238.6 Q 76.1 238.6 78.9 235.45 L 80.6 232.3 Q 64 234.25 55.85 224.3 Q 53.3 221.2 51.95 217.25 Z M 106.1 269.15 L 105.8 265.95 Q 101.6 268.9 102.2 275.7 Q 102.85 283.25 109.8 288.45 Q 116.05 293.15 122.8 292.25 Q 126.2 291.85 128.3 290.45 L 130.1 292.75 Q 133.25 295.4 139.8 296.95 Q 146.35 298.5 150.5 294.9 Q 151.8 293.75 152.65 292.25 L 153.3 290.95 Q 142.05 295.65 135.05 291 Q 132.85 289.55 131.35 287.35 L 130.3 285.45 Q 114.7 286.1 108.7 276.1 Q 106.8 272.95 106.1 269.15 Z M 97.15 244.7 L 97.3 242.6 Q 93.35 244.3 94.05 250 Q 94.8 256.25 101.3 259.95 Q 107.1 263.25 110.1 260.6 Q 111.05 259.75 111.6 258.4 L 111.95 257.25 Q 101.1 256.45 98.1 249.45 Q 97.2 247.25 97.15 244.7 Z M 14.3 142.95 Q 12.65 145.3 12.55 147.75 Q 12.5 150.55 14.6 151.95 Q 19.6 154.95 22.55 150.95 Q 25.45 146.95 21.95 141.95 Q 20.3 139.6 18 140.1 Q 15.95 140.6 14.3 142.95 Z M 39.95 106.6 Q 36.15 102.3 29.7 103.65 Q 23.7 104.95 18.9 110.2 Q 13.8 115.65 13.45 122.05 Q 13 129.4 19.3 135.25 Q 24.3 137.4 29.95 135 Q 35.1 132.8 38.85 127.7 Q 42.65 122.55 43.2 117 Q 43.75 110.9 39.95 106.6 Z M 57.95 141.95 Q 57.95 117.75 71.95 108.75 Q 78.95 104.25 85.95 104.6 Q 81.25 98.3 71.4 101.5 Q 61.1 104.85 55.3 115.95 Q 50.3 125.5 50.95 132.7 Q 51.3 136.3 52.6 137.95 Q 44.7 139.55 40.05 149.05 Q 35.05 159.1 37.95 170.6 Q 40.45 180.6 46.15 183.6 Q 48.95 185.1 51.3 184.6 Q 41.7 162.1 48.85 149.8 Q 51.1 145.95 54.75 143.55 Z M 101.95 43.95 Q 100.1 42.45 96.6 41.6 Q 89.6 39.95 81.3 43.25 Q 71.75 47.05 67.3 56.95 Q 63 66.3 67.3 70.6 Q 69.15 63.75 74.35 57 Q 84.85 43.5 101.95 43.95 Z M 86.9 39.25 L 86.6 39.95 L 90.6 38.55 Q 95.55 37.1 100.5 37.1 Q 116.35 37.1 125.95 51.25 Q 136 66.1 129.1 81.2 Q 126.6 86.75 122.2 91.3 Q 118.5 95.15 115.3 96.6 L 118.6 96.8 Q 122.7 97.3 126.4 99 Q 138.2 104.5 141.95 119.95 Q 148.1 145.25 119.95 160.6 L 120.45 165.95 Q 120.55 172.4 118.8 177.95 Q 113.1 195.6 90.6 197.25 L 90.85 205.3 Q 91.8 214.9 95.45 222.65 Q 107.1 247.5 141.3 244.6 L 141.55 251.65 Q 142.6 259.95 146.7 266.35 Q 159.85 286.85 198.6 280.6 Q 202.1 279.6 206.75 277.2 Q 216.1 272.35 221.95 265.25 Q 217.1 272.25 207.95 279.85 Q 189.6 295 167.95 297.95 Q 166.1 300.6 159.6 302.55 Q 146.6 306.35 123.3 302.6 Q 97.95 298.55 87.55 279 Q 83.3 271.1 82.3 261.85 Q 81.4 253.4 83.3 245.95 Q 81.3 246.45 78.8 246.1 Q 73.8 245.45 71.3 241.25 L 69.95 238.95 Q 62.5 243.25 54.5 243.95 Q 40.4 245.2 31.95 233.25 Q 26.3 231.95 21.4 228.1 Q 11.55 220.45 15.3 207.95 L 15.7 206.55 Q 11.55 205.3 8.85 202.35 Q 3.85 196.95 6.6 187.95 Q 2.8 182.8 0.95 175.25 Q -2.7 160.25 7.3 148.6 Q 3.95 142.6 2.95 134.6 Q 0.95 118.6 12.6 108.6 Q 12.95 99.6 17.7 91.35 Q 27.2 74.85 49.3 78.6 Q 52.35 63.35 64.15 52.6 Q 73.2 44.35 86.9 39.25 Z" transform="translate(0.05,0)" fill="#FFCCF2"/>
		<path d="M 251.95 24.6 L 255.45 24.25 Q 259.65 24.2 263.3 25.45 Q 274.95 29.45 276.6 45.25 L 276.45 220.95 L 275.3 157.45 Q 274.05 157.95 270 158.45 Q 261.85 159.45 247.8 159.45 Q 236.45 158.45 223.25 155.25 Q 196.85 148.9 187.8 137.95 Q 177.7 126.45 174.8 122.95 Q 170.6 117.85 169.3 113.95 Q 168.7 112.2 167.35 112.85 Q 166.05 113.5 164.6 116.15 Q 161 122.6 160.35 132.5 Q 158.85 138 159.95 148.85 Q 161.35 162.05 166.3 175.45 Q 159.7 175.95 151.35 177.6 Q 134.75 180.85 126.3 186.45 Q 114.35 192.4 112.45 193.5 Q 107.25 196.35 106.4 198.1 L 106.4 198.15 Q 106.15 198.7 106.2 199.1 Q 106.1 201.05 108.6 202.05 Q 112 203.35 119.8 202.45 Q 127.95 201.5 134.95 203.65 Q 138.45 204.7 140.3 205.95 Q 161.8 213.45 164.3 213.45 Q 165.2 213.45 167.65 214.7 Q 170.1 215.9 172.55 217.6 Q 175.5 220.1 177.8 223.45 Q 170 229.15 162.5 239.25 Q 151.7 253.8 154.3 264.45 Q 155.6 266.1 157.5 265.2 Q 160.55 263.2 163.3 261.45 Q 171.3 255.45 176.95 251.4 Q 187.6 243.65 192.8 242.45 Q 196.1 241.65 203 242.1 Q 211.5 242.65 220.55 244.9 Q 245.75 251.25 263.45 267.9 Q 251.15 274.2 235.35 270.35 Q 230.4 269.15 225.65 267.1 L 221.95 265.25 Q 216.1 272.35 206.75 277.2 Q 202.1 279.6 198.6 280.6 Q 159.85 286.85 146.7 266.35 Q 142.6 259.95 141.55 251.65 L 141.3 244.6 Q 107.1 247.5 95.45 222.65 Q 91.8 214.9 90.85 205.3 L 90.6 197.25 Q 113.1 195.6 118.8 177.95 Q 120.55 172.4 120.45 165.95 L 119.95 160.6 Q 148.1 145.25 141.95 119.95 Q 138.2 104.5 126.4 99 Q 122.7 97.3 118.6 96.8 L 115.3 96.6 Q 118.5 95.15 122.2 91.3 Q 126.6 86.75 129.1 81.2 Q 136 66.1 125.95 51.25 Q 116.35 37.1 100.5 37.1 Q 95.55 37.1 90.6 38.55 L 86.6 39.95 L 86.9 39.25 Q 91.75 28.9 101.8 22.7 Q 119.8 11.55 146.6 21.25 L 148.9 18.3 Q 152 14.8 156 12.1 Q 168.85 3.45 185.95 5.95 L 189.75 3.55 Q 194.6 1 199.85 0.3 Q 216.7 -2.05 231.3 14.6 L 233.6 14 Q 236.4 13.5 239.15 13.85 Q 247.8 15 251.95 24.6 Z" transform="translate(0.05,0)" fill="#EE8ED5"/>
		<path d="M 212.3 164.45 Q 206.65 161.05 204.2 160.85 Q 201.7 160.6 205.8 163.95 Q 218.7 174.5 232.8 178.45 Q 240.6 180.65 258.25 181.25 Q 267.05 181.6 274.3 181.45 L 275.3 177.45 Q 273.2 177.2 269 177 Q 260.6 176.65 250.3 176.95 Q 239.55 177.3 227.95 172.6 Q 221.55 170 212.3 164.45 Z M 176.8 187.45 Q 179 186.6 181.85 187.6 Q 183.7 188.25 188.3 190.9 Q 200.7 198 211.8 201.45 Q 225.35 205.65 235.45 206.95 Q 241.3 207.7 255.3 209.45 Q 258.05 209.95 261.8 210.85 Q 263.9 211 262.3 208.45 Q 260.7 205.85 252.85 204.65 Q 240.3 203.2 230.3 201.95 Q 217.85 200.4 208.3 196.15 Q 197.3 190.45 189.3 186.95 Q 179.1 182.5 174.6 185.5 Q 173.05 186.55 173.75 187.45 Q 174.5 188.35 176.8 187.45 Z M 164.6 116.15 Q 166.05 113.5 167.35 112.85 Q 168.7 112.2 169.3 113.95 Q 170.6 117.85 174.8 122.95 Q 177.7 126.45 187.8 137.95 Q 196.85 148.9 223.25 155.25 Q 236.45 158.45 247.8 159.45 Q 261.85 159.45 270 158.45 Q 274.05 157.95 275.3 157.45 L 276.75 250.05 L 275.3 236.45 Q 271.1 231.9 255.95 227.85 Q 241.8 224.05 234.3 224.45 Q 230.4 224.65 222.3 222.5 Q 214.35 220.4 207.3 220.95 Q 198.8 221.6 195 226.25 Q 193.65 227.9 194.3 228.45 Q 195 229.05 197.3 227.45 Q 201.75 224.35 210.2 225.35 Q 215.8 225.95 231.3 229.95 Q 236.75 231.35 243.05 231.95 Q 246.55 232.25 252.55 232.65 Q 262.25 233.6 267.8 239.45 Q 271.05 241.2 274.05 245.65 Q 275.35 247.6 276.75 250.35 L 277.3 284.45 Q 271.25 275.2 263.45 267.9 Q 245.75 251.25 220.55 244.9 Q 211.5 242.65 203 242.1 Q 196.1 241.65 192.8 242.45 Q 187.6 243.65 176.95 251.4 Q 171.3 255.45 163.3 261.45 Q 160.55 263.2 157.5 265.2 Q 155.6 266.1 154.3 264.45 Q 151.7 253.8 162.5 239.25 Q 170 229.15 177.8 223.45 L 186.8 218.95 Q 187.7 217.95 186.75 216.2 Q 184.85 212.7 175.8 208.95 Q 168.7 206 160.1 204.5 Q 152.9 203.25 147.8 200.45 Q 140.95 196.7 130.75 196.15 Q 122.1 195.65 116.3 197.45 Q 112.9 198.5 109.35 198 Q 106.7 197.6 106.4 198.1 Q 107.25 196.35 112.45 193.5 Q 114.35 192.4 126.3 186.45 Q 134.75 180.85 151.35 177.6 Q 159.7 175.95 166.3 175.45 L 177.8 176.45 Q 173.55 171.1 169.35 162.65 Q 161 145.75 161.3 130.45 Q 160.75 130.95 160.35 132.5 Q 161 122.6 164.6 116.15 Z" transform="translate(0.05,0)" fill="#C29446"/>
		<path d="M 172.55 217.6 Q 175.35 219.45 176.85 221 Q 178.5 222.7 177.8 223.45 Q 175.5 220.1 172.55 217.6 Z" transform="translate(0.05,0)" fill="#C29446"/>
		<path d="M 169.35 162.65 Q 173.55 171.1 177.8 176.45 L 166.3 175.45 Q 161.35 162.05 159.95 148.85 Q 158.85 138 160.35 132.5 Q 160.75 130.95 161.3 130.45 Q 161 145.75 169.35 162.65 Z" transform="translate(0.05,0)" fill="#A86427"/>
		<path d="M 116.3 197.45 Q 122.1 195.65 130.75 196.15 Q 140.95 196.7 147.8 200.45 Q 152.9 203.25 160.1 204.5 Q 168.7 206 175.8 208.95 Q 184.85 212.7 186.75 216.2 Q 187.7 217.95 186.8 218.95 L 177.8 223.45 Q 178.5 222.7 176.85 221 Q 175.35 219.45 172.55 217.6 Q 170.1 215.9 167.65 214.7 Q 165.2 213.45 164.3 213.45 Q 161.8 213.45 140.3 205.95 Q 138.45 204.7 134.95 203.65 Q 127.95 201.5 119.8 202.45 Q 112 203.35 108.6 202.05 Q 106.1 201.05 106.2 199.1 Q 106.2 198.65 106.3 198.45 L 106.4 198.15 L 106.4 198.1 Q 106.7 197.6 109.35 198 Q 112.9 198.5 116.3 197.45 Z" transform="translate(0.05,0)" fill="#A86427"/>
		<path d="M 274.05 245.65 Q 271.05 241.2 267.8 239.45 Q 262.25 233.6 252.55 232.65 Q 246.55 232.25 243.05 231.95 Q 236.75 231.35 231.3 229.95 Q 215.8 225.95 210.2 225.35 Q 201.75 224.35 197.3 227.45 Q 195 229.05 194.3 228.45 Q 193.65 227.9 195 226.25 Q 198.8 221.6 207.3 220.95 Q 214.35 220.4 222.3 222.5 Q 230.4 224.65 234.3 224.45 Q 241.8 224.05 255.95 227.85 Q 271.1 231.9 275.3 236.45 L 276.8 250.45 L 276.75 250.35 Q 275.35 247.6 274.05 245.65 Z" transform="translate(0.05,0)" fill="#91501A"/>
		<path d="M 188.3 190.9 Q 183.7 188.25 181.85 187.6 Q 179 186.6 176.8 187.45 Q 174.5 188.35 173.75 187.45 Q 173.05 186.55 174.6 185.5 Q 179.1 182.5 189.3 186.95 Q 197.3 190.45 208.3 196.15 Q 217.85 200.4 230.3 201.95 Q 240.3 203.2 252.85 204.65 Q 260.7 205.85 262.3 208.45 Q 263.9 211 261.8 210.85 Q 258.05 209.95 255.3 209.45 Q 241.3 207.7 235.45 206.95 Q 225.35 205.65 211.8 201.45 Q 200.7 198 188.3 190.9 Z" transform="translate(0.05,0)" fill="#91501A"/>
		<path d="M 205.8 163.95 Q 201.7 160.6 204.2 160.85 Q 206.65 161.05 212.3 164.45 Q 221.55 170 227.95 172.6 Q 239.55 177.3 250.3 176.95 Q 260.6 176.65 269 177 Q 273.2 177.2 275.3 177.45 L 274.3 181.45 Q 267.05 181.6 258.25 181.25 Q 240.6 180.65 232.8 178.45 Q 218.7 174.5 205.8 163.95 Z" transform="translate(0.05,0)" fill="#91501A"/>
		<path d="M 55.3 115.95 Q 61.1 104.85 71.4 101.5 Q 81.25 98.3 85.95 104.6 Q 78.95 104.25 71.95 108.75 Q 57.95 117.75 57.95 141.95 L 54.75 143.55 Q 51.1 145.95 48.85 149.8 Q 41.7 162.1 51.3 184.6 Q 48.95 185.1 46.15 183.6 Q 40.45 180.6 37.95 170.6 Q 35.05 159.1 40.05 149.05 Q 44.7 139.55 52.6 137.95 Q 51.3 136.3 50.95 132.7 Q 50.3 125.5 55.3 115.95 Z" transform="translate(0.05,0)" fill="#EE8ED5"/>
		<path d="M 51.05 213.95 L 51.95 217.25 Q 53.3 221.2 55.85 224.3 Q 64 234.25 80.6 232.3 L 78.9 235.45 Q 76.1 238.6 70.55 238.6 Q 67.05 238.6 62.7 236.8 Q 58 234.85 54.6 231.75 Q 45.9 223.75 51.05 213.95 Z" transform="translate(0.05,0)" fill="#EE8ED5"/>
		<path d="M 38.85 127.7 Q 35.1 132.8 29.95 135 Q 24.3 137.4 19.3 135.25 Q 13 129.4 13.45 122.05 Q 13.8 115.65 18.9 110.2 Q 23.7 104.95 29.7 103.65 Q 36.15 102.3 39.95 106.6 Q 43.75 110.9 43.2 117 Q 42.65 122.55 38.85 127.7 Z" transform="translate(0.05,0)" fill="#FFF1FB"/>
		<path d="M 12.55 147.75 Q 12.65 145.3 14.3 142.95 Q 15.95 140.6 18 140.1 Q 20.3 139.6 21.95 141.95 Q 25.45 146.95 22.55 150.95 Q 19.6 154.95 14.6 151.95 Q 12.5 150.55 12.55 147.75 Z" transform="translate(0.05,0)" fill="#FFF1FB"/>
		<path d="M 109.8 288.45 Q 102.85 283.25 102.2 275.7 Q 101.6 268.9 105.8 265.95 L 106.1 269.15 Q 106.8 272.95 108.7 276.1 Q 114.7 286.1 130.3 285.45 L 131.35 287.35 Q 132.85 289.55 135.05 291 Q 142.05 295.65 153.3 290.95 L 152.65 292.25 Q 151.8 293.75 150.5 294.9 Q 146.35 298.5 139.8 296.95 Q 133.25 295.4 130.1 292.75 L 128.3 290.45 Q 126.2 291.85 122.8 292.25 Q 116.05 293.15 109.8 288.45 Z" transform="translate(0.05,0)" fill="#EE8ED5"/>
		<path d="M 81.3 43.25 Q 89.6 39.95 96.6 41.6 Q 100.1 42.45 101.95 43.95 Q 84.85 43.5 74.35 57 Q 69.15 63.75 67.3 70.6 Q 63 66.3 67.3 56.95 Q 71.75 47.05 81.3 43.25 Z" transform="translate(0.05,0)" fill="#FFF1FB"/>
		<path d="M 29.1 199.45 Q 27.45 202.25 26.95 205.25 Q 25.3 214.95 35.3 223.25 Q 34.3 223.95 32.55 223.95 Q 29.05 223.95 25.3 220.6 Q 23.1 218.65 22.3 214.6 Q 21.5 210.75 22.2 206.7 Q 23.9 196.8 30.6 197.25 Z" transform="translate(0.05,0)" fill="#FFF1FB"/>
		<path d="M 97.3 242.6 L 97.15 244.7 Q 97.2 247.25 98.1 249.45 Q 101.1 256.45 111.95 257.25 L 111.6 258.4 Q 111.05 259.75 110.1 260.6 Q 107.1 263.25 101.3 259.95 Q 94.8 256.25 94.05 250 Q 93.35 244.3 97.3 242.6 Z" transform="translate(0.05,0)" fill="#FFF1FB"/>
	</g>
</svg>
