<?xml version="1.0"?>
<!DOCTYPE svg PUBLIC "-//W3C//DTD SVG 1.1//EN" "http://www.w3.org/Graphics/SVG/1.1/DTD/svg11.dtd">
<svg version='1.1' width='24px' height='40px' xmlns='http://www.w3.org/2000/svg' xmlns:xlink='http://www.w3.org/1999/xlink'>
	<g transform="translate(-0.01,0.00873786)">
		<path d="M 2.05 20.35 Q 2 13.7 2.5 10.55 Q 3.5 3.6 9.7 3.25 Q 12.55 3.15 14.35 4.9 Q 16.15 6.65 17.2 10.55 L 17.8 12.65 Q 18.35 14.65 19.9 19.3 Q 21.15 23.45 20.95 25.85 Q 20.35 32.65 12.7 35 Q 9.85 35.9 6.15 33.25 Q 2.6 30.65 2.35 28 Q 2.1 25.7 2.05 20.35 Z" fill="#8CC7FF"/>
		<path d="M 17.2 10.55 Q 16.15 6.65 14.35 4.9 Q 12.55 3.15 9.7 3.25 Q 3.5 3.6 2.5 10.55 Q 2 13.7 2.05 20.35 Q 2.1 25.7 2.35 28 Q 2.6 30.65 6.15 33.25 Q 9.85 35.9 12.7 35 Q 20.35 32.65 20.95 25.85 Q 21.15 23.45 19.9 19.3 Q 18.35 14.65 17.8 12.65 Z M 20.35 9.7 L 20.9 11.75 Q 24.35 23.6 23.95 28.1 Q 23.55 32.95 20.55 36.1 Q 17.6 39.25 12.95 39.85 Q 8.7 40.4 5.4 38.05 Q 2.15 35.7 0.5 30.95 Q -0.2 29 0.1 21.15 Q 0.3 14.2 0.85 10.3 Q 1.55 6 2.7 3.95 Q 4.85 0.2 9.55 0 Q 17.65 -0.3 20.35 9.7 Z" fill="#330A29"/>
	</g>
</svg>
