<?xml version="1.0"?>
<!DOCTYPE svg PUBLIC "-//W3C//DTD SVG 1.1//EN" "http://www.w3.org/Graphics/SVG/1.1/DTD/svg11.dtd">
<svg version='1.1' width='67px' height='38px' xmlns='http://www.w3.org/2000/svg' xmlns:xlink='http://www.w3.org/1999/xlink'>
	<g transform="translate(0.0127232,-0.0100746)">
		<path d="M 44.9 15.85 Q 48.25 13 47.7 11.8 Q 47.1 10.65 42.8 11.4 Q 37.9 12.25 31.7 15.2 Q 26 17.9 22.3 20.85 Q 19 23.5 18.85 24.95 L 18.9 25.4 Q 19.5 26.6 23.85 25.8 Q 28.7 24.95 34.9 22 Q 41.15 19.05 44.9 15.85 Z M 45.95 8.95 Q 51.75 7.95 52.5 9.55 Q 53.25 11.15 48.8 14.95 Q 43.75 19.25 35.45 23.15 Q 27.15 27.1 20.65 28.25 Q 14.8 29.3 14.05 27.7 Q 13.95 27.3 14 27.1 Q 14.2 25.15 18.6 21.65 Q 23.55 17.65 31.15 14.05 Q 39.45 10.1 45.95 8.95 Z" fill="#452454"/>
		<path d="M 57.75 12.85 Q 64.85 6.8 63.65 4.3 Q 62.5 1.75 53.3 3.4 Q 43.05 5.2 29.9 11.4 Q 17.9 17.05 10.05 23.35 Q 3.15 28.9 2.8 32 Q 2.8 32.65 2.95 32.95 Q 4.15 35.45 13.3 33.85 Q 23.6 32 36.7 25.8 Q 49.8 19.65 57.75 12.85 Z M 66.2 3.1 Q 68.35 7.6 59.3 15.2 Q 51.1 22.15 37.9 28.35 Q 24.65 34.6 14.15 36.5 Q 2.55 38.65 0.4 34.15 Q -1.75 29.6 7.3 22 Q 15.45 15.15 28.7 8.85 Q 41.95 2.6 52.45 0.7 Q 64.05 -1.45 66.2 3.1 Z" fill="#452454"/>
		<path d="M 48.8 14.95 Q 53.25 11.15 52.5 9.55 Q 51.75 7.95 45.95 8.95 Q 39.45 10.1 31.15 14.05 Q 23.55 17.65 18.6 21.65 Q 14.2 25.15 14 27.1 Q 13.95 27.3 14.05 27.7 Q 14.8 29.3 20.65 28.25 Q 27.15 27.1 35.45 23.15 Q 43.75 19.25 48.8 14.95 Z M 53.3 3.4 Q 62.5 1.75 63.65 4.3 Q 64.85 6.8 57.75 12.85 Q 49.8 19.65 36.7 25.8 Q 23.6 32 13.3 33.85 Q 4.15 35.45 2.95 32.95 Q 2.8 32.65 2.8 32 Q 3.15 28.9 10.05 23.35 Q 17.9 17.05 29.9 11.4 Q 43.05 5.2 53.3 3.4 Z" fill="#574A5C"/>
	</g>
</svg>
