<?xml version="1.0"?>
<!DOCTYPE svg PUBLIC "-//W3C//DTD SVG 1.1//EN" "http://www.w3.org/Graphics/SVG/1.1/DTD/svg11.dtd">
<svg version='1.1' width='29px' height='29px' xmlns='http://www.w3.org/2000/svg' xmlns:xlink='http://www.w3.org/1999/xlink'>
		<path d="M 21.6 22.2 Q 24.85 18.95 24.85 14.35 Q 24.85 9.8 21.6 6.5 Q 18.35 3.25 13.75 3.25 Q 9.15 3.25 5.9 6.5 Q 2.65 9.75 2.65 14.35 Q 2.65 18.95 5.9 22.2 Q 9.15 25.45 13.75 25.45 Q 18.35 25.45 21.6 22.2 Z M 28.75 14.35 Q 28.75 20.3 24.55 24.55 Q 20.3 28.75 14.35 28.75 Q 8.4 28.75 4.2 24.55 Q 0 20.3 0 14.35 Q 0 8.45 4.2 4.2 Q 8.45 0 14.35 0 Q 20.3 0 24.55 4.2 Q 28.75 8.4 28.75 14.35 Z" fill="#330A29"/>
</svg>
