<?xml version="1.0"?>
<!DOCTYPE svg PUBLIC "-//W3C//DTD SVG 1.1//EN" "http://www.w3.org/Graphics/SVG/1.1/DTD/svg11.dtd">
<svg version='1.1' width='164px' height='96px' xmlns='http://www.w3.org/2000/svg' xmlns:xlink='http://www.w3.org/1999/xlink'>
	<g transform="translate(0.00789474,-0.0209251)">
		<path d="M 25.75 66.55 Q 26.15 64.2 28.9 61.6 Q 31.95 58.75 35.2 58.35 Q 37.95 58.05 40.4 59.45 Q 42.9 60.95 43.75 63.5 Q 42.8 62.1 40.5 61.65 Q 38.65 61.25 36.6 61.5 Q 34.3 61.8 32.55 64 Q 30.9 66.05 30.7 68.15 Q 30.3 72.1 32.15 74.3 Q 33.55 75.9 35.7 76.65 Q 37.7 77.4 41.35 77.65 Q 44.4 77.9 48.15 75.35 Q 52.55 72.35 53.7 67.8 Q 54.7 63.8 54.25 60.2 Q 53.7 56.15 51.4 53.25 Q 49.4 50.7 45.75 48.95 Q 42.45 47.3 39.35 47 Q 32 46.3 25.75 50.25 Q 20.65 53.45 17.25 58.9 Q 14.7 63 14.5 69.05 Q 14.3 75.55 17.15 80.8 Q 20.65 87.2 29.15 90.65 Q 38.45 94.4 48.35 91.9 Q 53.65 90.55 59.65 85.35 Q 65.7 80.1 70.75 72.5 Q 79.55 59.35 81.3 45.9 Q 77.05 44.35 74.3 42.95 Q 70.3 49.1 67.55 52.2 Q 62.4 58.05 57.2 60.05 Q 57.65 61.7 57.8 64.2 Q 57.9 65.75 57.2 68.55 Q 56.35 74.3 50.35 78.25 Q 45.15 81.65 40.8 81.35 Q 36.8 81.05 33.35 79.65 Q 30.15 78.35 28.05 76.3 Q 24.7 73.05 25.75 66.55 Z M 151.65 36.75 Q 145.5 27.85 140.3 23.7 Q 141.1 23.6 142.85 24.55 Q 144.3 25.3 145.4 26.2 Q 140.9 18.3 134.35 12.75 Q 126.9 6.4 117.8 3.95 Q 101.15 -0.5 85.95 6.6 Q 76.75 10.9 66.35 20.9 Q 63.1 24.1 61.65 25.2 L 56.15 29.5 Q 52.75 32 49.2 34.25 Q 47.5 35.4 45 36.7 Q 42.15 38.15 40.5 38.6 Q 36.7 39.95 32.45 39.8 Q 29.4 39.7 27.2 38.5 Q 25.75 37.75 24.15 36.15 Q 20.7 32.7 20.8 28.2 Q 20.8 25.85 21.55 23.75 Q 22.4 21.3 24.1 19.95 Q 25.9 18.55 28.1 18 Q 30.45 17.4 32.7 18.05 Q 36.65 19.15 37.9 22.05 Q 39.35 25.4 35.4 28.9 Q 36 26.3 35.05 24.4 Q 33.95 22.35 31.15 21.55 Q 30.15 21.3 28.9 21.7 Q 27.6 22.1 26.5 23 Q 23.7 25.25 23.7 28.25 Q 23.6 31.5 26.15 34.05 Q 29.2 37 34.25 36.95 Q 38.15 36.85 41.4 35.15 Q 44.85 33.25 46.4 29.95 Q 48.05 26.5 47.8 22.5 Q 47.6 18.95 46.15 16.7 Q 44.15 13.45 40.65 11.05 Q 37.3 8.85 33.75 8.05 Q 23.85 5.85 15.45 10.55 Q 8.4 14.55 5.85 20.85 Q 3.9 25.6 4.3 31.2 Q 4.75 36.35 6.95 40.3 Q 9.3 44.45 12.75 46.7 Q 15.7 48.65 19.85 49.4 Q 23.15 46.65 28.85 45.35 Q 33.6 44.2 39.7 44.75 Q 43.4 45.1 46.7 46.75 Q 50.35 48.55 52.7 51.55 Q 53.3 52.3 54.35 53.6 Q 55.2 54.7 55.7 55.85 Q 60.6 53.95 65.5 49.6 Q 69.7 45.9 72.4 41.95 Q 69.25 40.1 68.65 39.65 Q 69.4 37.2 71.25 34.45 Q 72.35 32.75 74.7 29.8 Q 77 26.95 79.7 25 Q 81.9 23.45 83.8 22.8 Q 80.85 25.85 78.55 28.35 Q 74.25 33.2 71.95 37.8 Q 77.7 41.75 95.6 48 Q 111.25 53.45 118.05 54.8 Q 120.75 47.35 122.15 36.55 Q 123.2 39.9 123.9 44.15 Q 124.9 49.85 125.25 55.7 Q 134.5 56.8 145.05 56.6 Q 155.3 56.35 160.25 55.1 Q 158.75 47.15 151.65 36.75 Z M 150.35 30.4 Q 155.1 36.3 158.9 43.85 Q 163.05 52.1 163.25 57 Q 158.65 58.65 145.8 58.75 Q 133.15 58.85 122.4 57.5 Q 122.5 56.2 122.35 53 Q 122.15 49.95 121.95 48.65 Q 121.7 50.05 120.7 53.2 Q 119.9 55.7 119.4 57 Q 116.95 56.75 105.8 53.7 Q 93.25 50.25 84.1 46.95 Q 81.8 62.65 70.7 77.5 Q 59.9 91.95 49.05 94.7 Q 37.85 97.55 27.25 93.55 Q 17.5 89.9 13.65 82.8 Q 10.1 76.25 10.45 68.55 Q 10.75 61.8 13.7 56.85 Q 14.6 55.4 18.05 51.45 Q 9 49.35 3.4 40.95 Q 0.15 36 0 29.85 Q -0.15 23.9 2.55 18.5 Q 5.95 11.6 13.9 7.6 Q 23.3 2.75 34.35 5.2 Q 38.35 6.05 42.05 8.7 Q 45.8 11.35 48.2 15.15 Q 49.95 17.85 50.25 21.85 Q 50.55 25.7 49.45 29.55 Q 54.65 27.7 59.85 22.95 Q 64.05 19.1 64.35 18.8 Q 74.45 9.1 85.4 4.35 Q 101.65 -2.7 118.45 1.6 Q 130.9 4.8 140 13.6 Q 148.25 21.55 150.35 30.4 Z" transform="translate(0,0.05)" fill="#452454"/>
		<path d="M 140.3 23.7 Q 145.5 27.85 151.65 36.75 Q 158.75 47.15 160.25 55.1 Q 155.3 56.35 145.05 56.6 Q 134.5 56.8 125.25 55.7 Q 124.9 49.85 123.9 44.15 Q 123.2 39.9 122.15 36.55 Q 120.75 47.35 118.05 54.8 Q 111.25 53.45 95.6 48 Q 77.7 41.75 71.95 37.8 Q 74.25 33.2 78.55 28.35 Q 80.85 25.85 83.8 22.8 Q 81.9 23.45 79.7 25 Q 77 26.95 74.7 29.8 Q 72.35 32.75 71.25 34.45 Q 69.4 37.2 68.65 39.65 Q 69.25 40.1 72.4 41.95 Q 69.7 45.9 65.5 49.6 Q 60.6 53.95 55.7 55.85 Q 55.2 54.7 54.35 53.6 Q 53.3 52.3 52.7 51.55 Q 50.35 48.55 46.7 46.75 Q 43.4 45.1 39.7 44.75 Q 33.6 44.2 28.85 45.35 Q 23.15 46.65 19.85 49.4 Q 15.7 48.65 12.75 46.7 Q 9.3 44.45 6.95 40.3 Q 4.75 36.35 4.3 31.2 Q 3.9 25.6 5.85 20.85 Q 8.4 14.55 15.45 10.55 Q 23.85 5.85 33.75 8.05 Q 37.3 8.85 40.65 11.05 Q 44.15 13.45 46.15 16.7 Q 47.6 18.95 47.8 22.5 Q 48.05 26.5 46.4 29.95 Q 44.85 33.25 41.4 35.15 Q 38.15 36.85 34.25 36.95 Q 29.2 37 26.15 34.05 Q 23.6 31.5 23.7 28.25 Q 23.7 25.25 26.5 23 Q 27.6 22.1 28.9 21.7 Q 30.15 21.3 31.15 21.55 Q 33.95 22.35 35.05 24.4 Q 36 26.3 35.4 28.9 Q 39.35 25.4 37.9 22.05 Q 36.65 19.15 32.7 18.05 Q 30.45 17.4 28.1 18 Q 25.9 18.55 24.1 19.95 Q 22.4 21.3 21.55 23.75 Q 20.8 25.85 20.8 28.2 Q 20.7 32.7 24.15 36.15 Q 25.75 37.75 27.2 38.5 Q 29.4 39.7 32.45 39.8 Q 36.7 39.95 40.5 38.6 Q 42.15 38.15 45 36.7 Q 47.5 35.4 49.2 34.25 Q 52.75 32 56.15 29.5 L 61.65 25.2 Q 63.1 24.1 66.35 20.9 Q 76.75 10.9 85.95 6.6 Q 101.15 -0.5 117.8 3.95 Q 126.9 6.4 134.35 12.75 Q 140.9 18.3 145.4 26.2 Q 144.3 25.3 142.85 24.55 Q 141.1 23.6 140.3 23.7 Z" transform="translate(0,0.05)" fill="#FF98BB"/>
		<path d="M 28.9 61.6 Q 26.15 64.2 25.75 66.55 Q 24.7 73.05 28.05 76.3 Q 30.15 78.35 33.35 79.65 Q 36.8 81.05 40.8 81.35 Q 45.15 81.65 50.35 78.25 Q 56.35 74.3 57.2 68.55 Q 57.9 65.75 57.8 64.2 Q 57.65 61.7 57.2 60.05 Q 62.4 58.05 67.55 52.2 Q 70.3 49.1 74.3 42.95 Q 77.05 44.35 81.3 45.9 Q 79.55 59.35 70.75 72.5 Q 65.7 80.1 59.65 85.35 Q 53.65 90.55 48.35 91.9 Q 38.45 94.4 29.15 90.65 Q 20.65 87.2 17.15 80.8 Q 14.3 75.55 14.5 69.05 Q 14.7 63 17.25 58.9 Q 20.65 53.45 25.75 50.25 Q 32 46.3 39.35 47 Q 42.45 47.3 45.75 48.95 Q 49.4 50.7 51.4 53.25 Q 53.7 56.15 54.25 60.2 Q 54.7 63.8 53.7 67.8 Q 52.55 72.35 48.15 75.35 Q 44.4 77.9 41.35 77.65 Q 37.7 77.4 35.7 76.65 Q 33.55 75.9 32.15 74.3 Q 30.3 72.1 30.7 68.15 Q 30.9 66.05 32.55 64 Q 34.3 61.8 36.6 61.5 Q 38.65 61.25 40.5 61.65 Q 42.8 62.1 43.75 63.5 Q 42.9 60.95 40.4 59.45 Q 37.95 58.05 35.2 58.35 Q 31.95 58.75 28.9 61.6 Z" transform="translate(0,0.05)" fill="#FF98BB"/>
	</g>
</svg>
