<?xml version="1.0"?>
<!DOCTYPE svg PUBLIC "-//W3C//DTD SVG 1.1//EN" "http://www.w3.org/Graphics/SVG/1.1/DTD/svg11.dtd">
<svg version='1.1' width='29px' height='26px' xmlns='http://www.w3.org/2000/svg' xmlns:xlink='http://www.w3.org/1999/xlink'>
	<g transform="translate(-0,-0.0215517)">
		<path d="M 25.7 15.5 Q 26.15 13.2 25.85 10.95 Q 26.55 13.5 25.85 16.1 Q 25.25 18.4 23.85 20.25 Q 25.15 18.1 25.7 15.5 Z" transform="translate(0,0.05)" fill="#FFFFFF"/>
		<path d="M 6.15 11.6 Q 5.05 17.25 7.9 21.5 L 8.15 21.85 Q 3.15 19.05 1.9 11.35 L 2.05 9.2 Q 2.8 7.6 3.6 7.15 Q 7.45 4.15 11.4 3.25 Q 7.25 6.15 6.15 11.6 Z" transform="translate(0,0.05)" fill="#FFFFFF"/>
		<path d="M 25.45 8.85 Q 25.65 9.55 25.85 10.95 Q 26.15 13.2 25.7 15.5 Q 25.15 18.1 23.85 20.25 Q 22.35 22.65 20.3 23.95 Q 17 26.15 13.6 25.45 Q 10.2 24.75 8.15 21.85 L 7.9 21.5 Q 5.05 17.25 6.15 11.6 Q 7.25 6.15 11.4 3.25 Q 7.45 4.15 3.6 7.15 Q 2.8 7.6 2.05 9.2 L 1.75 14.05 L 0 6.8 Q 8.9 -2.1 18.75 0.6 Q 24.2 2.1 27.05 7.4 Q 29.45 11.85 28.8 15.8 Q 27.05 11.25 25.45 8.85 Z M 22.85 8.45 Q 22.45 7.45 21.95 6.75 Q 20.4 4.4 17.85 3.85 Q 15.25 3.4 12.95 4.95 Q 9.45 7.35 8.5 12.1 Q 8.15 13.95 8.3 15.35 Q 8.45 18.2 9.9 20.35 Q 11.5 22.8 14 23.25 Q 16.5 23.8 18.9 22.15 Q 22.4 19.75 23.35 15 Q 23.7 13.3 23.55 11.45 Q 23.85 9.65 22.85 8.45 Z" transform="translate(0,0.05)" fill="#452454"/>
		<path d="M 21.95 6.75 Q 22.45 7.45 22.85 8.45 Q 22.3 7.8 21.55 7.65 Q 20.7 7.5 19.9 7.95 Q 19.1 8.45 18.65 9.3 Q 17.9 8.5 17.05 8.35 Q 15.55 8.05 14.2 9.4 Q 12.8 10.75 12.35 12.95 Q 11.95 15.15 12.7 16.95 Q 13.45 18.7 14.95 19 Q 16.45 19.3 17.85 17.95 Q 19.2 16.6 19.65 14.4 L 19.7 14.15 L 20.2 14.3 Q 21.3 14.55 22.3 13.7 Q 23.25 12.9 23.5 11.5 L 23.55 11.45 Q 23.7 13.3 23.35 15 Q 22.4 19.75 18.9 22.15 Q 16.5 23.8 14 23.25 Q 11.5 22.8 9.9 20.35 Q 8.45 18.2 8.3 15.35 Q 8.15 13.95 8.5 12.1 Q 9.45 7.35 12.95 4.95 Q 15.25 3.4 17.85 3.85 Q 20.4 4.4 21.95 6.75 Z" transform="translate(0,0.05)" fill="#8CFFB8"/>
		<path d="M 14.2 9.4 Q 15.55 8.05 17.05 8.35 Q 17.9 8.5 18.65 9.3 Q 18.3 9.9 18.25 10.45 Q 18 11.65 18.4 12.7 Q 18.85 13.75 19.7 14.15 L 19.65 14.4 Q 19.2 16.6 17.85 17.95 Q 16.45 19.3 14.95 19 Q 13.45 18.7 12.7 16.95 Q 11.95 15.15 12.35 12.95 Q 12.8 10.75 14.2 9.4 Z" transform="translate(0,0.05)" fill="#409942"/>
		<path d="M 21.55 7.65 Q 22.3 7.8 22.85 8.45 Q 23.85 9.65 23.55 11.45 L 23.5 11.5 Q 23.25 12.9 22.3 13.7 Q 21.3 14.55 20.2 14.3 L 19.7 14.15 Q 18.85 13.75 18.4 12.7 Q 18 11.65 18.25 10.45 Q 18.3 9.9 18.65 9.3 Q 19.1 8.45 19.9 7.95 Q 20.7 7.5 21.55 7.65 Z" transform="translate(0,0.05)" fill="#FFFFFF"/>
	</g>
</svg>
