<?xml version="1.0"?>
<!DOCTYPE svg PUBLIC "-//W3C//DTD SVG 1.1//EN" "http://www.w3.org/Graphics/SVG/1.1/DTD/svg11.dtd">
<svg version='1.1' width='43px' height='39px' xmlns='http://www.w3.org/2000/svg' xmlns:xlink='http://www.w3.org/1999/xlink'>
	<g transform="translate(0.0197674,0.0174603)">
		<path d="M 10.75 27.55 Q 14 33.1 18.5 35.95 Q 13.8 34.8 9.4 31.15 L 9.3 31 L 9.45 31.1 Q 7.25 27.75 6.3 23.7 Q 5.25 19.15 6.25 15.3 Q 7.05 19.9 8.85 23.9 Q 9.6 25.65 10.75 27.55 Z" transform="translate(0.05,0)" fill="#FFFFFF"/>
		<path d="M 35.8 9.3 Q 37.85 10.95 39.2 12.55 Q 39.65 18.6 37.5 24.05 Q 38.3 17.05 35.8 9.3 Z" transform="translate(0.05,0)" fill="#FFFFFF"/>
		<path d="M 29.9 21.05 Q 30.6 15.8 28.2 10.45 Q 27.4 8.8 26.4 7.25 Q 26.85 6.35 26.85 5.1 Q 28.5 5.4 30.5 6.2 L 31.35 8 Q 33 11.65 33.6 15.55 Q 34.25 19.45 33.7 23 Q 32.85 29.2 29.15 31.75 Q 25.45 34.3 20.75 32 Q 18.1 30.7 15.75 27.95 Q 13.4 25.25 11.8 21.6 Q 9.25 15.9 9.25 9.7 Q 11.2 7.6 14.15 6.3 Q 13.65 7.55 13.5 8.9 Q 12.8 14.1 15.2 19.5 Q 17.65 24.95 21.5 26.9 Q 24.6 28.45 26.95 26.75 Q 29.25 25.15 29.9 21.05 Z" transform="translate(0.05,0)" fill="#FF737D"/>
		<path d="M 28.2 10.45 Q 30.6 15.8 29.9 21.05 Q 29.25 25.15 26.95 26.75 Q 24.6 28.45 21.5 26.9 Q 17.65 24.95 15.2 19.5 Q 12.8 14.1 13.5 8.9 Q 13.65 7.55 14.15 6.3 L 16.6 5.4 Q 19 4.85 20.85 4.7 Q 21.1 5.95 21.65 6.85 Q 22.5 8.3 23.75 8.65 Q 25 9 25.95 8 Q 26.3 7.5 26.4 7.25 Q 27.4 8.8 28.2 10.45 Z" transform="translate(0.05,0)" fill="#DE144D"/>
		<path d="M 25.95 8 Q 25 9 23.75 8.65 Q 22.5 8.3 21.65 6.85 Q 21.1 5.95 20.85 4.7 Q 24.05 4.5 26.85 5.1 Q 26.85 6.35 26.4 7.25 Q 26.3 7.5 25.95 8 Z" transform="translate(0.05,0)" fill="#FFFFFF"/>
		<path d="M 31.35 8 L 30.5 6.2 Q 28.5 5.4 26.85 5.1 Q 24.05 4.5 20.85 4.7 Q 19 4.85 16.6 5.4 L 14.15 6.3 Q 11.2 7.6 9.25 9.7 Q 9.25 15.9 11.8 21.6 Q 13.4 25.25 15.75 27.95 Q 18.1 30.7 20.75 32 Q 25.45 34.3 29.15 31.75 Q 32.85 29.2 33.7 23 Q 34.25 19.45 33.6 15.55 Q 33 11.65 31.35 8 Z M 41.9 16 L 41.95 16.25 Q 41.05 14.6 39.2 12.55 Q 37.85 10.95 35.8 9.3 Q 38.3 17.05 37.5 24.05 L 37.4 24.8 Q 36.3 33 31.25 36.5 Q 28.85 38.2 26 38.3 Q 23.1 38.4 20.1 36.9 L 18.5 35.95 Q 14 33.1 10.75 27.55 Q 9.6 25.65 8.85 23.9 Q 7.05 19.9 6.25 15.3 Q 5.25 19.15 6.3 23.7 Q 7.25 27.75 9.45 31.1 L 9.3 31 Q 7.3 29.85 5.3 28.1 Q 1.8 25 0.6 21.9 Q -0.6 18.8 0.35 14.55 Q 1.4 9.7 4.8 6.15 L 5.95 5.05 Q 8.2 3.15 10.8 2.05 Q 12.35 1.3 13.95 0.9 Q 20.45 -0.8 26.45 0.65 Q 30.2 1.55 33.25 3.5 L 33.95 3.95 Q 40.35 8.35 41.9 16 Z" transform="translate(0.05,0)" fill="#452454"/>
	</g>
</svg>
