<?xml version="1.0"?>
<!DOCTYPE svg PUBLIC "-//W3C//DTD SVG 1.1//EN" "http://www.w3.org/Graphics/SVG/1.1/DTD/svg11.dtd">
<svg version='1.1' width='482px' height='351px' xmlns='http://www.w3.org/2000/svg' xmlns:xlink='http://www.w3.org/1999/xlink'>
		<path d="M 371.6 82.1 Q 379.9 72.55 382.9 64.1 Q 384.7 76 385.05 80.1 Q 385.7 87.6 384.65 92.8 Q 382.35 104.3 368.25 115.3 Q 356.5 124.45 332.4 132 Q 317.95 136.55 294.5 141.6 L 269.95 147.3 Q 258.2 151.9 251.95 155 Q 244.25 158.9 238.9 163.45 L 232.25 159.3 Q 239.6 153.55 248.85 149 Q 258.05 144.45 266.65 142.3 L 287.45 137.8 Q 304.35 134.15 320.05 129.15 Q 338.35 123.35 352.25 116.6 Q 363.85 110.95 370.3 101.65 Q 376.75 92.35 378.45 78.9 Q 367.55 96.95 347.8 108.15 Q 344.15 110.2 339.6 112.1 L 337.35 107 Q 341.55 105.2 346.15 102.65 Q 361.15 94.1 371.6 82.1 Z" fill="#452454"/>
		<path d="M 207.65 162.85 Q 199.95 174.75 196.35 188.2 Q 193.7 198.25 193.55 208.1 L 188.45 209.6 Q 187.7 182.75 201.45 159.05 Z" fill="#452454"/>
		<path d="M 219.65 173 L 220.85 171.05 L 228.35 175.65 Q 220.8 186.75 217.95 196.35 Q 215.4 205.1 215.65 217 Q 215.8 225.35 217.6 237.75 Q 219.3 249.5 221.95 261.05 Q 223.7 268.85 227.6 285.35 Q 230.5 299.25 229.95 306.2 Q 228.95 318.65 219 329.55 Q 208.15 341.5 189.15 348.5 L 180.75 350.75 L 186.2 343.95 Q 194.25 333.85 197.2 328.5 Q 202.65 318.65 204.8 305.6 Q 205.75 299.85 204.95 290.65 L 211.35 290.9 Q 211.8 294.6 211.8 297.9 Q 211.8 301.05 211.35 303.75 Q 209.6 314.65 205.1 324.35 Q 201.6 331.9 195.9 339.75 Q 207.35 333.8 214.4 323.25 Q 221.55 312.45 221.55 300.7 Q 221.55 293.8 219.45 282.25 Q 218.15 275.35 214.85 260.6 Q 212.35 249.7 211.05 237.95 Q 209.85 227.15 209.85 217.65 Q 209.85 202.45 211 195.85 Q 212.9 185 219.65 173 Z" fill="#452454"/>
		<path d="M 289.95 117 Q 306.3 115.6 316.5 113.5 L 316.1 119.25 Q 308 121 297.7 122.5 Q 292.2 123.3 280.6 124.7 L 280.6 124.65 L 276.4 118.75 Q 284.35 117.45 289.95 117 Z" fill="#452454"/>
		<path d="M 217.7 150.3 L 210.95 146.15 Q 224.75 131.95 250.5 124.45 L 253.7 123.55 L 254.55 129.2 Q 232.8 135.1 217.7 150.3 Z" fill="#452454"/>
		<path d="M 191.65 234.05 L 196.8 235.2 Q 198.55 242.65 201.95 253.7 Q 204.35 261.4 205.45 265.2 L 201.2 267.8 Q 199.45 260.4 197.7 254.8 Q 193.55 241.45 191.65 234.05 Z" fill="#452454"/>
		<path d="M 325.4 123.1 Q 329.3 123.2 332.9 121.8 Q 335.85 120.7 337.75 118.8 Q 339.6 116.95 340.15 114.7 L 340.35 113.8 L 339.6 112.1 Q 344.15 110.2 347.8 108.15 Q 367.55 96.95 378.45 78.9 Q 376.75 92.35 370.3 101.65 Q 363.85 110.95 352.25 116.6 Q 338.35 123.35 320.05 129.15 Q 304.35 134.15 287.45 137.8 L 266.65 142.3 Q 258.05 144.45 248.85 149 Q 239.6 153.55 232.25 159.3 L 217.7 150.3 Q 232.8 135.1 254.55 129.2 L 255.65 136.5 L 257.05 137.15 Q 261.3 139 266.8 138.25 Q 272.25 137.5 276.25 134.5 Q 281.4 130.65 280.7 125.3 L 280.6 124.7 Q 292.2 123.3 297.7 122.5 Q 308 121 316.1 119.25 L 316.05 119.8 L 317.3 120.65 Q 320.7 123 325.4 123.1 Z" fill="#DB2454"/>
		<path d="M 207.65 162.85 L 220.85 171.05 L 219.65 173 Q 212.9 185 211 195.85 Q 209.85 202.45 209.85 217.65 Q 209.85 227.15 211.05 237.95 Q 212.35 249.7 214.85 260.6 Q 218.15 275.35 219.45 282.25 Q 221.55 293.8 221.55 300.7 Q 221.55 312.45 214.4 323.25 Q 207.35 333.8 195.9 339.75 Q 201.6 331.9 205.1 324.35 Q 209.6 314.65 211.35 303.75 Q 211.8 301.05 211.8 297.9 Q 211.8 294.6 211.35 290.9 L 213.3 290.95 L 214.2 289.95 Q 216.15 287.75 216.55 283.45 Q 216.95 279.7 216.05 275.9 Q 215.1 271.9 213 269.1 Q 210.95 266.35 207.95 265.1 L 206.55 264.55 L 205.45 265.2 Q 204.35 261.4 201.95 253.7 Q 198.55 242.65 196.8 235.2 L 200.45 236 L 201.6 234.45 Q 203.55 231.75 204.25 226.8 Q 205 221.85 204.05 217.15 Q 202.75 210.35 198.45 207.65 L 197.3 206.95 L 193.55 208.1 Q 193.7 198.25 196.35 188.2 Q 199.95 174.75 207.65 162.85 Z" fill="#DB2454"/>
		<path d="M 350.65 289.1 L 349.8 250.7 L 355.55 254.3 L 356.25 286.15 L 406.2 321.75 L 399.05 296.6 Q 402.4 299 405.95 300 L 416.05 335.75 Z" fill="#452454"/>
		<path d="M 415.35 236.8 Q 415.85 239.4 417.4 241.9 Q 418.15 243 421.05 245.3 Q 394.35 234.15 389.95 232.9 Q 385.65 235.4 367.15 242.8 L 361.1 239.1 Q 384.6 229.7 387.3 227.95 L 387.5 227.65 L 388.25 227.3 Q 389.5 226.75 392.95 227.9 Q 397.9 229.55 415.35 236.8 Z" fill="#452454"/>
		<path d="M 356.25 286.15 L 355.55 254.3 L 387 273.7 Q 387.65 280.2 390.5 286.05 Q 393.7 292.75 399.05 296.6 L 406.2 321.75 Z" fill="#FFC42E"/>
		<path d="M 421.05 245.3 Q 421.75 245.8 422.85 246.6 Q 417.25 246.25 408.4 247.3 Q 402.9 248 398.3 250.75 Q 393.85 253.4 390.95 257.55 L 367.15 242.8 Q 385.65 235.4 389.95 232.9 Q 394.35 234.15 421.05 245.3 Z" fill="#FFC42E"/>
		<path d="M 390.95 257.55 Q 389.35 259.8 388.25 262.55 L 191.15 140.55 Q 193.25 137.7 194.45 135.95 Z" fill="#452454"/>
		<path d="M 387.1 267.1 Q 386.8 269.25 386.85 271.2 Q 386.85 272.45 387 273.7 L 184.6 148.65 Q 187.1 145.75 188.3 144.25 Z" fill="#452454"/>
		<path d="M 388.25 262.55 Q 387.55 264.45 387.1 267.1 L 188.3 144.25 L 191.15 140.55 Z" fill="#E82454"/>
		<path d="M 35.05 48.95 Q 37.75 42.9 37 32.65 Q 36.55 26.95 35.8 23.05 Q 35 19.2 33.5 15.2 L 12.8 10.5 Z M 64.05 23.95 L 42.4 19.05 Q 44.4 25.4 45.1 34.75 Q 46.15 48.9 41.05 56.55 L 60.75 90.6 Q 64.9 83.95 67.2 73.45 Q 69.2 64.55 69.35 55.65 Q 69.8 37.75 64.05 23.95 Z M 110.05 60.35 Q 110.85 74.15 109.45 85.85 Q 107.9 98.4 102.35 113 Q 96.55 128.4 90.1 135.6 L 107.2 165.1 Q 118.45 152.55 127.45 134.4 Q 136.45 116.2 138.2 102.45 Q 139.7 90.75 139.05 72.8 Q 138.4 53.2 135.55 43.4 L 106.55 36.8 Q 109.25 46.65 110.05 60.35 Z M 101.35 82.95 Q 102.8 70.95 101.8 56.6 Q 100.75 42.3 97.8 33.25 L 72.95 27.65 Q 77.75 41.25 77.4 58.1 Q 77.15 68.75 74.7 78.75 Q 71.75 90.6 66.5 97.8 L 84.35 128.6 Q 89.9 121.55 95.05 107.4 Q 100 93.9 101.35 82.95 Z M 212.55 49.75 Q 217.2 72 212.55 94.15 Q 207.9 116.3 194.45 135.95 Q 193.25 137.7 191.15 140.55 L 188.3 144.25 Q 187.1 145.75 184.6 148.65 Q 176.1 158.2 166.2 165.7 L 165.85 166.3 L 165.6 166.15 Q 152.75 175.75 138.75 181.3 Q 124.45 186.95 110.6 187.75 L 108.85 187.85 L 0 0 L 212.2 48 Z M 184.65 52.6 Q 187.4 63.5 188.2 80 Q 189 95.75 187.65 106.75 Q 186.6 115.45 183.25 126.35 Q 180.05 136.9 175.65 146.4 Q 181.35 140.95 186.35 134.4 Q 196.7 120.85 202.05 105.6 Q 207.4 90.45 207.4 74.7 Q 207.4 66.3 205.7 57.4 Z M 178.45 79.55 Q 177.45 62.3 174.5 52.4 L 144.3 45.6 Q 146.8 56.6 147.35 75.45 Q 147.8 92.85 146.4 104 Q 144.55 118.75 134.75 138.25 Q 125 157.7 113 170.65 L 115.35 174.75 Q 126.7 173.85 138.35 169.15 Q 149.85 164.45 160.4 156.6 Q 166.25 147.5 171.45 133.05 Q 176.65 118.55 178.05 107.2 Q 179.4 96 178.45 79.55 Z" fill="#452454"/>
		<path d="M 174.5 52.4 Q 177.45 62.3 178.45 79.55 Q 179.4 96 178.05 107.2 Q 176.65 118.55 171.45 133.05 Q 166.25 147.5 160.4 156.6 Q 149.85 164.45 138.35 169.15 Q 126.7 173.85 115.35 174.75 L 113 170.65 Q 125 157.7 134.75 138.25 Q 144.55 118.75 146.4 104 Q 147.8 92.85 147.35 75.45 Q 146.8 56.6 144.3 45.6 Z" fill="#FFC42E"/>
		<path d="M 109.45 85.85 Q 110.85 74.15 110.05 60.35 Q 109.25 46.65 106.55 36.8 L 135.55 43.4 Q 138.4 53.2 139.05 72.8 Q 139.7 90.75 138.2 102.45 Q 136.45 116.2 127.45 134.4 Q 118.45 152.55 107.2 165.1 L 90.1 135.6 Q 96.55 128.4 102.35 113 Q 107.9 98.4 109.45 85.85 Z" fill="#FFC42E"/>
		<path d="M 101.8 56.6 Q 102.8 70.95 101.35 82.95 Q 100 93.9 95.05 107.4 Q 89.9 121.55 84.35 128.6 L 66.5 97.8 Q 71.75 90.6 74.7 78.75 Q 77.15 68.75 77.4 58.1 Q 77.75 41.25 72.95 27.65 L 97.8 33.25 Q 100.75 42.3 101.8 56.6 Z" fill="#FFC42E"/>
		<path d="M 45.1 34.75 Q 44.4 25.4 42.4 19.05 L 64.05 23.95 Q 69.8 37.75 69.35 55.65 Q 69.2 64.55 67.2 73.45 Q 64.9 83.95 60.75 90.6 L 41.05 56.55 Q 46.15 48.9 45.1 34.75 Z" fill="#FFC42E"/>
		<path d="M 33.5 15.2 Q 35 19.2 35.8 23.05 Q 36.55 26.95 37 32.65 Q 37.75 42.9 35.05 48.95 L 12.8 10.5 Z" fill="#FFC42E"/>
		<path d="M 188.2 80 Q 187.4 63.5 184.65 52.6 L 205.7 57.4 Q 207.4 66.3 207.4 74.7 Q 207.4 90.45 202.05 105.6 Q 196.7 120.85 186.35 134.4 Q 181.35 140.95 175.65 146.4 Q 180.05 136.9 183.25 126.35 Q 186.6 115.45 187.65 106.75 Q 189 95.75 188.2 80 Z" fill="#FFC42E"/>
		<path d="M 326.1 117.4 Q 328.6 117.45 330.85 116.55 Q 333.4 115.55 334.3 114.1 L 322.45 86.55 L 321.8 116.55 Q 323.7 117.4 326.1 117.4 Z M 340.35 113.8 L 340.15 114.7 Q 339.6 116.95 337.75 118.8 Q 335.85 120.7 332.9 121.8 Q 329.3 123.2 325.4 123.1 Q 320.7 123 317.3 120.65 L 316.05 119.8 L 319.65 67.15 Z" fill="#452454"/>
		<path d="M 330.85 116.55 Q 328.6 117.45 326.1 117.4 Q 323.7 117.4 321.8 116.55 L 322.45 86.55 L 334.3 114.1 Q 333.4 115.55 330.85 116.55 Z" fill="#FFC42E"/>
		<path d="M 272.8 130 Q 275 128.35 275.1 126.6 L 254.45 95.55 L 260.7 132.35 Q 263.55 133.1 266.95 132.45 Q 270.4 131.8 272.8 130 Z M 257.05 137.15 L 255.65 136.5 L 246.8 77.4 L 280.6 124.65 L 280.6 124.7 L 280.7 125.3 Q 281.4 130.65 276.25 134.5 Q 272.25 137.5 266.8 138.25 Q 261.3 139 257.05 137.15 Z" fill="#452454"/>
		<path d="M 275.1 126.6 Q 275 128.35 272.8 130 Q 270.4 131.8 266.95 132.45 Q 263.55 133.1 260.7 132.35 L 254.45 95.55 Z" fill="#FFC42E"/>
		<path d="M 198.5 218.25 Q 197.8 214.85 196.3 213.25 L 168.55 222.05 L 197.8 229.45 Q 198.9 226.55 198.9 222.55 Q 198.9 220.5 198.5 218.25 Z M 204.05 217.15 Q 205 221.85 204.25 226.8 Q 203.55 231.75 201.6 234.45 L 200.45 236 L 142.8 223.2 L 197.3 206.95 L 198.45 207.65 Q 202.75 210.35 204.05 217.15 Z" fill="#452454"/>
		<path d="M 197.8 229.45 L 168.55 222.05 L 196.3 213.25 Q 197.8 214.85 198.5 218.25 Q 198.9 220.5 198.9 222.55 Q 198.9 226.55 197.8 229.45 Z" fill="#FFC42E"/>
		<path d="M 211 281.25 Q 211 279.25 210.5 277.2 Q 209.55 273.05 206.9 271.15 L 187.3 284.2 L 210.45 285.2 Q 211 283.45 211 281.25 Z M 207.95 265.1 Q 210.95 266.35 213 269.1 Q 215.1 271.9 216.05 275.9 Q 216.95 279.7 216.55 283.45 Q 216.15 287.75 214.2 289.95 L 213.3 290.95 L 166.2 289.15 L 206.55 264.55 Z" fill="#452454"/>
		<path d="M 211 281.25 Q 211 283.45 210.45 285.2 L 187.3 284.2 L 206.9 271.15 Q 209.55 273.05 210.5 277.2 Q 211 279.25 211 281.25 Z" fill="#FFC42E"/>
		<path d="M 424.85 225.9 Q 422.6 226.75 421.45 228 Q 420 229.6 419.85 232.15 Q 419.5 236.4 421.4 239.45 Q 423.7 243.15 431.7 247.15 Q 440.7 250 447.15 254 Q 450.45 256 452.25 257.6 Q 439.15 254.3 428.85 253.05 Q 418.35 251.75 409.15 252.95 Q 401.8 253.9 397.7 259.1 Q 393.8 264.05 393.95 271.3 Q 394.2 279.2 399.1 286.1 Q 405.25 294.8 415.7 295.2 Q 441.85 296.15 457.85 288.15 Q 471.9 281.1 473.15 270.3 Q 474.4 259 467.3 249.85 Q 463.3 244.65 455.15 239.15 Q 446.2 232.55 437.05 228.65 Q 428.25 224.9 424.85 225.9 Z M 455 231.85 Q 465.7 239.05 471.65 245.85 Q 482.55 258.45 481.05 271.85 Q 479.5 285.6 460.15 293.9 Q 440.8 302.15 412.6 301.1 Q 408.85 300.95 405.95 300 Q 402.4 299 399.05 296.6 Q 393.7 292.75 390.5 286.05 Q 387.65 280.2 387 273.7 Q 386.85 272.45 386.85 271.2 Q 386.8 269.25 387.1 267.1 Q 387.55 264.45 388.25 262.55 Q 389.35 259.8 390.95 257.55 Q 393.85 253.4 398.3 250.75 Q 402.9 248 408.4 247.3 Q 417.25 246.25 422.85 246.6 Q 421.75 245.8 421.05 245.3 Q 418.15 243 417.4 241.9 Q 415.85 239.4 415.35 236.8 Q 415.1 235.6 415 233.75 Q 414.7 229 418 224.3 Q 418.7 223.25 421.1 221.85 Q 423.45 220.4 425 220.15 Q 430.35 219.3 439.2 223.05 Q 446.5 226.15 455 231.85 Z" fill="#452454"/>
		<path d="M 431.7 247.15 Q 423.7 243.15 421.4 239.45 Q 419.5 236.4 419.85 232.15 Q 420 229.6 421.45 228 Q 422.6 226.75 424.85 225.9 Q 428.25 224.9 437.05 228.65 Q 446.2 232.55 455.15 239.15 Q 463.3 244.65 467.3 249.85 Q 474.4 259 473.15 270.3 Q 471.9 281.1 457.85 288.15 Q 441.85 296.15 415.7 295.2 Q 405.25 294.8 399.1 286.1 Q 394.2 279.2 393.95 271.3 Q 393.8 264.05 397.7 259.1 Q 401.8 253.9 409.15 252.95 Q 418.35 251.75 428.85 253.05 Q 439.15 254.3 452.25 257.6 Q 450.45 256 447.15 254 Q 440.7 250 431.7 247.15 Z" fill="#FFF0BF"/>
</svg>
