<?xml version="1.0"?>
<!DOCTYPE svg PUBLIC "-//W3C//DTD SVG 1.1//EN" "http://www.w3.org/Graphics/SVG/1.1/DTD/svg11.dtd">
<svg version='1.1' width='90px' height='71px' xmlns='http://www.w3.org/2000/svg' xmlns:xlink='http://www.w3.org/1999/xlink'>
		<path d="M 52.8 62.7 Q 55.2 63.05 58.3 62.7 Q 61.4 62.4 63 61.65 L 55.35 53.9 Z M 40.7 62.15 Q 42.25 62.65 44.05 62.8 Q 47.15 63.15 48.1 62.9 Q 48.4 63.05 41.15 56.9 Z M 66.75 60.55 Q 71.55 59.25 75.25 56.6 L 67 50.35 Z M 28.7 31.4 Q 26.65 31.85 22 32.3 Q 17.15 32.75 15.85 32.85 L 25.9 38.5 Q 27.75 34.3 28.7 31.4 Z M 68.05 23.65 L 70.05 10.65 Q 70.1 10.55 69.6 9.95 Q 69.15 9.3 69.15 9.25 L 68.5 8.55 Q 67.35 10 66.95 10.4 Q 63.05 14.5 55.5 19.4 L 55.7 19.45 Q 45.1 26.15 41.35 27.85 L 41.35 27.75 Q 34 30.65 28.7 31.4 L 39.3 36.55 L 41.25 28.25 L 52.7 31 L 56.35 19.65 Q 59.65 20.7 68.05 23.65 Z M 88.45 30.75 Q 92.05 43.3 86.15 55.65 Q 81.45 65.45 66.2 68.9 Q 51.2 72.3 37.8 67 Q 28 63.1 15 46.75 Q 8.45 38.5 3.4 30.2 L 0 25 L 7.5 26.25 Q 11.1 27.2 17.3 26.85 Q 23.5 26.45 29.55 25 Q 35.9 23.45 36.95 23.15 Q 41.4 21.95 44.35 20.7 Q 51.25 17.7 56.25 13.55 Q 60.7 9.8 64.85 4 L 66.85 0 L 70.7 3.4 Q 84.75 17.85 88.45 30.75 Z M 84.7 43 Q 85.3 35.65 83.4 29.7 Q 80.95 21.95 73.55 13.7 L 71 28.5 L 59.2 25.2 L 56.25 37.1 L 44.6 32.15 L 40.95 40.9 L 30.75 35.9 L 28.1 43.7 L 13.4 35.25 Q 17.1 41.9 24.5 49.85 Q 31.75 57.6 37.15 60.85 L 39.05 52.05 L 50.05 59.4 L 53.2 47.55 L 63.05 55.9 L 64.6 44.6 L 74.3 51.4 L 75.3 36.2 Z M 83.2 49.25 Q 83.9 48.15 84 47.9 Q 78.75 43.2 78 42.65 L 78.45 54.4 Q 78.7 54.1 80.15 52.8 Q 81.65 51.5 81.85 51.25 Q 82.4 50.5 83.2 49.25 Z" fill="#452454"/>
		<path d="M 70.05 10.65 L 68.05 23.65 Q 59.65 20.7 56.35 19.65 L 56.55 18.9 L 55.7 19.45 L 55.5 19.4 Q 63.05 14.5 66.95 10.4 Q 67.35 10 68.5 8.55 L 69.15 9.25 Q 69.15 9.3 69.6 9.95 Q 70.1 10.55 70.05 10.65 Z" fill="#FFFFFF"/>
		<path d="M 28.7 31.4 Q 27.75 34.3 25.9 38.5 L 15.85 32.85 Q 17.15 32.75 22 32.3 Q 26.65 31.85 28.7 31.4 Z" fill="#FFFFFF"/>
		<path d="M 41.35 27.75 L 41.35 27.85 L 40.7 28.15 L 41.25 28.25 L 39.3 36.55 L 28.7 31.4 Q 34 30.65 41.35 27.75 Z" fill="#FFFFFF"/>
		<path d="M 52.7 31 L 40.7 28.15 L 41.35 27.85 Q 45.1 26.15 55.7 19.45 L 56.55 18.9 Z" fill="#FFFFFF"/>
		<path d="M 83.4 29.7 Q 85.3 35.65 84.7 43 L 75.3 36.2 L 74.3 51.4 L 64.6 44.6 L 63.05 55.9 L 53.2 47.55 L 50.05 59.4 L 39.05 52.05 L 37.15 60.85 Q 31.75 57.6 24.5 49.85 Q 17.1 41.9 13.4 35.25 L 28.1 43.7 L 30.75 35.9 L 40.95 40.9 L 44.6 32.15 L 56.25 37.1 L 59.2 25.2 L 71 28.5 L 73.55 13.7 Q 80.95 21.95 83.4 29.7 Z" fill="#C22454"/>
		<path d="M 84 47.9 Q 83.9 48.15 83.2 49.25 Q 82.4 50.5 81.85 51.25 Q 81.65 51.5 80.15 52.8 Q 78.7 54.1 78.45 54.4 L 78 42.65 Q 78.75 43.2 84 47.9 Z" fill="#FFFFFF"/>
		<path d="M 52.8 62.7 L 55.35 53.9 L 63 61.65 Q 61.4 62.4 58.3 62.7 Q 55.2 63.05 52.8 62.7 Z" fill="#FFFFFF"/>
		<path d="M 66.75 60.55 L 67 50.35 L 75.25 56.6 Q 71.55 59.25 66.75 60.55 Z" fill="#FFFFFF"/>
		<path d="M 41.15 56.9 Q 48.4 63.05 48.1 62.9 Q 47.15 63.15 44.05 62.8 Q 42.25 62.65 40.7 62.15 Z" fill="#FFFFFF"/>
</svg>
