<?xml version="1.0"?>
<!DOCTYPE svg PUBLIC "-//W3C//DTD SVG 1.1//EN" "http://www.w3.org/Graphics/SVG/1.1/DTD/svg11.dtd">
<svg version='1.1' width='194px' height='243px' xmlns='http://www.w3.org/2000/svg' xmlns:xlink='http://www.w3.org/1999/xlink'>
		<path d="M -163.2 324.85 Q -167.8 315 -178.55 309.05 Q -176.35 303 -171.35 298.65 L -166.8 295.5 Q -162.2 302.15 -162.2 311.8 Q -162.2 316.65 -163.1 320.15 Q -157.45 317.85 -149.55 319.8 L -142.8 322.15 Q -144.85 328.4 -149.7 334.9 Q -152.1 338.15 -154.1 340.15 Q -151.8 342.45 -150.9 346.05 Q -150.45 347.85 -150.45 349.15 Q -154.65 352.5 -160.8 353.55 Q -165.3 354.35 -170.4 353.85 Q -173.55 348.35 -178.2 341.1 Q -165.7 339.4 -160.8 333.5 Q -160.95 329.8 -163.2 324.85 Z" transform="translate(292.45,-267.5)" fill="#046411"/>
		<path d="M -169.75 366.25 Q -171.25 364.85 -173.55 364.1 Q -180.95 361.65 -193.45 366.5 L -191.2 372.75 Q -187.95 371.3 -183.5 369.95 Q -174.65 367.2 -168.7 367.5 Q -169 366.95 -169.75 366.25 Z M -193.8 341.5 Q -191.85 341.7 -188.9 341.7 Q -183.3 341.8 -178.2 341.1 Q -173.55 348.35 -170.4 353.85 Q -160.3 371.4 -154.4 386.85 Q -166.75 383.5 -182.1 383.85 Q -185 383.95 -187.7 384.15 Q -191.25 372.15 -195.4 362.05 Q -195.8 360.4 -196.55 359.2 L -196.8 358.65 L -196.65 358.2 L -196.2 359.5 Q -189.6 357 -183.25 356.4 Q -181.6 356.2 -179.45 356.3 L -177.7 356.5 Q -177.95 356.15 -178.5 355.65 Q -180.9 353.5 -184.7 352.65 Q -189.2 351.6 -195.05 352.75 Q -193.85 347.1 -193.8 341.5 Z" transform="translate(292.45,-267.5)" fill="#C9883C"/>
		<path d="M -168.7 367.5 Q -174.65 367.2 -183.5 369.95 Q -187.95 371.3 -191.2 372.75 L -193.45 366.5 Q -180.95 361.65 -173.55 364.1 Q -171.25 364.85 -169.75 366.25 Q -169 366.95 -168.7 367.5 Z" transform="translate(292.45,-267.5)" fill="#EBAB60"/>
		<path d="M -196.2 359.5 L -196.65 358.2 Q -195.65 355.4 -195.05 352.75 Q -189.2 351.6 -184.7 352.65 Q -180.9 353.5 -178.5 355.65 Q -177.95 356.15 -177.7 356.5 L -179.45 356.3 Q -181.6 356.2 -183.25 356.4 Q -189.6 357 -196.2 359.5 Z" transform="translate(292.45,-267.5)" fill="#EBAB60"/>
		<path d="M -236.45 279.35 L -237.1 267.5 Q -220.85 267.7 -208.85 280.1 Q -202.85 286.35 -200.1 292.5 Q -192.8 287.9 -181.1 289.4 Q -177.4 289.85 -173.75 290.9 L -170.8 291.8 Q -173.7 297.25 -179.55 302.25 Q -182.45 304.75 -184.8 306.15 Q -181.15 307.6 -178.55 309.05 Q -167.8 315 -163.2 324.85 Q -160.95 329.8 -160.8 333.5 Q -165.7 339.4 -178.2 341.1 Q -183.3 341.8 -188.9 341.7 Q -191.85 341.7 -193.8 341.5 Q -193.85 347.1 -195.05 352.75 Q -195.65 355.4 -196.65 358.2 L -196.85 358.8 Q -197.15 358.3 -197.6 357.9 L -197.3 357.45 L -197.05 356.95 Q -196 355.05 -195.4 352.8 Q -193.35 345 -197.2 338.4 Q -201.4 331.3 -210.1 330.85 L -211.45 330.85 Q -220.75 331.4 -226.85 340 Q -233.35 349.1 -228.8 358.5 L -227.95 360.35 Q -226.65 362.45 -224.55 363.9 Q -233.65 371.05 -248.45 374.8 Q -255.85 376.7 -261.45 377.15 Q -263.55 361.1 -255.2 348.2 Q -252.6 344.15 -249.25 340.95 L -246.45 338.5 Q -257.3 338.5 -275.95 334.85 Q -285.3 333 -292.45 331.15 Q -286 305.55 -261.25 298.95 Q -253.5 296.9 -244.9 297 L -237.8 297.5 Q -236.1 292.3 -236.45 279.35 Z" transform="translate(292.45,-267.5)" fill="#1D8129"/>
		<path d="M -214.1 370.65 L -212.9 372.6 Q -211.1 374.65 -207.95 375 Q -211.55 378.1 -215.7 380.1 Q -217.75 381.1 -219.1 381.5 Q -222.2 374.55 -222.2 365.2 Q -219.15 366.45 -215.1 366.4 Q -215.1 368.6 -214.1 370.65 Z" transform="translate(292.45,-267.5)" fill="#1D8129"/>
		<path d="M -207.95 375 Q -211.1 374.65 -212.9 372.6 L -214.1 370.65 Q -215.1 368.6 -215.1 366.4 Q -211.8 366.35 -207.45 365.15 Q -201 363.35 -197.6 357.9 Q -197.15 358.3 -196.85 358.8 L -196.55 359.2 Q -195.8 360.4 -195.4 362.05 Q -194.45 365.9 -196.15 369.4 Q -198.05 373.2 -202.2 374.35 Q -205.25 375.25 -207.95 375 Z" transform="translate(292.45,-267.5)" fill="#F2DE51"/>
		<path d="M -226.85 340 Q -220.75 331.4 -211.45 330.85 L -210.1 330.85 Q -201.4 331.3 -197.2 338.4 Q -193.35 345 -195.4 352.8 Q -196 355.05 -197.05 356.95 L -197.3 357.45 L -197.6 357.9 Q -201 363.35 -207.45 365.15 Q -211.8 366.35 -215.1 366.4 Q -219.15 366.45 -222.2 365.2 Q -223.75 364.5 -224.55 363.9 Q -226.65 362.45 -227.95 360.35 L -228.8 358.5 Q -233.35 349.1 -226.85 340 Z" transform="translate(292.45,-267.5)" fill="#FFF164"/>
		<path d="M -107.55 425.45 Q -99.9 429.9 -99.1 438.95 Q -98.7 443.5 -99.8 447.15 Q -99.8 461.1 -115.95 473.55 Q -124 479.75 -132.1 483.15 L -137 487.35 Q -143.55 492.35 -151.95 496.55 Q -178.8 509.95 -213.8 510.15 Q -248.8 510.35 -261.8 505.3 Q -268.3 502.75 -267.8 500.15 Q -269.3 493.15 -265.55 488.2 Q -262.6 487.7 -258.85 485.95 Q -254.95 491.6 -242.6 493.9 Q -225.35 497.15 -196.8 492.15 Q -164.8 486.55 -139.65 467.65 Q -118.2 451.5 -111.8 434.7 Q -105.8 432.5 -107.55 425.45 Z" transform="translate(292.45,-267.5)" fill="#E4C13B"/>
		<path d="M -120.45 435.5 Q -119.25 435.65 -117.55 435.65 Q -114.2 435.6 -111.8 434.7 Q -118.2 451.5 -139.65 467.65 Q -164.8 486.55 -196.8 492.15 Q -225.35 497.15 -242.6 493.9 Q -254.95 491.6 -258.85 485.95 L -256.1 484.5 L -255.65 486 Q -254.9 487.7 -253.6 488.6 Q -249.45 491.55 -241.1 485.5 Q -239.7 486.75 -237.55 486.9 Q -233.35 487.15 -229.8 481.5 L -229.3 482.65 Q -228.6 484.05 -227.25 485.3 Q -223 489.25 -214.45 489.85 Q -206.75 490.25 -198.8 485.75 L -192.45 481.15 Q -188.05 483.25 -182.7 483.15 Q -172.05 483 -167.45 472.15 Q -166.2 472.9 -163.8 472.9 Q -158.95 472.9 -153.1 469.15 Q -147.8 465.1 -147.8 459.15 Q -145.1 459.8 -141.9 458.45 Q -135.5 455.7 -132.8 445.5 Q -130.3 446.1 -127.5 445.1 Q -121.9 443.2 -120.45 435.5 Z" transform="translate(292.45,-267.5)" fill="#F4E1A1"/>
		<path d="M -204.4 413.1 Q -208.1 410.3 -214.6 412.15 Q -220.1 413.65 -225.4 417.65 Q -230.45 421.4 -231.2 424.1 L -232.85 424.6 Q -234.9 425.35 -236.85 426.7 Q -243.15 431.05 -246.4 439.7 Q -250.15 449.65 -249 458.7 Q -247.9 467.2 -243.7 468.6 Q -242.5 469 -240.95 469.15 L -240.2 469.15 Q -235.05 469.25 -229.4 465.3 Q -226 462.9 -223.1 459.55 L -222.5 458.85 L -220.7 458.2 Q -217.3 456.85 -214.4 454.75 Q -212.1 453.1 -210.45 451.35 Q -201.1 442 -200.4 426 Q -199.95 416.4 -204.4 413.1 Z M -148.4 395.05 Q -149.1 391.15 -152 391 Q -152.6 391 -152.9 391.05 Q -158.8 391.65 -159.6 397.65 Q -159.9 400.15 -158.75 402.05 Q -157.45 404.1 -154.85 404.5 Q -151.55 405 -149.6 401.9 Q -147.7 398.85 -148.4 395.05 Z M -167.8 388.95 Q -170.45 387.35 -174 389.75 Q -177.2 392 -179.5 396.3 Q -181.9 400.8 -181.7 404.65 Q -181.45 409 -177.8 410.7 Q -174.1 412.4 -170.4 410.35 Q -166.95 408.5 -164.95 404.4 Q -162.9 400.25 -163.45 396.15 Q -164.05 391.55 -167.8 388.95 Z M -187.7 384.15 Q -185 383.95 -182.1 383.85 Q -166.75 383.5 -154.4 386.85 Q -137.3 391.5 -127.5 402.45 Q -122.6 407.95 -121.1 412.5 Q -114.4 410.25 -109.25 411.55 Q -105.05 412.6 -104.45 414.85 Q -104.05 416.3 -106.55 418.85 Q -107.75 420.15 -109.1 421.15 Q -108.05 423.4 -107.55 425.45 Q -105.8 432.5 -111.8 434.7 Q -114.2 435.6 -117.55 435.65 Q -119.25 435.65 -120.45 435.5 Q -121.9 443.2 -127.5 445.1 Q -130.3 446.1 -132.8 445.5 Q -135.5 455.7 -141.9 458.45 Q -145.1 459.8 -147.8 459.15 Q -147.8 465.1 -153.1 469.15 Q -158.95 472.9 -163.8 472.9 Q -166.2 472.9 -167.45 472.15 Q -172.05 483 -182.7 483.15 Q -188.05 483.25 -192.45 481.15 L -198.8 485.75 Q -206.75 490.25 -214.45 489.85 Q -223 489.25 -227.25 485.3 Q -228.6 484.05 -229.3 482.65 L -229.8 481.5 Q -233.35 487.15 -237.55 486.9 Q -239.7 486.75 -241.1 485.5 Q -249.45 491.55 -253.6 488.6 Q -254.9 487.7 -255.65 486 L -256.1 484.5 L -258.85 485.95 Q -262.6 487.7 -265.55 488.2 Q -270.2 489.1 -272.1 486.85 Q -274.2 484.35 -272.05 480.85 L -269.45 477.85 Q -270.85 477.6 -272 476.55 Q -274.35 474.45 -273.1 470.5 Q -271.85 466.55 -265.5 466.1 L -259.45 466.5 Q -262.35 447.3 -251.35 432.5 Q -247.95 427.85 -243.5 424.2 L -239.8 421.5 Q -238.25 413.1 -230.95 404.2 Q -216.4 386.45 -187.7 384.15 Z" transform="translate(292.45,-267.5)" fill="#57CF92"/>
		<path d="M -236.85 426.7 Q -234.9 425.35 -232.85 424.6 L -231.2 424.1 Q -230.45 421.4 -225.4 417.65 Q -220.1 413.65 -214.6 412.15 Q -208.1 410.3 -204.4 413.1 Q -199.95 416.4 -200.4 426 Q -201.1 442 -210.45 451.35 Q -212.1 453.1 -214.4 454.75 Q -217.3 456.85 -220.7 458.2 L -222.5 458.85 L -223.1 459.55 Q -226 462.9 -229.4 465.3 Q -235.05 469.25 -240.2 469.15 L -240.95 469.15 Q -242.5 469 -243.7 468.6 Q -247.9 467.2 -249 458.7 Q -250.15 449.65 -246.4 439.7 Q -243.15 431.05 -236.85 426.7 Z" transform="translate(292.45,-267.5)" fill="#A7ECC7"/>
		<path d="M -152.9 391.05 Q -152.6 391 -152 391 Q -149.1 391.15 -148.4 395.05 Q -147.7 398.85 -149.6 401.9 Q -151.55 405 -154.85 404.5 Q -157.45 404.1 -158.75 402.05 Q -159.9 400.15 -159.6 397.65 Q -158.8 391.65 -152.9 391.05 Z" transform="translate(292.45,-267.5)" fill="#A7ECC7"/>
		<path d="M -174 389.75 Q -170.45 387.35 -167.8 388.95 Q -164.05 391.55 -163.45 396.15 Q -162.9 400.25 -164.95 404.4 Q -166.95 408.5 -170.4 410.35 Q -174.1 412.4 -177.8 410.7 Q -181.45 409 -181.7 404.65 Q -181.9 400.8 -179.5 396.3 Q -177.2 392 -174 389.75 Z" transform="translate(292.45,-267.5)" fill="#A7ECC7"/>
</svg>
