<?xml version="1.0"?>
<!DOCTYPE svg PUBLIC "-//W3C//DTD SVG 1.1//EN" "http://www.w3.org/Graphics/SVG/1.1/DTD/svg11.dtd">
<svg version='1.1' width='526px' height='270px' xmlns='http://www.w3.org/2000/svg' xmlns:xlink='http://www.w3.org/1999/xlink'>
		<path d="M 579.8 1026 L 569 1018.95 Q 587.15 1059.6 645.4 1060.35 Q 663.6 1060.55 683.6 1056.8 Q 693.65 1054.9 700 1052.95 L 703.05 1054.8 Q 707.15 1057.1 712.4 1059.45 Q 729.15 1066.95 751 1071.95 Q 772.9 1076.95 793.15 1068.95 Q 803.25 1064.95 809 1059.95 Q 764.65 1068.7 728.9 1049.7 Q 717.7 1043.75 708.75 1035.75 L 702 1028.95 Q 657.65 1053.35 608.9 1038.6 Q 593.65 1033.95 579.8 1026 Z M 434.1 930.1 Q 428.8 923.45 425.4 915.55 L 423 908.95 Q 419.25 937.7 442.75 954.55 Q 454.5 962.95 467 965.6 Q 482.8 1003.95 515.15 1011.95 Q 525.25 1014.45 535.8 1013.6 Q 541.05 1013.15 544.3 1012.25 Q 505.55 1007.7 488.75 979.5 Q 483.45 970.7 481.05 960.6 L 479.65 952.25 Q 450.9 951.45 434.1 930.1 Z M 535 929.95 L 535.7 933.7 Q 536.75 938.4 538.3 943.2 Q 543.25 958.6 551.65 969.2 Q 578.4 1003.2 629 976.95 L 638.35 982.85 Q 650.05 989.35 661.75 992.6 Q 699.25 1002.85 723 975.95 L 732.85 982.8 Q 745.3 990.45 758.25 994.6 Q 799.75 1007.85 831 980.95 L 840.05 982.05 Q 851.05 982.7 860.75 980.6 Q 891.75 973.85 898 941.95 Q 906.35 937.9 915.65 929 Q 934.2 911.2 939 887.15 L 939 965.2 Q 925.7 970.5 910.05 970.6 Q 905.1 970.6 900.55 970.1 L 897 969.6 Q 870.75 1011.7 820.9 1018.2 Q 805.35 1020.2 789.25 1018.45 L 776.3 1016.25 Q 821.7 1044.6 867.9 1015.95 Q 882.3 1007 895.1 993.4 Q 899.1 989.15 902.45 984.95 L 905 981.6 L 907.55 982.6 Q 910.85 983.7 914.6 984.2 Q 926.65 985.85 938.95 980.95 L 938.3 1030.85 Q 929.25 1032.5 920.2 1032.9 L 913 1032.95 Q 892.25 1067.55 862.05 1084.25 Q 837.85 1097.65 808.7 1099 Q 787.9 1100 766.7 1094.9 Q 760.05 1093.3 754.2 1091.3 L 749.65 1089.6 Q 755.7 1098.1 770.35 1103.95 Q 784.1 1109.5 802.25 1111.5 Q 820.3 1113.55 837.5 1111.45 Q 855.7 1109.25 868.3 1102.95 Q 889.95 1092.1 908.95 1071.1 Q 914.9 1064.55 919.85 1057.75 L 923.65 1052.25 Q 929.25 1052.7 938.05 1051.1 L 937 1126.95 L 413 1126.95 L 414.45 992 Q 418.65 1035.95 467.25 1054.85 Q 482.45 1060.75 500.25 1063.45 Q 509.15 1064.8 515 1064.95 L 518.25 1069.55 Q 522.6 1075.25 528.05 1080.45 Q 545.55 1097.1 567.65 1102.95 Q 600.15 1111.25 623.15 1104.25 Q 634.65 1100.75 639.65 1095.6 Q 590.05 1108.95 551.55 1076.6 Q 539.55 1066.5 530.05 1053.05 L 523 1041.6 Q 479.05 1048.45 443.65 1021.9 Q 424.6 1007.65 414.5 990.55 L 416 856.95 L 417.9 860.5 Q 420.5 864.7 424.25 868.1 Q 436.25 878.85 455 876.95 L 457.4 886.35 Q 461.15 897.55 468 906.45 Q 490 934.95 535 929.95 Z" transform="translate(-413,-856.95)" fill="#89C8FF"/>
		<path d="M 569 1018.95 L 579.8 1026 Q 593.65 1033.95 608.9 1038.6 Q 657.65 1053.35 702 1028.95 L 708.75 1035.75 Q 717.7 1043.75 728.9 1049.7 Q 764.65 1068.7 809 1059.95 Q 803.25 1064.95 793.15 1068.95 Q 772.9 1076.95 751 1071.95 Q 729.15 1066.95 712.4 1059.45 Q 707.15 1057.1 703.05 1054.8 L 700 1052.95 Q 693.65 1054.9 683.6 1056.8 Q 663.6 1060.55 645.4 1060.35 Q 587.15 1059.6 569 1018.95 Z" transform="translate(-413,-856.95)" fill="#E0FFFF"/>
		<path d="M 423 908.95 L 425.4 915.55 Q 428.8 923.45 434.1 930.1 Q 450.9 951.45 479.65 952.25 L 481.05 960.6 Q 483.45 970.7 488.75 979.5 Q 505.55 1007.7 544.3 1012.25 Q 541.05 1013.15 535.8 1013.6 Q 525.25 1014.45 515.15 1011.95 Q 482.8 1003.95 467 965.6 Q 454.5 962.95 442.75 954.55 Q 419.25 937.7 423 908.95 Z" transform="translate(-413,-856.95)" fill="#E0FFFF"/>
		<path d="M 802.25 1111.5 Q 784.1 1109.5 770.35 1103.95 Q 755.7 1098.1 749.65 1089.6 L 754.2 1091.3 Q 760.05 1093.3 766.7 1094.9 Q 787.9 1100 808.7 1099 Q 837.85 1097.65 862.05 1084.25 Q 892.25 1067.55 913 1032.95 L 920.2 1032.9 Q 929.25 1032.5 938.3 1030.85 L 939 1030.7 L 939 1050.9 L 938.05 1051.1 Q 929.25 1052.7 923.65 1052.25 L 919.85 1057.75 Q 914.9 1064.55 908.95 1071.1 Q 889.95 1092.1 868.3 1102.95 Q 855.7 1109.25 837.5 1111.45 Q 820.3 1113.55 802.25 1111.5 Z" transform="translate(-413,-856.95)" fill="#E0FFFF"/>
		<path d="M 897 969.6 L 900.55 970.1 Q 905.1 970.6 910.05 970.6 Q 925.7 970.5 939 965.2 L 939 980.95 L 938.95 980.95 Q 926.65 985.85 914.6 984.2 Q 910.85 983.7 907.55 982.6 L 905 981.6 L 902.45 984.95 Q 899.1 989.15 895.1 993.4 Q 882.3 1007 867.9 1015.95 Q 821.7 1044.6 776.3 1016.25 L 789.25 1018.45 Q 805.35 1020.2 820.9 1018.2 Q 870.75 1011.7 897 969.6 Z" transform="translate(-413,-856.95)" fill="#E0FFFF"/>
		<path d="M 414.45 992 L 414.3 990.25 L 414.5 990.55 Q 424.6 1007.65 443.65 1021.9 Q 479.05 1048.45 523 1041.6 L 530.05 1053.05 Q 539.55 1066.5 551.55 1076.6 Q 590.05 1108.95 639.65 1095.6 Q 634.65 1100.75 623.15 1104.25 Q 600.15 1111.25 567.65 1102.95 Q 545.55 1097.1 528.05 1080.45 Q 522.6 1075.25 518.25 1069.55 L 515 1064.95 Q 509.15 1064.8 500.25 1063.45 Q 482.45 1060.75 467.25 1054.85 Q 418.65 1035.95 414.45 992 Z" transform="translate(-413,-856.95)" fill="#E0FFFF"/>
</svg>
