<?xml version="1.0"?>
<!DOCTYPE svg PUBLIC "-//W3C//DTD SVG 1.1//EN" "http://www.w3.org/Graphics/SVG/1.1/DTD/svg11.dtd">
<svg version='1.1' width='72px' height='52px' xmlns='http://www.w3.org/2000/svg' xmlns:xlink='http://www.w3.org/1999/xlink'>
	<g transform="translate(-0,-0.000684932)">
		<path d="M 14.15 23.8 Q 14.7 30.45 17.55 36.2 Q 20.4 42 25 45.8 Q 26.7 47.25 28.35 48.15 Q 19.7 47.15 14.15 41.85 Q 8.4 36.35 6.8 26.85 Q 5.95 21.6 7.4 16.6 Q 11.1 13.7 15.15 11.65 Q 13.55 17.75 14.15 23.8 Z" fill="#FFFFFF"/>
		<path d="M 61.5 13.6 L 66.2 16.15 L 66 22.3 Q 64.05 29.45 60.45 35.05 Q 63.25 27.75 62.55 19.55 Q 62.25 16.55 61.5 13.6 Z" fill="#FFFFFF"/>
		<path d="M 65.85 28.15 L 65.9 27.35 L 67.9 22.45 Z" fill="#452454"/>
		<path d="M 54.3 10.45 Q 56.3 15 56.75 20.05 Q 57.1 24 56.4 28.1 Q 55.25 34.95 51.15 39.8 Q 46.65 45.2 40.45 45.75 Q 34.3 46.3 28.9 41.75 Q 25.1 38.6 22.8 33.75 Q 20.45 28.95 19.95 23.3 Q 19.2 15.45 22.25 8.8 Q 30.85 6.15 40.3 7.1 Q 39.85 8.15 39.8 9.1 Q 38.3 8.65 36.9 8.7 Q 33.15 9.05 30.85 13.15 Q 28.55 17.25 29.05 22.75 Q 29.55 28.25 32.55 31.9 Q 35.55 35.55 39.3 35.2 Q 43 34.85 45.35 30.75 Q 47.65 26.6 47.15 21.15 L 46.8 19.05 L 47 19.05 Q 49.75 18.85 51.45 16.25 Q 53.15 13.65 52.85 10.25 L 52.85 9.95 Z" fill="#FF737D"/>
		<path d="M 42.05 16.95 Q 44.15 19.2 46.8 19.05 L 47.15 21.15 Q 47.65 26.6 45.35 30.75 Q 43 34.85 39.3 35.2 Q 35.55 35.55 32.55 31.9 Q 29.55 28.25 29.05 22.75 Q 28.55 17.25 30.85 13.15 Q 33.15 9.05 36.9 8.7 Q 38.3 8.65 39.8 9.1 Q 39.65 10.35 39.7 11.4 Q 40 14.75 42.05 16.95 Z" fill="#DE144D"/>
		<path d="M 52.85 9.95 L 52.85 10.25 Q 53.15 13.65 51.45 16.25 Q 49.75 18.85 47 19.05 L 46.8 19.05 Q 44.15 19.2 42.05 16.95 Q 40 14.75 39.7 11.4 Q 39.65 10.35 39.8 9.1 Q 39.85 8.15 40.3 7.1 Q 46.5 7.75 52.85 9.95 Z" fill="#FFFFFF"/>
		<path d="M 54.3 10.45 L 52.85 9.95 Q 46.5 7.75 40.3 7.1 Q 30.85 6.15 22.25 8.8 Q 19.2 15.45 19.95 23.3 Q 20.45 28.95 22.8 33.75 Q 25.1 38.6 28.9 41.75 Q 34.3 46.3 40.45 45.75 Q 46.65 45.2 51.15 39.8 Q 55.25 34.95 56.4 28.1 Q 57.1 24 56.75 20.05 Q 56.3 15 54.3 10.45 Z M 71.3 12.95 L 71.35 13 Q 71.05 14.5 67.9 22.45 L 65.7 27.8 L 66.2 16.15 L 61.5 13.6 Q 62.25 16.55 62.55 19.55 Q 63.25 27.75 60.45 35.05 Q 58.55 39.8 55.7 43.1 Q 52.8 46.6 48.95 48.7 Q 45.1 50.8 40.9 51.15 Q 34.35 51.7 28.35 48.15 Q 26.7 47.25 25 45.8 Q 20.4 42 17.55 36.2 Q 14.7 30.45 14.15 23.8 Q 13.55 17.75 15.15 11.65 Q 11.1 13.7 7.4 16.6 Q 3.4 19.75 1.05 22.8 Q 0.25 23.8 0 24.3 Q 0.5 21.45 2.65 17.75 Q 5.4 12.95 9.85 9.2 Q 11.05 8.2 12.05 7.5 Q 15.1 5.35 18.4 3.85 Q 23.1 1.75 28.4 0.75 L 29.85 0.5 Q 38.3 -0.85 47.65 1.45 Q 50.8 2.25 53.2 3.15 Q 59.7 5.5 65.95 9.35 Q 69.1 11.25 71.3 12.95 Z" fill="#452454"/>
	</g>
</svg>
