<?xml version="1.0"?>
<!DOCTYPE svg PUBLIC "-//W3C//DTD SVG 1.1//EN" "http://www.w3.org/Graphics/SVG/1.1/DTD/svg11.dtd">
<svg version='1.1' width='184px' height='170px' xmlns='http://www.w3.org/2000/svg' xmlns:xlink='http://www.w3.org/1999/xlink'>
	<g transform="translate(0.0103774,-0.0137755)">
		<path d="M 168.15 0.1 Q 173.2 -0.55 177.1 3.7 Q 180.05 6.95 181.65 14.05 Q 183.05 20.3 183.05 27.55 Q 183.05 32.5 182.1 36.8 Q 179.9 46.8 173 54.8 Q 166.05 62.8 156.05 66.95 Q 145.9 71.2 126.25 74.95 Q 108.1 78.4 94.8 79.15 Q 100.55 81.9 111.75 85.15 Q 127.9 89.9 129.1 90.3 Q 136.05 92.65 148.1 95.15 Q 154.5 96.5 164.5 98.6 Q 171.9 100.4 175.05 102.35 Q 177.7 104 179.1 107.15 Q 179.7 108.6 179.7 110.2 Q 179.7 112.8 178.3 115.8 Q 175.95 120.85 169.7 126.55 Q 163.1 132.55 157.35 134.3 Q 146.8 137.5 138.55 137.05 Q 128.25 136.45 116.2 130.3 Q 108.7 126.5 98.35 117.85 Q 89.65 110.55 81.35 102 Q 87.2 115.7 97.45 129.25 Q 99.65 132.2 105 136.55 Q 109.55 140.3 113.5 142.75 Q 119.25 146.3 121.65 149.3 Q 123.8 152.1 123.8 155.4 Q 123.8 156.05 123.65 157.4 Q 123.5 158.95 123.35 159.4 Q 121.5 163.95 113.7 166.85 Q 107.7 169.1 102.35 169.3 Q 95.8 169.6 89.2 168.35 Q 78.55 166.35 73.8 160.9 Q 67.5 153.65 63.95 139.45 Q 60.7 126.45 59.5 106.75 Q 57.85 109.75 56.8 120.6 Q 56.15 128.05 56.05 133.75 Q 56 139.35 55.95 147 Q 55.5 151.85 52.35 152.1 Q 48.4 152.35 42.45 148.7 Q 37.35 145.55 34.65 142.3 Q 31.8 138.9 29.4 132.75 Q 26.6 125.75 26.7 120.35 Q 26.8 113.05 31 103.95 Q 34.05 97.4 38.9 90.65 Q 35.1 92.5 28.7 92.5 Q 22 92.5 16.6 90.45 Q 11.55 88.5 7.8 85 Q 3.75 81.25 1.9 76.3 Q -0.35 70.35 0.05 63.05 Q 0.55 54.95 4.2 48.85 Q 9.2 40.5 18.15 36.85 Q 27.7 32.95 40.2 35.15 Q 47.45 36.4 52.8 40.2 Q 57.95 43.8 60.5 49.15 Q 63 54.3 66.55 56.4 Q 70.4 58.65 75.95 57.75 Q 84.3 56.4 97.1 49.15 Q 104.7 44.85 120.35 34.3 Q 127.55 29.5 139.1 20.25 Q 156 6.85 156.65 6.35 Q 164.45 0.6 168.15 0.1 Z" fill="#452454"/>
		<path d="M 175.4 35.35 Q 173.05 46 164.65 53.5 Q 159.55 58.05 153.4 60.65 Q 139.5 66.4 114.15 72.35 Q 89.35 78.2 81.65 77.75 Q 88 82.05 102.1 87.3 Q 108.95 89.8 127.1 95.75 Q 134.8 98.3 144.35 100.75 Q 145.5 101.05 158.45 104.25 Q 170.4 107.15 171.65 108.3 L 171.7 108.45 Q 171.7 109.45 170.8 111.45 Q 168.6 115.95 164.85 119.8 Q 160.15 124.7 154.5 126.9 Q 146.55 129.95 137.3 129.75 Q 127.75 129.5 119.95 125.75 Q 109.45 120.65 93.85 107.9 Q 79.6 96.3 72.5 88 Q 77.35 102.6 81.85 112.7 Q 87.8 126 94.1 133.75 Q 99.5 140.4 109.35 147.2 Q 112.95 149.65 114.25 151.8 Q 115.4 153.7 115 155.6 Q 114.35 158.05 110.2 160.45 Q 105.85 162.9 100.85 163.3 Q 95.1 163.8 89.4 162.25 Q 83.45 160.7 79.85 157.55 Q 73.7 152.2 69.85 142.7 Q 67.55 137 65.3 126.9 Q 63.85 120.6 62.7 111.45 Q 61.6 102.65 61.4 96.65 Q 56.95 103.05 54.8 109.5 Q 50.85 121.3 50.6 134.8 Q 50.5 142.65 50.2 144.9 Q 48.05 144.15 44.8 141.9 Q 41.85 139.85 39.9 137.9 Q 37 135.05 35.25 130.05 Q 33.55 125.3 33.55 120.65 L 33.55 120.45 Q 33.7 109.1 38.55 99.2 Q 41.75 92.7 46 88.3 Q 49.7 85.5 51.7 81.15 Q 53.35 77.6 53.7 73.4 Q 53.95 70.4 52.5 66.8 Q 51 62.9 48.15 60.2 Q 45.55 57.75 41.55 56.55 Q 37.9 55.4 34.95 55.85 Q 27.9 56.85 25.2 61.75 Q 22.8 66.15 24.55 71.8 Q 24.5 67.8 27.1 64.6 Q 29.6 61.6 33 60.95 Q 35.65 60.5 38.8 61.25 Q 42.05 62.05 43.75 63.65 Q 47.45 67.2 46.8 74.1 Q 46.65 75.8 45.05 78.45 Q 42.9 81.95 39.55 84 Q 35.4 86.55 31.6 87 Q 27.3 87.5 21.15 85.75 Q 16.25 84.35 12.65 80.8 Q 9.35 77.55 8.5 73.95 Q 7.25 68.75 7.55 64.5 Q 7.9 59 10.85 54 Q 16.9 43.75 27.4 41.6 Q 34.9 40 43 42.65 Q 47.3 44.1 51.85 47.45 Q 56.25 50.7 57.35 53.15 Q 59.4 57.7 63.6 59.8 Q 67.9 61.95 75.05 61.75 Q 81.95 61.55 99 53.5 Q 112.8 47 123.95 40.15 Q 127.55 37.9 133.15 33.65 Q 136.1 31.4 143.4 25.65 Q 153 17.95 157.7 14.6 Q 165.5 9 168.3 8.6 Q 169.8 8.4 171.3 10.05 Q 174.3 13.3 175.6 20.45 Q 177 28.15 175.4 35.35 Z" fill="#FFC42E"/>
	</g>
</svg>
