<?xml version="1.0"?>
<!DOCTYPE svg PUBLIC "-//W3C//DTD SVG 1.1//EN" "http://www.w3.org/Graphics/SVG/1.1/DTD/svg11.dtd">
<svg version='1.1' width='188px' height='129px' xmlns='http://www.w3.org/2000/svg' xmlns:xlink='http://www.w3.org/1999/xlink'>
	<g transform="translate(-0.0123288,-0)">
		<path d="M 185.4 86.85 L 185.15 87.1 L 181.2 84 Q 162.05 99.8 137.55 110.6 Q 111.75 121.95 91.15 122.55 Q 84.7 122.75 73.1 120.75 Q 59.75 118.45 47.4 114.4 Q 14.15 103.45 7.5 86.7 Q 6.35 83.75 8 76.25 Q 8.95 71.8 12.3 60.85 Q 16.1 48.6 17.7 41.85 Q 20.4 30.7 20.85 21.65 L 18.25 21.55 Q 18.65 16.35 18.5 11.3 L 158.25 0 Z" fill="#FFEDC7"/>
		<path d="M 181.2 84 L 187.95 89.3 Q 182.9 94.6 170.9 101.65 Q 158.85 108.75 144.4 114.95 Q 109.3 129.95 90.15 127.85 Q 65.95 125.25 44.95 118.85 Q 8.2 107.65 0.95 89.3 Q -0.9 84.65 0.9 77.2 Q 2.2 71.85 6.95 60.2 Q 10.75 50.75 12.2 43.25 Q 14.05 33.8 13.75 21.35 L 20.85 21.65 Q 20.4 30.7 17.7 41.85 Q 16.1 48.6 12.3 60.85 Q 8.95 71.8 8 76.25 Q 6.35 83.75 7.5 86.7 Q 14.15 103.45 47.4 114.4 Q 59.75 118.45 73.1 120.75 Q 84.7 122.75 91.15 122.55 Q 111.75 121.95 137.55 110.6 Q 162.05 99.8 181.2 84 Z" fill="#452454"/>
	</g>
</svg>
