<?xml version="1.0"?>
<!DOCTYPE svg PUBLIC "-//W3C//DTD SVG 1.1//EN" "http://www.w3.org/Graphics/SVG/1.1/DTD/svg11.dtd">
<svg version='1.1' width='184px' height='104px' xmlns='http://www.w3.org/2000/svg' xmlns:xlink='http://www.w3.org/1999/xlink'>
	<g transform="translate(-0,0.0139896)">
		<path d="M 178.75 31.45 Q 185.65 42.6 181.9 55 Q 176.2 73.8 147.85 89.95 Q 138.9 95.05 128.4 99.4 Q 119.45 102.9 118.85 103.15 Q 116.1 103.45 114.05 103.1 Q 109.95 102.45 113.45 99.4 Q 124 90.15 132 79.7 Q 143.1 65.15 143.45 54.85 Q 143.7 46.2 138.6 41.1 Q 130.35 32.9 111.05 27.55 Q 92.45 22.4 69.6 21.5 Q 43.8 20.4 30.9 21.8 Q 14.15 23.6 0 30.7 Q 25.6 11.85 58.5 4.5 Q 88.3 -2.1 122.7 0.95 Q 140.9 2.55 156.5 11.3 Q 171.4 19.65 178.75 31.45 Z M 171.1 52.95 Q 171.6 51.35 171.8 50.1 Q 173.15 42.25 168.75 35.2 Q 162.55 25.2 150.3 18.15 Q 138.05 11.1 121.35 7.9 Q 100.9 3.95 77.85 6.25 Q 55.25 8.45 33.85 16.25 Q 51.05 13.65 69.9 14.4 Q 93.8 15.4 112.7 21.3 Q 131.55 27.15 141 36.55 Q 148.8 44.3 148.5 54.45 Q 148.45 56.05 148.1 58.25 Q 146.1 69.4 134.7 82.7 Q 128.05 90.55 115.4 101.6 Q 132.9 92.6 146.1 82.65 Q 166.85 67 171.1 52.95 Z" fill="#452454"/>
		<path d="M 171.8 50.1 Q 171.6 51.35 171.1 52.95 Q 166.85 67 146.1 82.65 Q 132.9 92.6 115.4 101.6 Q 128.05 90.55 134.7 82.7 Q 146.1 69.4 148.1 58.25 Q 148.45 56.05 148.5 54.45 Q 148.8 44.3 141 36.55 Q 131.55 27.15 112.7 21.3 Q 93.8 15.4 69.9 14.4 Q 51.05 13.65 33.85 16.25 Q 55.25 8.45 77.85 6.25 Q 100.9 3.95 121.35 7.9 Q 138.05 11.1 150.3 18.15 Q 162.55 25.2 168.75 35.2 Q 173.15 42.25 171.8 50.1 Z" fill="#33B0FF"/>
	</g>
</svg>
