<?xml version="1.0"?>
<!DOCTYPE svg PUBLIC "-//W3C//DTD SVG 1.1//EN" "http://www.w3.org/Graphics/SVG/1.1/DTD/svg11.dtd">
<svg version='1.1' width='135px' height='59px' xmlns='http://www.w3.org/2000/svg' xmlns:xlink='http://www.w3.org/1999/xlink'>
	<g transform="translate(-78.9259,-64.25)">
		<path d="M 171.25 92.25 Q 171.25 91.65 171.75 90.85 Q 172.5 89.75 173.75 89.75 Q 174.25 89.75 175.1 90.25 L 175 88.85 Q 175 83.9 177.9 80.95 Q 180.5 78.3 184.25 78.2 Q 185.934 78.1551 187.375 78.625 Q 187.551 77.0242 188.25 76.15 Q 190.6 73.4 193.2 75.8 Q 194.55 77 195.5 78.75 Q 195.85 78.75 196.55 78.5 Q 197.3 78.25 197.6 78.25 Q 199.85 78.25 201 79.65 Q 201.6 80.4 201.9 81.4 Q 202.6 82.4 204.35 83.05 Q 206.1 83.7 206.6 84.4 Q 207.3 85.4 209.05 87.55 Q 210.55 89.6 211 91 Q 213.75 101 213.75 104.35 Q 213.75 105.25 213.1 106 Q 212.4 106.85 212.25 108.65 Q 212 111.6 211 112.75 Q 210.1 113.85 208.2 114.75 Q 206.85 115.4 206.75 116.5 Q 206.75 116.6 206.3 118.45 Q 205.5 120.25 203.75 120.25 Q 202.9 120.25 202.35 119.75 Q 201.8 119.25 201.75 119.25 Q 201.45 119.25 200.95 119.5 Q 200.45 119.75 200.1 119.75 Q 199.675 119.75 199.3 119.675 Q 198.342 120.545 196.85 121.75 Q 195.65 121.4 195.15 121 Q 194.45 122.5 192.85 122.5 Q 189.25 122.5 184.5 118.95 Q 179.9 115.05 178.65 114.25 Q 176.95 113.1 174.45 110.1 Q 171.75 106.75 171.75 105.3 Q 171.75 104.4 172.35 103.75 Q 171.15 102.55 170.1 100.75 Q 169 98.8 169 97.65 Q 169 95.35 172.25 95.15 Q 172.1 94.95 171.7 93.7 Q 171.25 92.5 171.25 92.25 Z M 103.7 65.4 Q 106.7 64.8 111.75 66.5 Q 115.2 67.3 120.65 67.6 Q 123.95 67.8 126.4 69.5 Q 126.575 69.6248 126.975 70.325 Q 127.232 70.25 127.5 70.25 Q 129.9 70.4 131.65 72.15 Q 132.446 72.8988 133.225 73.65 Q 133.36 73.5744 133.5 73.5 Q 135.85 72.3 137.3 74.15 Q 146.65 85.75 140.6 99.35 Q 140.565 99.4324 140.525 99.525 Q 141.579 100.912 138.4 102.45 Q 137.228 103.023 136.05 103.6 Q 134.358 104.613 132.525 105.3 Q 131.886 105.616 131.25 105.925 Q 128.589 106.617 125.75 106.85 Q 121.242 107.291 118.8 110.75 Q 117.671 110.832 116.5 110.7 Q 114.348 110.427 112.225 109.975 Q 110.819 110.081 109.425 110.025 Q 106.15 111.761 101.95 109.55 Q 98.4 107.75 94.75 105.8 Q 85.95 101.1 81.85 91.75 Q 81.7207 91.4543 81.625 91.15 Q 80.2457 91.1139 79.15 89.75 Q 78.6 89.05 79.4 88.5 Q 80.2639 87.8578 81.125 87.2 Q 81.4014 84.6617 83.25 82.1 Q 84.1785 80.816 85.1 79.525 Q 85.2146 79.1609 85.4 78.8 Q 86.1068 77.3133 87.35 76.3 Q 89.4211 73.1662 91.9 70.3 Q 92.1691 69.4871 93 69.175 Q 93.5557 68.6523 94.15 68.2 Q 94.327 67.7104 94.7 67.3 Q 95.35 66.6 96.05 66 Q 97.0531 65.1975 98.15 64.8 Q 98.1723 64.7732 98.2 64.75 Q 98.45 64.5 98.85 64.45 Q 99.25 64.35 99.5 64.25 Q 99.8361 64.4252 100.175 64.6 Q 101.95 64.8219 103.575 65.425 Q 103.64 65.4111 103.7 65.4 Z" fill="#9ED3FE"/>
	</g>
</svg>
