<?xml version="1.0"?>
<!DOCTYPE svg PUBLIC "-//W3C//DTD SVG 1.1//EN" "http://www.w3.org/Graphics/SVG/1.1/DTD/svg11.dtd">
<svg version='1.1' width='39px' height='45px' xmlns='http://www.w3.org/2000/svg' xmlns:xlink='http://www.w3.org/1999/xlink'>
	<g transform="translate(19.4705,22.3186)">
		<path d="M 20.45 2.45 Q 20.5 2.6 20.7 5.35 Q 20.85 6.8 21 9.7 Q 21.3 12.2 22.25 13.8 Q 23.2 15.5 25.05 16.4 Q 26.1 16.95 28.75 17.65 Q 33.75 18.9 36.4 18.9 Q 38.1 18.9 38.75 19.7 Q 39.4 20.45 37 20.35 Q 31.35 19.95 28.3 21.9 Q 26.45 23.05 24.05 26.75 Q 22.4 29.25 20.55 35.2 Q 18.95 40.45 18.85 42.25 Q 18.7 43.95 18.1 44.55 Q 17.45 45.15 17.4 42.55 Q 17.25 39.2 16.35 35.5 Q 15.25 30.8 13.15 26.75 Q 11.35 22.95 6.25 20.95 Q 3.6 19.9 0.8 19.45 Q -0.15 19.2 0 18.7 Q 0.15 18.15 2.4 18.15 Q 7.45 18.15 11.15 16.85 Q 16.4 15 17.1 11 Q 17.7 6.65 18.05 4.25 Q 18.75 -0.3 19.25 0 Q 20.15 0.45 20.45 2.45 Z" transform="translate(-19.45,-22.3)" fill="#FFFFFF"/>
	</g>
</svg>
