<?xml version="1.0"?>
<!DOCTYPE svg PUBLIC "-//W3C//DTD SVG 1.1//EN" "http://www.w3.org/Graphics/SVG/1.1/DTD/svg11.dtd">
<svg version='1.1' width='119px' height='27px' xmlns='http://www.w3.org/2000/svg' xmlns:xlink='http://www.w3.org/1999/xlink'>
	<g transform="translate(-91.75,-83.5119)">
		<path d="M 181.9 97.65 Q 186.1 99 192.1 101.5 Q 193.8 101.95 202.3 104 Q 210 106.2 210 108.4 Q 210 109.15 209.5 109.75 Q 208.85 110.5 207.5 110.5 Q 202.8 110.5 188.6 105.95 Q 173.75 101.15 173.75 98.75 Q 173.75 95.15 181.9 97.65 Z M 92.95 83.75 Q 93.9 83.25 96.45 83.8 Q 106.1 86.1 109.6 86 Q 110.8 86.25 120.35 87.85 Q 129.25 89.7 129.25 91.55 Q 129.25 92.35 128.5 93.05 Q 127.6 93.75 126.35 93.75 Q 122.05 93.75 107.5 91.25 Q 91.75 88.55 91.75 87 Q 91.75 84.4 92.95 83.75 Z" fill="#370B2D"/>
	</g>
</svg>
