<?xml version="1.0"?>
<!DOCTYPE svg PUBLIC "-//W3C//DTD SVG 1.1//EN" "http://www.w3.org/Graphics/SVG/1.1/DTD/svg11.dtd">
<svg version='1.1' width='345px' height='285px' xmlns='http://www.w3.org/2000/svg' xmlns:xlink='http://www.w3.org/1999/xlink'>
	<g transform="translate(-0.00652174,-0)">
		<path d="M 87.7 43.8 L 86.4 41.3 Q 85.85 40.3 84.65 38.55 Q 86.55 38.4 88.55 38.4 Q 94.15 38.35 99.7 39.6 Q 98.35 42.95 97.55 44.65 Q 93.6 43.75 88.55 43.75 Z" transform="translate(0.1,0)" fill="#452454"/>
		<path d="M 162.4 34.2 Q 173.7 65.6 165.35 84.8 Q 161.6 93.55 155.75 101.8 L 150.7 99.6 Q 156.55 91.45 160.45 82.65 Q 163.45 75.75 163.45 66.5 Q 163.45 51.65 155.75 32.15 Q 151.25 20.6 145.05 9.75 L 134.1 13.6 Q 135.7 20.9 135.8 28.5 Q 134.15 18.25 131.45 8.8 L 147.4 3.2 L 148.5 5.05 Q 156.65 18.35 162.4 34.2 Z" transform="translate(0.1,0)" fill="#452454"/>
		<path d="M 111.95 134.2 Q 107.3 132.85 104.1 132.95 Q 100.1 133.05 97.55 135.3 Q 95.4 132.35 91.35 129.85 Q 104.4 132.05 117.8 126.65 L 125.5 128.95 Q 118.75 132.45 111.95 134.2 Z" transform="translate(0.1,0)" fill="#452454"/>
		<path d="M 135.8 28.5 Q 135.7 20.9 134.1 13.6 L 145.05 9.75 Q 151.25 20.6 155.75 32.15 Q 163.45 51.65 163.45 66.5 Q 163.45 75.75 160.45 82.65 Q 156.55 91.45 150.7 99.6 Q 138.7 94.25 128.9 87.75 Q 136.35 76.6 137.6 58.95 Q 138.6 45.25 135.8 28.5 Z" transform="translate(0.1,0)" fill="#33B0FF"/>
		<path d="M 117.8 126.65 Q 104.4 132.05 91.35 129.85 Q 84.95 125.8 77.6 125.15 Q 85.9 122.75 94 118.4 Q 105.3 122.8 117.8 126.65 Z" transform="translate(0.1,0)" fill="#33B0FF"/>
		<path d="M 87.75 43.9 L 87.7 43.8 L 88.55 43.75 Q 93.6 43.75 97.55 44.65 Q 96.1 47.85 94.5 50.95 Q 90.65 46.45 87.75 43.9 Z" transform="translate(0.1,0)" fill="#33B0FF"/>
		<path d="M 128.7 0 L 129.45 2.2 Q 130.4 5.05 131.45 8.8 Q 134.15 18.25 135.8 28.5 Q 138.6 45.25 137.6 58.95 Q 136.35 76.6 128.9 87.75 L 124.2 84.45 Q 128.25 78.25 130.25 69.75 Q 133.8 54.3 130.5 32.15 Q 128.55 18.9 124.7 6.25 L 112.35 7.65 Q 112.35 16.2 110.25 25.15 Q 108.2 34.1 104.35 43.45 Q 101.75 49.65 99.05 54.6 L 98.4 55.8 Q 96.65 53.55 94.5 50.95 Q 96.1 47.85 97.55 44.65 Q 98.35 42.95 99.7 39.6 Q 103 31.25 104.65 23.9 Q 107 13.85 106.6 5.2 L 106.5 2.5 Z" transform="translate(0.1,0)" fill="#452454"/>
		<path d="M 86.4 41.3 L 87.75 43.9 Q 82.05 39 76.8 38.2 Q 69.55 30.8 57.75 28.1 Q 41.2 24.4 27.65 32.35 Q 14.05 40.3 8.45 56.95 Q 2.15 75.65 10.4 92.25 Q 18.65 108.85 38.8 117.9 Q 49.95 122.95 62.85 122.05 Q 74.75 121.25 87.05 115.55 L 94 118.4 Q 85.9 122.75 77.6 125.15 Q 70.05 124.4 64.45 127.65 Q 49.3 129 36.45 123.15 Q 14.15 113.1 5.05 94.6 Q -4.05 76.05 2.95 55.1 Q 9.3 36.3 24.75 27.3 Q 40.2 18.3 59 22.5 Q 75.9 26.3 84.65 38.55 Q 85.85 40.3 86.4 41.3 Z" transform="translate(0.1,0)" fill="#452454"/>
		<path d="M 44.5 44.65 Q 50 39.7 57.05 40.4 Q 59.7 40.7 62.2 41.9 Q 58.75 43.7 56.05 46.15 Q 51.8 45.85 48.35 48.95 Q 46.05 51.05 44.6 54.2 Q 43.2 57.35 43.15 60.5 Q 43.15 67.15 47.45 71.6 Q 47.9 75.5 49.4 80.1 Q 46.9 78.85 44.7 76.95 Q 41.15 73.85 39.25 69.6 Q 37.35 65.3 37.4 60.45 Q 37.45 56.05 39.35 51.8 Q 41.25 47.55 44.5 44.65 Z" transform="translate(0.1,0)" fill="#452454"/>
		<path d="M 48.35 48.95 Q 51.8 45.85 56.05 46.15 Q 49.05 52.45 47.6 61.95 Q 46.85 66.75 47.45 71.6 Q 43.15 67.15 43.15 60.5 Q 43.2 57.35 44.6 54.2 Q 46.05 51.05 48.35 48.95 Z" transform="translate(0.1,0)" fill="#33B0FF"/>
		<path d="M 57.75 28.1 Q 69.55 30.8 76.8 38.2 Q 73.65 37.75 70.55 38.6 Q 65.85 39.9 62.2 41.9 Q 59.7 40.7 57.05 40.4 Q 50 39.7 44.5 44.65 Q 41.25 47.55 39.35 51.8 Q 37.45 56.05 37.4 60.45 Q 37.35 65.3 39.25 69.6 Q 41.15 73.85 44.7 76.95 Q 46.9 78.85 49.4 80.1 Q 52.05 88.1 57.35 95.2 Q 62.5 102.05 68.7 106.2 Q 75.3 110.55 87.05 115.55 Q 74.75 121.25 62.85 122.05 Q 49.95 122.95 38.8 117.9 Q 18.65 108.85 10.4 92.25 Q 2.15 75.65 8.45 56.95 Q 14.05 40.3 27.65 32.35 Q 41.2 24.4 57.75 28.1 Z" transform="translate(0.1,0)" fill="#33B0FF"/>
		<path d="M 124.7 6.25 Q 128.55 18.9 130.5 32.15 Q 133.8 54.3 130.25 69.75 Q 128.25 78.25 124.2 84.45 L 120.8 81.8 Q 116.15 77.95 111 71.85 Q 108 68.35 102.05 60.55 L 98.4 55.8 L 99.05 54.6 Q 101.75 49.65 104.35 43.45 Q 108.2 34.1 110.25 25.15 Q 112.35 16.2 112.35 7.65 Z" transform="translate(0.1,0)" fill="#33B0FF"/>
		<path d="M 341.75 80.3 Q 348.8 101.25 339.7 119.75 Q 330.6 138.3 308.3 148.35 Q 293.3 155.1 276.6 154.2 Q 259.95 153.3 245.55 145.05 L 248.65 137.5 Q 261.85 144.85 277.4 145.8 Q 293.25 146.8 305.4 140.65 Q 321.95 132.25 330.35 117.6 Q 339.85 101 333.95 83.45 Q 328.5 67.3 314.15 58.55 Q 300.4 50.1 287 53.3 Q 277.8 55.5 271.3 60.45 Q 266.3 64.25 263.3 69.4 Q 260.55 74.15 259.5 80.05 Q 258.45 86.05 259.8 89.75 Q 261.15 93.35 267.8 97.4 Q 274.2 101.3 279.7 102.1 Q 284.45 102.8 288.75 101.65 Q 293.1 100.55 296.25 97.8 Q 301.65 93.05 301.55 85.7 Q 301.55 82.55 300.15 79.35 Q 298.75 76.2 296.4 74.1 Q 292.75 70.9 288.25 71.3 Q 285.85 71.55 283.75 72.95 Q 281.65 74.3 280.3 76.5 Q 279.2 78.25 278.85 80.15 Q 278.55 82 279.1 83.5 L 273.7 85.45 Q 272.7 82.7 273.15 79.55 Q 273.6 76.35 275.4 73.45 Q 277.5 70.15 280.75 68.05 Q 284 66 287.7 65.6 Q 294.7 64.9 300.25 69.85 Q 303.5 72.8 305.4 77 Q 307.3 81.3 307.35 85.65 Q 307.35 90.55 305.5 94.8 Q 303.6 99.05 300 102.1 Q 295.9 105.7 290.4 107.2 Q 284.9 108.65 278.9 107.8 Q 272.6 106.9 266.4 103.25 Q 260.4 99.75 255.25 94.2 Q 250.9 89.55 245.7 79.8 Q 237.9 65.4 234.45 50.35 Q 232.35 40.95 232.35 32.8 Q 222 32.05 219.1 31.75 Q 215.65 45.7 215.7 64.95 Q 215.75 82.4 218.5 96.05 Q 220.15 104.15 226.3 114.45 L 217.45 115.55 L 216.9 114.45 Q 207 94.35 209.9 59.85 Q 210.85 48.7 213 37.5 Q 214.5 29.75 215.3 27.4 L 216.05 25.2 L 238.25 27.7 L 238.1 30.4 Q 237.75 38.95 240.05 49.1 Q 242 57.55 245.7 66.45 Q 248.15 72.35 250.75 77.05 Q 251.6 78.7 253.7 81.9 Q 254.35 73.3 258.35 66.5 Q 262.05 60.15 267.6 55.75 Q 275.15 49.7 285.75 47.7 Q 302.15 44.55 318.25 53.1 Q 335.7 62.35 341.75 80.3 Z" transform="translate(0.1,0)" fill="#452454"/>
		<path d="M 333.95 83.45 Q 339.85 101 330.35 117.6 Q 321.95 132.25 305.4 140.65 Q 293.25 146.8 277.4 145.8 Q 261.85 144.85 248.65 137.5 Q 254.2 124.3 260.9 109.8 L 250.8 111.6 L 250.8 111.5 L 226.3 114.45 Q 220.15 104.15 218.5 96.05 Q 215.75 82.4 215.7 64.95 Q 215.65 45.7 219.1 31.75 Q 222 32.05 232.35 32.8 Q 232.35 40.95 234.45 50.35 Q 237.9 65.4 245.7 79.8 Q 250.9 89.55 255.25 94.2 Q 260.4 99.75 266.4 103.25 Q 272.6 106.9 278.9 107.8 Q 284.9 108.65 290.4 107.2 Q 295.9 105.7 300 102.1 Q 303.6 99.05 305.5 94.8 Q 307.35 90.55 307.35 85.65 Q 307.3 81.3 305.4 77 Q 303.5 72.8 300.25 69.85 Q 294.7 64.9 287.7 65.6 Q 284 66 280.75 68.05 Q 277.5 70.15 275.4 73.45 Q 273.6 76.35 273.15 79.55 Q 272.7 82.7 273.7 85.45 L 279.1 83.5 Q 278.55 82 278.85 80.15 Q 279.2 78.25 280.3 76.5 Q 281.65 74.3 283.75 72.95 Q 285.85 71.55 288.25 71.3 Q 292.75 70.9 296.4 74.1 Q 298.75 76.2 300.15 79.35 Q 301.55 82.55 301.55 85.7 Q 301.65 93.05 296.25 97.8 Q 293.1 100.55 288.75 101.65 Q 284.45 102.8 279.7 102.1 Q 274.2 101.3 267.8 97.4 Q 261.15 93.35 259.8 89.75 Q 258.45 86.05 259.5 80.05 Q 260.55 74.15 263.3 69.4 Q 266.3 64.25 271.3 60.45 Q 277.8 55.5 287 53.3 Q 300.4 50.1 314.15 58.55 Q 328.5 67.3 333.95 83.45 Z" transform="translate(0.1,0)" fill="#33B0FF"/>
		<path d="M 184.65 110.45 L 184.15 121.15 L 183.6 121.85 L 183.85 114.8 Q 169.15 112.55 150.5 104.5 Q 130.3 95.7 117.2 84.85 Q 112.2 80.7 106.8 74.4 Q 103.45 70.45 97.55 62.7 Q 90.75 53.8 84.6 49.95 Q 78.6 46.2 71.9 46.45 Q 64.45 46.8 58.95 52.4 Q 53.75 57.65 52.6 64.9 Q 50.95 75.35 57.85 86.35 Q 64.2 96.4 74.9 103.05 Q 91.25 113.2 119.5 121.3 Q 146.45 129 168.45 130.5 Q 162.2 134.15 157.45 136.45 Q 142.85 133.9 125.5 128.95 L 117.8 126.65 Q 105.3 122.8 94 118.4 L 87.05 115.55 Q 75.3 110.55 68.7 106.2 Q 62.5 102.05 57.35 95.2 Q 52.05 88.1 49.4 80.1 Q 47.9 75.5 47.45 71.6 Q 46.85 66.75 47.6 61.95 Q 49.05 52.45 56.05 46.15 Q 58.75 43.7 62.2 41.9 Q 65.85 39.9 70.55 38.6 Q 73.65 37.75 76.8 38.2 Q 82.05 39 87.75 43.9 Q 90.65 46.45 94.5 50.95 Q 96.65 53.55 98.4 55.8 L 102.05 60.55 Q 108 68.35 111 71.85 Q 116.15 77.95 120.8 81.8 L 128.9 87.75 Q 138.7 94.25 150.7 99.6 L 155.75 101.8 Q 172.5 108.65 184.65 110.45 Z" transform="translate(0.1,0)" fill="#452454"/>
		<path d="M 183.85 114.8 L 183.6 121.85 L 182.35 123.35 Q 178.4 124 178.4 123.95 Q 176.8 125.55 168.45 130.5 Q 146.45 129 119.5 121.3 Q 91.25 113.2 74.9 103.05 Q 64.2 96.4 57.85 86.35 Q 50.95 75.35 52.6 64.9 Q 53.75 57.65 58.95 52.4 Q 64.45 46.8 71.9 46.45 Q 78.6 46.2 84.6 49.95 Q 90.75 53.8 97.55 62.7 Q 103.45 70.45 106.8 74.4 Q 112.2 80.7 117.2 84.85 Q 130.3 95.7 150.5 104.5 Q 169.15 112.55 183.85 114.8 Z" transform="translate(0.1,0)" fill="#FFEDC7"/>
		<path d="M 186.4 247.35 L 184.35 247 Q 184.05 247.95 181.65 251.85 Q 179.1 256 178.45 256.1 Q 177.85 256.15 174.95 251.85 Q 172.25 247.5 172.2 247.5 Q 169.3 252.7 158.7 260.15 Q 166.9 265.25 177.95 269.6 Q 184.75 272.25 195.7 275.7 Q 197.25 276.2 197.9 275.8 Q 198.3 275.4 198.35 275.15 Q 198.45 274.85 198.25 274.2 Q 194.35 262.5 186.4 247.35 Z M 147.8 235.1 Q 147 232.95 146.85 223.45 Q 144.95 222.55 144.15 222 Q 140 224.85 129.35 226.2 Q 124.7 226.8 119.7 226.6 Q 116.05 226.5 110.75 225.8 Q 105.25 224.4 100.75 223.45 Q 92 221.65 88.6 223.05 Q 81 226.25 78.5 233.9 Q 76.35 240.45 78.35 248.35 Q 80.4 256.65 87.85 264.05 Q 95.05 271.25 101.9 272.35 Q 108.3 273.4 120.25 269.95 Q 130.85 266.85 143.9 260.8 Q 149.95 258 155.35 254.1 Q 160.5 250.4 162.8 247.3 Q 162.3 247.55 162.15 247.45 Q 161.75 247.25 160.65 247.15 Q 159.65 244.1 159.4 243 Q 158.7 240 158.9 237.25 Q 156.65 237.1 152.45 236.2 Q 148.45 235.25 147.8 235.1 Z M 145.85 184.7 Q 143.8 189.9 144.1 196.9 Q 144.4 204.05 146.9 207 L 150.65 207.65 Q 148.75 208.15 145.1 210.9 Q 141.5 213.6 140.3 215.35 Q 143.05 217.25 147.75 218.75 Q 150.05 219.5 151.85 219.85 L 151.4 223.95 Q 151.2 228.4 152.3 230.15 Q 157.3 231.55 162.8 231.65 L 162.9 234.9 Q 163.2 238.6 164.3 241.1 Q 166.65 241.45 173.3 241.3 L 174.95 244.2 Q 176.9 247.3 178.2 248.35 Q 179.45 247.1 180.5 243.5 Q 181.45 240.3 181.45 238.5 Q 178.1 232.15 176.3 229.05 L 168.7 216.4 Q 158.8 200.3 155.5 195.85 Q 151.7 190.9 145.85 184.7 Z M 110.15 193.05 Q 108.55 193.1 106.1 192.95 Q 106.65 199.75 112.95 209.45 Q 118.25 217.6 122.5 220.95 Q 124.1 221.35 125.7 221.2 Q 126.55 221.1 129 220.5 Q 134.35 219.15 136.35 218.05 Q 133.5 216.8 132.75 215.35 Q 133.65 214 137.3 210.9 Q 140.8 208.05 140.75 208.05 Q 139.25 204.15 138.7 199.85 Q 136.25 198.5 133.75 196.75 L 128.25 200.55 Q 121.7 205.05 118.25 205.6 Q 117.7 204.75 117.6 200.8 Q 117.65 196.5 117.55 195.4 Z M 117.2 159.45 Q 112.8 156.65 111.55 155.75 Q 112.45 157.45 113.9 160.9 L 110.9 165.6 Q 107.75 170.75 106.85 172.9 Q 108.45 174.4 112.65 175.85 Q 114.75 176.6 116.5 177 L 114.6 181.75 Q 112.7 187 112.85 189.4 Q 116.25 190.9 121.85 191.15 L 121.6 194.55 Q 121.35 198.15 121.4 199.05 Q 123.75 198.75 126.35 197.15 Q 128.75 195.6 129.75 193.95 Q 129.2 193.35 128.4 191.5 Q 127.55 189.55 127.2 189.05 Q 129.6 191.35 132.5 192.85 Q 135.7 194.55 138.15 194.55 Q 138.75 191.85 138.85 191.25 Q 139.7 186.35 142 181.3 Q 138.75 177.65 136 175.05 Q 131.7 171.5 130.3 170.25 Q 123.65 164.3 122.05 163.05 L 121 165 Q 119.9 167.15 119.9 168.2 Q 119.05 167 118.05 163.65 Q 117.1 160.45 117.2 159.45 Z M 66.35 134.35 Q 61.6 136.6 59.25 141.4 Q 57 145.95 57.35 151.9 Q 57.75 159.65 63.45 167.1 Q 68.9 174.25 77.35 178.7 Q 85.2 182.8 94.55 184.15 Q 100.5 185 110.05 184.9 Q 109.95 184.1 110.2 182.7 Q 110.55 181.05 110.7 180.2 Q 109.15 179.95 104.95 177.15 L 101.05 174.4 Q 106.5 164.45 109.85 160.7 Q 107.3 157.35 106.1 155.2 Q 100.45 150.8 96.15 143.5 Q 91.8 136.2 85.7 133.3 Q 77.2 129.2 66.35 134.35 Z M 168.45 130.5 Q 176.8 125.55 178.4 123.95 Q 178.4 124 182.35 123.35 Q 176.25 130.15 161.2 140.75 L 168.2 147.85 L 154.4 141.65 Q 152.45 142.15 148.1 142.6 Q 139.5 143.45 125.9 143.5 L 131.5 149.35 L 120.65 143.7 Q 114.75 141.35 109.65 141.15 Q 105.4 141.05 103.05 142.35 Q 103.4 142.8 104.5 145.4 Q 105.55 147.85 106.2 148.5 Q 140.55 166.35 160.1 192.55 Q 178 216.5 182.45 223.15 Q 197.4 245.55 204.35 265.1 Q 212.1 233.95 224.45 192.55 Q 226.5 185.65 227.75 179.75 Q 228.6 175.8 228.8 173.8 L 233.65 162.35 Q 235.35 155.5 242.4 136.5 Q 249.35 117.7 250.8 111.6 L 260.9 109.8 Q 254.2 124.3 248.65 137.5 L 245.55 145.05 Q 236.9 166.4 237.05 171.05 Q 237.05 171.5 235 176.5 Q 232.05 183.75 228.95 194 Q 223.3 212.9 217.85 235.55 Q 211.35 262.45 207.6 284.75 Q 197.2 283.55 182.75 277 Q 170.1 271.25 156 262.2 Q 151.85 264.7 147.9 266.5 Q 131.25 274.05 122.9 276.5 Q 108.7 280.65 98.5 278.1 Q 86.35 275.05 77.9 262.7 Q 70.6 252.05 70.6 243 Q 70.6 231.85 75.15 224.5 Q 80.1 216.45 89.5 214.95 Q 93.9 214.2 99.6 216.4 Q 102.6 217.55 106.85 219.2 Q 107.5 219.35 111 220.3 Q 114.55 221.25 116.05 221.35 Q 109.65 214.4 105.25 203.8 Q 101.55 195.1 101.25 192.65 Q 94.9 191.7 88.45 189.6 Q 80.9 187.1 75.2 183.65 Q 63.05 176.2 56.45 166.65 Q 49.85 157.05 50.35 147.4 Q 50.95 135.85 64.2 127.8 L 64.45 127.65 Q 70.05 124.4 77.6 125.15 Q 84.95 125.8 91.35 129.85 Q 95.4 132.35 97.55 135.3 Q 100.1 133.05 104.1 132.95 Q 107.3 132.85 111.95 134.2 Q 114.25 134.85 123 138.3 Q 133 138.25 144.85 138.45 Q 152.65 138.55 153.3 138.4 L 157.45 136.45 Q 162.2 134.15 168.45 130.5 Z" transform="translate(0.1,0)" fill="#452454"/>
		<path d="M 182.35 123.35 L 185.35 119.5 L 250.8 111.5 L 250.8 111.6 Q 249.35 117.7 242.4 136.5 Q 235.35 155.5 233.65 162.35 L 228.8 173.8 Q 228.6 175.8 227.75 179.75 Q 226.5 185.65 224.45 192.55 Q 212.1 233.95 204.35 265.1 Q 197.4 245.55 182.45 223.15 Q 178 216.5 160.1 192.55 Q 140.55 166.35 106.2 148.5 Q 105.55 147.85 104.5 145.4 Q 103.4 142.8 103.05 142.35 Q 105.4 141.05 109.65 141.15 Q 114.75 141.35 120.65 143.7 L 131.5 149.35 L 125.9 143.5 Q 139.5 143.45 148.1 142.6 Q 152.45 142.15 154.4 141.65 L 168.2 147.85 L 161.2 140.75 Q 176.25 130.15 182.35 123.35 Z" transform="translate(0.1,0)" fill="#FFFFFF"/>
		<path d="M 129.35 226.2 Q 140 224.85 144.15 222 Q 144.95 222.55 146.85 223.45 Q 147 232.95 147.8 235.1 Q 148.45 235.25 152.45 236.2 Q 156.65 237.1 158.9 237.25 Q 158.7 240 159.4 243 Q 159.65 244.1 160.65 247.15 Q 161.75 247.25 162.15 247.45 Q 162.3 247.55 162.8 247.3 Q 160.5 250.4 155.35 254.1 Q 149.95 258 143.9 260.8 Q 130.85 266.85 120.25 269.95 Q 108.3 273.4 101.9 272.35 Q 95.05 271.25 87.85 264.05 Q 80.4 256.65 78.35 248.35 Q 76.35 240.45 78.5 233.9 Q 81 226.25 88.6 223.05 Q 92 221.65 100.75 223.45 Q 105.25 224.4 110.75 225.8 Q 116.05 226.5 119.7 226.6 Q 124.7 226.8 129.35 226.2 Z" transform="translate(0.1,0)" fill="#FFEDC7"/>
		<path d="M 59.25 141.4 Q 61.6 136.6 66.35 134.35 Q 77.2 129.2 85.7 133.3 Q 91.8 136.2 96.15 143.5 Q 100.45 150.8 106.1 155.2 Q 107.3 157.35 109.85 160.7 Q 106.5 164.45 101.05 174.4 L 104.95 177.15 Q 109.15 179.95 110.7 180.2 Q 110.55 181.05 110.2 182.7 Q 109.95 184.1 110.05 184.9 Q 100.5 185 94.55 184.15 Q 85.2 182.8 77.35 178.7 Q 68.9 174.25 63.45 167.1 Q 57.75 159.65 57.35 151.9 Q 57 145.95 59.25 141.4 Z" transform="translate(0.1,0)" fill="#FFEDC7"/>
		<path d="M 144.1 196.9 Q 143.8 189.9 145.85 184.7 Q 151.7 190.9 155.5 195.85 Q 158.8 200.3 168.7 216.4 L 176.3 229.05 Q 178.1 232.15 181.45 238.5 Q 181.45 240.3 180.5 243.5 Q 179.45 247.1 178.2 248.35 Q 176.9 247.3 174.95 244.2 L 173.3 241.3 Q 166.65 241.45 164.3 241.1 Q 163.2 238.6 162.9 234.9 L 162.8 231.65 Q 157.3 231.55 152.3 230.15 Q 151.2 228.4 151.4 223.95 L 151.85 219.85 Q 150.05 219.5 147.75 218.75 Q 143.05 217.25 140.3 215.35 Q 141.5 213.6 145.1 210.9 Q 148.75 208.15 150.65 207.65 L 146.9 207 Q 144.4 204.05 144.1 196.9 Z" transform="translate(0.1,0)" fill="#FFFFFF"/>
		<path d="M 106.85 172.9 Q 107.75 170.75 110.9 165.6 L 113.9 160.9 Q 112.45 157.45 111.55 155.75 Q 112.8 156.65 117.2 159.45 Q 117.1 160.45 118.05 163.65 Q 119.05 167 119.9 168.2 Q 119.9 167.15 121 165 L 122.05 163.05 Q 123.65 164.3 130.3 170.25 Q 131.7 171.5 136 175.05 Q 138.75 177.65 142 181.3 Q 139.7 186.35 138.85 191.25 Q 138.75 191.85 138.15 194.55 Q 135.7 194.55 132.5 192.85 Q 129.6 191.35 127.2 189.05 Q 127.55 189.55 128.4 191.5 Q 129.2 193.35 129.75 193.95 Q 128.75 195.6 126.35 197.15 Q 123.75 198.75 121.4 199.05 Q 121.35 198.15 121.6 194.55 L 121.85 191.15 Q 116.25 190.9 112.85 189.4 Q 112.7 187 114.6 181.75 L 116.5 177 Q 114.75 176.6 112.65 175.85 Q 108.45 174.4 106.85 172.9 Z" transform="translate(0.1,0)" fill="#FFFFFF"/>
		<path d="M 106.1 192.95 Q 108.55 193.1 110.15 193.05 L 117.55 195.4 Q 117.65 196.5 117.6 200.8 Q 117.7 204.75 118.25 205.6 Q 121.7 205.05 128.25 200.55 L 133.75 196.75 Q 136.25 198.5 138.7 199.85 Q 139.25 204.15 140.75 208.05 Q 140.8 208.05 137.3 210.9 Q 133.65 214 132.75 215.35 Q 133.5 216.8 136.35 218.05 Q 134.35 219.15 129 220.5 Q 126.55 221.1 125.7 221.2 Q 124.1 221.35 122.5 220.95 Q 118.25 217.6 112.95 209.45 Q 106.65 199.75 106.1 192.95 Z" transform="translate(0.1,0)" fill="#D9DBD4"/>
		<path d="M 184.35 247 L 186.4 247.35 Q 194.35 262.5 198.25 274.2 Q 198.45 274.85 198.35 275.15 Q 198.3 275.4 197.9 275.8 Q 197.25 276.2 195.7 275.7 Q 184.75 272.25 177.95 269.6 Q 166.9 265.25 158.7 260.15 Q 169.3 252.7 172.2 247.5 Q 172.25 247.5 174.95 251.85 Q 177.85 256.15 178.45 256.1 Q 179.1 256 181.65 251.85 Q 184.05 247.95 184.35 247 Z" transform="translate(0.1,0)" fill="#D9DBD4"/>
	</g>
</svg>
