<?xml version="1.0"?>
<!DOCTYPE svg PUBLIC "-//W3C//DTD SVG 1.1//EN" "http://www.w3.org/Graphics/SVG/1.1/DTD/svg11.dtd">
<svg version='1.1' width='145px' height='126px' xmlns='http://www.w3.org/2000/svg' xmlns:xlink='http://www.w3.org/1999/xlink'>
	<g transform="translate(-0,-0.0110795)">
		<path d="M -135 151.6 Q -137.15 168.65 -137 185 L -142.1 185.5 Q -149.25 186.8 -159.65 191 Q -169.65 195 -187.2 195 Q -189.4 195 -198.55 194.75 Q -203.55 194.6 -204.3 195 Q -206.95 196.3 -227.65 202.3 L -228.3 202.85 Q -228.95 203.55 -228.9 204.5 Q -228.75 207.5 -221.65 211.65 Q -203.25 216.7 -165.4 209.5 Q -150.25 206.6 -138.85 202.85 Q -127.4 199.05 -125.65 196.3 Q -121.9 185.9 -120.05 148.75 L -119 113.65 Q -130.65 117.4 -135 151.6 Z M -148.05 144.9 Q -147.9 122.05 -158.3 125 L -157.9 139.4 Q -157.75 154.25 -159 156.3 Q -160.9 159.45 -176.5 162.75 Q -193.75 166.35 -205 163.65 L -207 174.3 Q -196.15 175.15 -183.65 174.8 Q -158.65 174.15 -150.3 168.3 Q -148.15 156.3 -148.05 144.9 Z M -113.65 101.65 Q -106.8 119.4 -104.8 142 Q -103.2 160.2 -105 176.3 Q -106.35 188.4 -117.25 202.15 Q -126.05 213.25 -135 219 Q -142.05 223.55 -165.5 225.75 Q -189.15 227.95 -201 225 Q -220.3 220.2 -231 212.35 Q -249 199.1 -249 175.65 Q -249 163.15 -229.25 147.95 Q -212.65 135.2 -185.05 122.65 Q -161.1 111.75 -139 105.35 Q -117.5 99.1 -113.65 101.65 Z" transform="translate(249,-100.9)" fill="#FF9B6F"/>
		<path d="M -137 185 Q -137.15 168.65 -135 151.6 Q -130.65 117.4 -119 113.65 L -120.05 148.75 Q -121.9 185.9 -125.65 196.3 Q -127.4 199.05 -138.85 202.85 Q -150.25 206.6 -165.4 209.5 Q -203.25 216.7 -221.65 211.65 Q -228.75 207.5 -228.9 204.5 Q -228.95 203.55 -228.3 202.85 L -227.65 202.3 Q -206.95 196.3 -204.3 195 Q -203.55 194.6 -198.55 194.75 Q -189.4 195 -187.2 195 Q -169.65 195 -159.65 191 Q -149.25 186.8 -142.1 185.5 Z" transform="translate(249,-100.9)" fill="#FFB99A"/>
		<path d="M -157.9 139.4 L -158.3 125 Q -147.9 122.05 -148.05 144.9 Q -148.15 156.3 -150.3 168.3 Q -158.65 174.15 -183.65 174.8 Q -196.15 175.15 -207 174.3 L -205 163.65 Q -193.75 166.35 -176.5 162.75 Q -160.9 159.45 -159 156.3 Q -157.75 154.25 -157.9 139.4 Z" transform="translate(249,-100.9)" fill="#FFB99A"/>
	</g>
</svg>
