<?xml version="1.0"?>
<!DOCTYPE svg PUBLIC "-//W3C//DTD SVG 1.1//EN" "http://www.w3.org/Graphics/SVG/1.1/DTD/svg11.dtd">
<svg version='1.1' width='73px' height='61px' xmlns='http://www.w3.org/2000/svg' xmlns:xlink='http://www.w3.org/1999/xlink'>
	<g transform="translate(-0.0101974,0.0102334)">
		<path d="M 14.35 33.3 Q 14.95 39.95 17.8 45.7 Q 20.65 51.5 25.2 55.3 Q 27 56.8 28.55 57.65 Q 19.9 56.65 14.4 51.35 Q 8.65 45.85 7.05 36.35 Q 5.1 24.3 15 13.8 Q 18.1 11.2 21.25 9.65 L 21.2 9.7 Q 17.35 14.3 15.6 20.45 Q 13.8 26.65 14.35 33.3 Z" transform="translate(0.05,0)" fill="#FFFFFF"/>
		<path d="M 63.5 20.4 Q 65.25 21.8 66.7 25.85 L 66.4 31.1 Q 64.35 38.95 60.65 44.55 Q 63.5 37.25 62.75 29.05 Q 62.25 22.7 59.5 16.9 Q 60.4 17.65 63.5 20.4 Z" transform="translate(0.05,0)" fill="#FFFFFF"/>
		<path d="M 62.75 29.05 Q 63.5 37.25 60.65 44.55 Q 58.9 49.05 55.95 52.6 Q 53 56.1 49.15 58.2 Q 45.35 60.3 41.15 60.65 Q 34.6 61.2 28.55 57.65 Q 27 56.8 25.2 55.3 Q 20.65 51.5 17.8 45.7 Q 14.95 39.95 14.35 33.3 Q 13.8 26.65 15.6 20.45 Q 17.35 14.3 21.2 9.7 L 21.25 9.65 Q 24.7 7.95 28.2 7.4 Q 32.5 6.7 36.9 7.1 L 36.45 7.1 Q 30.25 7.65 25.75 13.05 Q 22.6 16.8 21.15 21.95 Q 19.65 27.15 20.15 32.8 Q 20.65 38.4 23 43.25 Q 25.35 48.1 29.1 51.25 Q 34.55 55.8 40.7 55.25 Q 46.9 54.7 51.4 49.3 Q 55.4 44.45 56.65 37.6 Q 57.3 33.8 57 29.55 Q 56.5 23.9 54.15 19.05 Q 51.8 14.25 48.05 11.1 Q 45.85 9.3 43.75 8.35 Q 51.8 10.7 59.5 16.9 Q 62.25 22.7 62.75 29.05 Z" transform="translate(0.05,0)" fill="#452454"/>
		<path d="M 66.05 37.65 L 66.7 25.85 Q 65.25 21.8 63.5 20.4 Q 60.4 17.65 59.5 16.9 Q 51.8 10.7 43.75 8.35 Q 40.35 6.9 36.9 7.1 Q 32.5 6.7 28.2 7.4 Q 24.7 7.95 21.25 9.65 Q 18.1 11.2 15 13.8 Q 6.75 20.7 0 34.85 Q -0.55 25 6.5 14.85 Q 14.75 2.8 28.4 0.55 Q 52.75 -3.4 72.25 20.5 Z" transform="translate(0.05,0)" fill="#452454"/>
		<path d="M 50.65 14.05 Q 48.55 11.85 45.8 12.05 Q 43.6 12.25 41.95 14.1 Q 40.4 15.95 40 18.6 Q 38.6 18.15 37.15 18.2 Q 33.4 18.55 31.1 22.65 Q 28.8 26.75 29.3 32.25 Q 29.8 37.75 32.75 41.4 Q 35.75 45.05 39.5 44.7 Q 43.25 44.35 45.55 40.25 Q 47.85 36.15 47.35 30.65 Q 47.3 29.6 47.05 28.55 L 47.25 28.55 Q 50 28.35 51.7 25.75 Q 53.4 23.15 53.1 19.75 Q 52.8 16.3 50.65 14.05 Z M 48.05 11.1 Q 51.8 14.25 54.15 19.05 Q 56.5 23.9 57 29.55 Q 57.3 33.8 56.65 37.6 Q 55.4 44.45 51.4 49.3 Q 46.9 54.7 40.7 55.25 Q 34.55 55.8 29.1 51.25 Q 25.35 48.1 23 43.25 Q 20.65 38.4 20.15 32.8 Q 19.65 27.15 21.15 21.95 Q 22.6 16.8 25.75 13.05 Q 30.25 7.65 36.45 7.1 L 36.9 7.1 Q 40.35 6.9 43.75 8.35 Q 45.85 9.3 48.05 11.1 Z" transform="translate(0.05,0)" fill="#FF737D"/>
		<path d="M 42.3 26.45 Q 44.4 28.7 47.05 28.55 Q 47.3 29.6 47.35 30.65 Q 47.85 36.15 45.55 40.25 Q 43.25 44.35 39.5 44.7 Q 35.75 45.05 32.75 41.4 Q 29.8 37.75 29.3 32.25 Q 28.8 26.75 31.1 22.65 Q 33.4 18.55 37.15 18.2 Q 38.6 18.15 40 18.6 Q 39.85 19.6 39.95 20.9 Q 40.25 24.25 42.3 26.45 Z" transform="translate(0.05,0)" fill="#DE144D"/>
		<path d="M 41.95 14.1 Q 43.6 12.25 45.8 12.05 Q 48.55 11.85 50.65 14.05 Q 52.8 16.3 53.1 19.75 Q 53.4 23.15 51.7 25.75 Q 50 28.35 47.25 28.55 L 47.05 28.55 Q 44.4 28.7 42.3 26.45 Q 40.25 24.25 39.95 20.9 Q 39.85 19.6 40 18.6 Q 40.4 15.95 41.95 14.1 Z" transform="translate(0.05,0)" fill="#FFFFFF"/>
	</g>
</svg>
