<?xml version="1.0"?>
<!DOCTYPE svg PUBLIC "-//W3C//DTD SVG 1.1//EN" "http://www.w3.org/Graphics/SVG/1.1/DTD/svg11.dtd">
<svg version='1.1' width='155px' height='105px' xmlns='http://www.w3.org/2000/svg' xmlns:xlink='http://www.w3.org/1999/xlink'>
	<g transform="translate(0.0044592,-0.0102941)">
		<path d="M 139.55 67.15 Q 159.5 87.95 153.1 98.4 Q 146.7 108.85 119.05 100.65 Q 94.05 93.15 63.55 74.5 Q 33.05 55.85 15 37.05 Q -4.95 16.2 1.45 5.75 Q 7.85 -4.7 35.5 3.55 Q 60.5 11 91 29.65 Q 121.5 48.35 139.55 67.15 Z M 110.4 72.3 Q 110.7 71.95 110.7 71.3 Q 110.7 67.7 103.45 60.5 Q 95.2 52.3 82.1 44.25 Q 67.75 35.5 56.15 32.1 Q 45.8 29.1 44.15 31.85 Q 42.45 34.6 49.85 42.4 Q 58.15 51.2 72.45 59.95 Q 86.8 68.7 98.4 72.05 Q 108.75 75.05 110.4 72.3 Z" transform="translate(0.1,0.1)" fill="#452454"/>
		<path d="M 121.6 79.15 Q 121.9 78.55 121.9 77.75 Q 121.9 72.9 112.2 63.25 Q 101.25 52.35 83.7 41.6 Q 64.55 29.85 49.05 25.35 Q 35.2 21.3 33 25 Q 30.75 28.7 40.6 39.15 Q 51.65 50.85 70.85 62.6 Q 90.05 74.3 105.5 78.8 Q 119.35 82.85 121.6 79.15 Z M 132.45 69.75 Q 147.75 85 147.75 92.65 Q 147.75 94 147.25 94.85 Q 143.7 100.65 121.85 94.3 Q 97.4 87.15 67.15 68.65 Q 36.9 50.2 19.4 31.65 Q 11.95 23.8 8.8 17.8 Q 5.7 11.95 7.3 9.3 Q 8.95 6.65 15.5 6.75 Q 22.35 6.85 32.7 9.9 Q 57.15 17 87.4 35.5 Q 115.15 52.45 132.45 69.75 Z" transform="translate(0.1,0.1)" fill="#FFC42E"/>
	</g>
</svg>
