<?xml version="1.0"?>
<!DOCTYPE svg PUBLIC "-//W3C//DTD SVG 1.1//EN" "http://www.w3.org/Graphics/SVG/1.1/DTD/svg11.dtd">
<svg version='1.1' width='405px' height='252px' xmlns='http://www.w3.org/2000/svg' xmlns:xlink='http://www.w3.org/1999/xlink'>
	<g transform="translate(-0,0.00555556)">
		<path d="M 358 192.35 Q 359.15 177.65 354 167.05 Q 347.2 152.95 335.7 143.85 Q 321.5 132.65 303.45 132.35 Q 295.85 132.25 287.35 135.35 Q 278.05 138.75 272.55 144.35 Q 266.2 150.85 263.85 160.55 Q 261.8 169.15 263.15 179.05 Q 264.75 190.5 274.6 198.8 Q 283.05 206 290.6 206.25 Q 299.6 206.55 304.6 205.4 Q 309.95 204.1 313.75 200.5 Q 316.45 197.9 317.65 194.25 Q 318.8 190.85 318.85 185.95 Q 318.95 180.8 315.55 175.45 Q 311.8 169.6 306.35 168.35 Q 301.35 167.2 296.9 167.6 Q 291.1 168.15 288.4 171.2 Q 291.2 165.2 297.7 162.35 Q 304 159.55 310.6 161.05 Q 318.35 162.85 324.95 170.6 Q 330.95 177.65 331.3 183.35 Q 331.75 190.7 330.3 195.8 Q 328.4 202.4 323.15 206.5 Q 317.55 210.85 309.4 213.2 Q 300.7 215.7 290.85 215.35 Q 280.3 215 268.55 205.3 Q 255 194.15 254.45 179.95 Q 254.45 179.6 254 174.55 Q 253.75 171.45 254.15 169.2 Q 255.2 163.25 256.7 159.35 Q 244.6 153.2 233.65 137.6 Q 227.95 129.4 219.6 113.25 Q 213.25 115.7 201.9 118.7 Q 202.2 134.55 206.95 151.8 Q 211.75 169.2 220.5 186.1 Q 230.8 205.9 244.05 220.1 Q 257.3 234.3 269.8 239 Q 293.1 247.7 316.75 241 Q 338.25 234.9 348.45 220.2 Q 356.75 208.25 358 192.35 Z M 326.6 32.15 Q 354.05 29.15 375.7 43.3 Q 393.8 55.2 400.3 72.75 Q 405.45 86.65 403.5 101 Q 401.5 115.85 392.3 127.05 Q 376.75 146.05 354 148.8 Q 361.1 158.5 363.2 163.05 Q 369.05 175.8 368 192.3 Q 366.75 211.1 356.45 226.05 Q 345.25 242.3 320.6 248.65 Q 293.85 255.55 267.3 245.65 Q 255 241.05 242.2 228.2 Q 229.75 215.8 219.3 198.1 Q 208.65 180.1 202.3 160.45 Q 195.55 139.6 194.85 120.45 Q 171.75 126.05 140.3 131.15 Q 112.5 135.7 106.45 135.65 Q 105.55 132.05 104.3 126 Q 102.7 118.05 102.45 114.65 Q 101.65 117.8 100.45 125.1 Q 99.15 132.85 99 136.05 Q 72.5 136.55 41.9 132.9 Q 10.6 129.2 0 124.05 Q 1.65 112.15 13.9 93.25 Q 25.15 75.95 38.3 62.85 Q 45.7 41.95 67.85 24.75 Q 92.3 5.85 123.3 1.35 Q 165.35 -4.75 202.85 16.6 Q 228.25 31.05 250.15 57.3 Q 253.6 61.45 260 68.55 Q 265.9 75.2 272.8 80.5 Q 278.5 84.9 283.5 87.35 Q 281.85 77.7 283.65 68.35 Q 285.45 58.75 290.35 52.6 Q 297.2 44.05 306.95 38.55 Q 316.55 33.2 326.6 32.15 Z M 327.25 63.75 Q 332.8 62.8 338.45 64.85 Q 343.65 66.75 347.6 70.6 Q 351.4 74.35 352.9 80.55 Q 354.1 85.75 353.5 91.6 Q 352.95 96.9 350.3 101.7 Q 347.6 106.5 343.3 109.95 Q 338.85 113.45 335.2 114.9 Q 329.45 117.25 322.1 116.7 Q 317.25 116.35 311.85 114.85 Q 306.75 113.5 302.85 111.6 Q 298.95 110.1 292.45 105.8 Q 286.7 102 282.9 98.8 Q 275.75 93.2 267.3 85.35 Q 261.3 79.85 255.05 73.6 Q 251.9 70.5 244.7 61.8 Q 222.2 34.85 200.9 21.95 Q 165.85 0.7 124.3 7.15 Q 101.55 10.7 81.8 24.1 Q 64.4 35.95 51.4 53.9 Q 54.4 52.05 58.05 50.6 Q 62.55 48.75 64.45 49.2 Q 50.7 57.95 33.5 77.95 Q 13.45 101.35 7.7 120.25 Q 19.6 124.65 44.25 127.85 Q 69.95 131.15 92.6 130.9 Q 95.1 116.15 98.85 103.2 Q 100.2 98.65 102.15 93.05 Q 103.95 88 105.15 85.2 Q 105.15 85.35 106 100.95 Q 107.4 118.8 110.3 130.65 Q 127.1 129.15 166.55 120 Q 211.65 109.55 226.7 101.5 Q 222.3 89.6 213.1 76.8 Q 203.9 65 201.85 61.9 Q 206.4 64 211.25 68.3 Q 217.35 73.75 222.15 81.35 Q 227.25 89.45 229.35 93.55 Q 233.05 100.7 234.25 106.75 Q 233.3 107.35 229.1 109.3 Q 224.95 111.15 224.55 111.35 Q 230 121.7 239.2 131.8 Q 250 143.6 261.45 149.5 Q 262.9 146.9 265.3 144.4 Q 266.7 142.95 269.85 139.85 Q 276.35 133.25 285.6 129.8 Q 294.15 126.65 303.15 126.75 Q 317.7 127.05 329.45 131.05 Q 336.4 133.45 341.3 136.35 Q 346.2 139.25 350.15 143.3 Q 360.45 142.55 368.2 138.65 Q 377.2 134.05 383.9 124.65 Q 390.35 115.7 392.7 103.25 Q 395.25 89.75 391.75 77.6 Q 387.15 61.65 371.05 50.15 Q 351.95 36.5 327.35 39.15 Q 318.45 40.15 309.8 44.65 Q 300.6 49.5 294.85 56.9 Q 290.8 62.15 289.4 70.6 Q 287.75 80.25 290.8 89.05 Q 293.7 97.55 301.7 103 Q 309.05 108.05 318.5 109.25 Q 330.8 110.8 338.85 104.4 Q 342.05 101.85 344.05 98.3 Q 346.05 94.75 346.45 90.85 Q 346.85 87.45 345.35 83.85 Q 343.9 80.3 340.95 77.45 Q 338.4 74.95 335.45 73.7 Q 332.5 72.4 330.05 72.75 Q 323 73.8 319.85 78.6 Q 317.05 82.9 317.85 89.35 Q 309.25 79.85 313.6 72.1 Q 317.35 65.4 327.25 63.75 Z" fill="#452454"/>
		<path d="M 330.05 72.75 Q 332.5 72.4 335.45 73.7 Q 338.4 74.95 340.95 77.45 Q 343.9 80.3 345.35 83.85 Q 346.85 87.45 346.45 90.85 Q 346.05 94.75 344.05 98.3 Q 342.05 101.85 338.85 104.4 Q 330.8 110.8 318.5 109.25 Q 309.05 108.05 301.7 103 Q 293.7 97.55 290.8 89.05 Q 287.75 80.25 289.4 70.6 Q 290.8 62.15 294.85 56.9 Q 300.6 49.5 309.8 44.65 Q 318.45 40.15 327.35 39.15 Q 351.95 36.5 371.05 50.15 Q 387.15 61.65 391.75 77.6 Q 395.25 89.75 392.7 103.25 Q 390.35 115.7 383.9 124.65 Q 377.2 134.05 368.2 138.65 Q 360.45 142.55 350.15 143.3 Q 346.2 139.25 341.3 136.35 Q 336.4 133.45 329.45 131.05 Q 317.7 127.05 303.15 126.75 Q 294.15 126.65 285.6 129.8 Q 276.35 133.25 269.85 139.85 Q 266.7 142.95 265.3 144.4 Q 262.9 146.9 261.45 149.5 Q 250 143.6 239.2 131.8 Q 230 121.7 224.55 111.35 Q 224.95 111.15 229.1 109.3 Q 233.3 107.35 234.25 106.75 Q 233.05 100.7 229.35 93.55 Q 227.25 89.45 222.15 81.35 Q 217.35 73.75 211.25 68.3 Q 206.4 64 201.85 61.9 Q 203.9 65 213.1 76.8 Q 222.3 89.6 226.7 101.5 Q 211.65 109.55 166.55 120 Q 127.1 129.15 110.3 130.65 Q 107.4 118.8 106 100.95 Q 105.15 85.35 105.15 85.2 Q 103.95 88 102.15 93.05 Q 100.2 98.65 98.85 103.2 Q 95.1 116.15 92.6 130.9 Q 69.95 131.15 44.25 127.85 Q 19.6 124.65 7.7 120.25 Q 13.45 101.35 33.5 77.95 Q 50.7 57.95 64.45 49.2 Q 62.55 48.75 58.05 50.6 Q 54.4 52.05 51.4 53.9 Q 64.4 35.95 81.8 24.1 Q 101.55 10.7 124.3 7.15 Q 165.85 0.7 200.9 21.95 Q 222.2 34.85 244.7 61.8 Q 251.9 70.5 255.05 73.6 Q 261.3 79.85 267.3 85.35 Q 275.75 93.2 282.9 98.8 Q 286.7 102 292.45 105.8 Q 298.95 110.1 302.85 111.6 Q 306.75 113.5 311.85 114.85 Q 317.25 116.35 322.1 116.7 Q 329.45 117.25 335.2 114.9 Q 338.85 113.45 343.3 109.95 Q 347.6 106.5 350.3 101.7 Q 352.95 96.9 353.5 91.6 Q 354.1 85.75 352.9 80.55 Q 351.4 74.35 347.6 70.6 Q 343.65 66.75 338.45 64.85 Q 332.8 62.8 327.25 63.75 Q 317.35 65.4 313.6 72.1 Q 309.25 79.85 317.85 89.35 Q 317.05 82.9 319.85 78.6 Q 323 73.8 330.05 72.75 Z" fill="#33B0FF"/>
		<path d="M 354 167.05 Q 359.15 177.65 358 192.35 Q 356.75 208.25 348.45 220.2 Q 338.25 234.9 316.75 241 Q 293.1 247.7 269.8 239 Q 257.3 234.3 244.05 220.1 Q 230.8 205.9 220.5 186.1 Q 211.75 169.2 206.95 151.8 Q 202.2 134.55 201.9 118.7 Q 213.25 115.7 219.6 113.25 Q 227.95 129.4 233.65 137.6 Q 244.6 153.2 256.7 159.35 Q 255.2 163.25 254.15 169.2 Q 253.75 171.45 254 174.55 Q 254.45 179.6 254.45 179.95 Q 255 194.15 268.55 205.3 Q 280.3 215 290.85 215.35 Q 300.7 215.7 309.4 213.2 Q 317.55 210.85 323.15 206.5 Q 328.4 202.4 330.3 195.8 Q 331.75 190.7 331.3 183.35 Q 330.95 177.65 324.95 170.6 Q 318.35 162.85 310.6 161.05 Q 304 159.55 297.7 162.35 Q 291.2 165.2 288.4 171.2 Q 291.1 168.15 296.9 167.6 Q 301.35 167.2 306.35 168.35 Q 311.8 169.6 315.55 175.45 Q 318.95 180.8 318.85 185.95 Q 318.8 190.85 317.65 194.25 Q 316.45 197.9 313.75 200.5 Q 309.95 204.1 304.6 205.4 Q 299.6 206.55 290.6 206.25 Q 283.05 206 274.6 198.8 Q 264.75 190.5 263.15 179.05 Q 261.8 169.15 263.85 160.55 Q 266.2 150.85 272.55 144.35 Q 278.05 138.75 287.35 135.35 Q 295.85 132.25 303.45 132.35 Q 321.5 132.65 335.7 143.85 Q 347.2 152.95 354 167.05 Z" fill="#33B0FF"/>
	</g>
</svg>
