<?xml version="1.0"?>
<!DOCTYPE svg PUBLIC "-//W3C//DTD SVG 1.1//EN" "http://www.w3.org/Graphics/SVG/1.1/DTD/svg11.dtd">
<svg version='1.1' width='577px' height='616px' xmlns='http://www.w3.org/2000/svg' xmlns:xlink='http://www.w3.org/1999/xlink'>
		<path d="M 580.9 152 Q 591.95 165.25 595.25 178 L 611 739 L 35 739 L 34 351 Q 34 343.75 36.5 334.9 Q 39.4 324.5 44.9 316 Q 59.25 293.65 85 293 Q 109.4 292.4 124.15 316.15 Q 131.5 328 134 340 Q 154 355 156 378.5 Q 157 390.25 154 399 Q 164.65 396.5 171.4 407 Q 174.75 412.25 176 418 Q 213.5 419.25 225 452.75 Q 228.6 463.2 229.15 475.65 Q 229.45 481.9 229 486 Q 240.25 481.65 252.75 489.4 Q 259 493.25 263 498 Q 273.65 463.65 298.9 454.9 Q 311.5 450.5 322 453 Q 319.75 445.25 320.25 434.5 Q 321.25 413 335 398 Q 348.75 383 363.25 379 Q 370.5 377 375 378 Q 372.75 374.75 371.15 368.4 Q 367.9 355.65 371 340 Q 374.15 324.4 386.4 312.15 Q 392.5 306 398 303 Q 395.5 274.25 411 261.25 Q 418.75 254.75 427 254 Q 424.25 247.25 423.15 237.15 Q 420.9 216.9 429 200 Q 437.15 183.15 452.9 174.4 Q 460.75 170 467 169 Q 467.4 166.15 468.65 161.8 Q 471.25 153.2 475.9 146 Q 490.65 123 520 123 Q 558.75 125.5 580.9 152 Z" transform="translate(-34,-123)" fill="#FFFFFF"/>
</svg>
