<?xml version="1.0"?>
<!DOCTYPE svg PUBLIC "-//W3C//DTD SVG 1.1//EN" "http://www.w3.org/Graphics/SVG/1.1/DTD/svg11.dtd">
<svg version='1.1' width='47px' height='47px' xmlns='http://www.w3.org/2000/svg' xmlns:xlink='http://www.w3.org/1999/xlink'>
		<path d="M 168 419.55 Q 170.2 422.25 171.75 424.5 Q 168.15 427.15 162.45 428.6 L 157.5 429.5 Q 157.05 433.4 154.7 439.2 Q 153.55 442.15 152.5 444.25 Q 148.3 441.9 144.45 436.85 L 141.5 432.25 Q 138.55 433.2 131.6 433.45 L 125.25 433.5 Q 125.55 429.3 128.3 423.6 L 131 418.75 Q 128.65 413.45 128.45 407.7 L 128.75 403 Q 132.8 402.85 138.45 404.05 Q 141.25 404.65 143.25 405.25 Q 145.9 402.3 151.45 399.6 Q 154.25 398.25 156.5 397.5 Q 159 401.1 160 406.8 Q 160.5 409.65 160.5 411.75 Q 163.65 414.1 168 419.55 Z" transform="translate(-125.25,-397.5)" fill="#FF6672"/>
</svg>
