<?xml version="1.0"?>
<!DOCTYPE svg PUBLIC "-//W3C//DTD SVG 1.1//EN" "http://www.w3.org/Graphics/SVG/1.1/DTD/svg11.dtd">
<svg version='1.1' width='582px' height='501px' xmlns='http://www.w3.org/2000/svg' xmlns:xlink='http://www.w3.org/1999/xlink'>
	<g transform="translate(-0,0.0145548)">
		<path d="M 462.65 344.45 Q 467.5 341.45 471 340 Q 464.75 314.4 481.25 301.15 Q 489.5 294.5 499 293 Q 500.45 268.05 516.65 254.5 Q 532.15 241.45 556 243 Q 581 244.9 595 266.15 Q 602 276.75 604 287 L 615 742 L 33 743 L 34 426 Q 33 418.5 36 410 Q 42 393 62 388 Q 82 383 98 400 Q 106 408.5 110 418 Q 130 416.15 141.5 436.4 Q 147.25 446.5 149 457 Q 181.5 461.4 189 487.65 Q 192.75 500.75 190 513 Q 211.25 519.9 214.75 540.65 Q 216.5 551 214 560 Q 219 558.75 223 564.25 Q 225 567 226 570 Q 243.5 558.15 261 560.4 Q 269.75 561.5 275 565 Q 291.25 523.15 333.25 518.4 Q 346.4 516.9 360.5 519.3 Q 367.55 520.5 372 522 Q 371.4 486.4 398.15 470.15 Q 406.5 465.05 416.6 462.5 Q 421.65 461.25 425 461 Q 416.25 444.15 427.75 429.9 Q 433.5 422.75 441 419 Q 424.75 384 446.25 358.5 Q 452.95 350.55 462.65 344.45 Z" transform="translate(-33,-242.85)" fill="#DCFFFF"/>
	</g>
</svg>
