<?xml version="1.0"?>
<!DOCTYPE svg PUBLIC "-//W3C//DTD SVG 1.1//EN" "http://www.w3.org/Graphics/SVG/1.1/DTD/svg11.dtd">
<svg version='1.1' width='60px' height='45px' xmlns='http://www.w3.org/2000/svg' xmlns:xlink='http://www.w3.org/1999/xlink'>
	<g transform="translate(-0,0.022973)">
		<path d="M 54.55 10.1 Q 54.65 8.15 54.05 6.75 Q 53.2 4.95 51.3 4.7 Q 49.1 4.4 47.3 5.95 Q 45.3 7.65 45.2 10.45 Q 45.1 12.6 46.5 15.9 Q 48.1 19.6 50.15 20.65 Q 51.65 18.7 53.05 15.25 Q 54.45 11.9 54.55 10.1 Z M 52.6 0.15 Q 56.45 0.8 58.05 4.55 Q 59.65 8.45 58.7 14.95 Q 58.35 19.05 54.35 25.05 Q 49.5 32.25 42.65 36.25 Q 34 41.3 21.85 43.3 Q 7.9 45.6 0 41.35 Q 9.25 42.05 19.4 40.05 Q 29.45 38.05 35.7 34.35 Q 40.2 31.65 43.75 28.7 Q 47.2 25.7 48.15 23.8 Q 45.15 21.75 42.6 17.9 Q 41.45 16.15 40.85 13.9 Q 40.2 11.5 40.35 9.1 Q 40.6 4.95 44.15 2.25 Q 47.8 -0.65 52.6 0.15 Z" fill="#452454"/>
		<path d="M 51.3 4.7 Q 53.2 4.95 54.05 6.75 Q 54.65 8.15 54.55 10.1 Q 54.45 11.9 53.05 15.25 Q 51.65 18.7 50.15 20.65 Q 48.1 19.6 46.5 15.9 Q 45.1 12.6 45.2 10.45 Q 45.3 7.65 47.3 5.95 Q 49.1 4.4 51.3 4.7 Z" fill="#FF9C99"/>
	</g>
</svg>
