<?xml version="1.0"?>
<!DOCTYPE svg PUBLIC "-//W3C//DTD SVG 1.1//EN" "http://www.w3.org/Graphics/SVG/1.1/DTD/svg11.dtd">
<svg version='1.1' width='44px' height='51px' xmlns='http://www.w3.org/2000/svg' xmlns:xlink='http://www.w3.org/1999/xlink'>
	<g transform="translate(-0.0148649,-0.0150376)">
		<path d="M 9 10.15 Q 7.4 13.25 6.9 17 Q 6.25 21.45 7 26.35 Q 7.8 31.25 9.8 35.75 Q 10.55 37.5 11.7 39.4 Q 14.95 44.95 19.45 47.8 Q 14.75 46.65 10.35 43 Q 9.3 41.55 7.7 38.15 Q 6.2 34.95 5.75 33.4 Q 5.45 32.6 5.15 30.55 Q 4.8 28.45 4.85 27.3 Q 5.2 15.1 9 10.15 Z" transform="translate(-0.05,0)" fill="#FFFFFF"/>
		<path d="M 35.45 17.85 Q 34.75 16.25 33.55 14.15 Q 36.55 17.6 40.05 23.2 Q 40.8 29.8 38.45 35.9 Q 38.95 31.55 38.15 26.9 Q 37.4 22.2 35.45 17.85 Z" transform="translate(-0.05,0)" fill="#FFFFFF"/>
		<path d="M 41.2 20.45 Q 41.75 21.55 42.4 23.9 Q 43.1 26.6 43.15 28.4 L 40.05 23.2 Q 36.55 17.6 33.55 14.15 Q 29.6 7.6 24.25 4.9 Q 21.25 3.4 18.35 3.5 Q 15.45 3.6 13.05 5.3 Q 10.6 7 9 10.15 Q 5.2 15.1 4.85 27.3 Q 4.8 28.45 5.15 30.55 Q 5.45 32.6 5.75 33.4 Q 6.2 34.95 7.7 38.15 Q 9.3 41.55 10.35 43 L 10.4 43.05 Q 9.1 42.95 5.6 39.75 Q 1.8 36.3 0.2 33.15 Q -0.3 22.45 1.05 15.95 Q 3.9 1.75 14.3 0.25 Q 22.75 -1 29.55 4.4 Q 35.7 9.35 41.2 20.45 Z" transform="translate(-0.05,0)" fill="#452454"/>
		<path d="M 28.35 13.5 Q 26 10.75 23.35 9.45 Q 18.75 7.15 15 9.7 Q 11.35 12.3 10.4 18.5 Q 9.9 22 10.55 25.9 Q 11.15 29.85 12.75 33.45 Q 14.35 37.1 16.7 39.8 Q 19.05 42.55 21.7 43.85 Q 26.4 46.15 30.1 43.6 Q 33.8 41.05 34.65 34.85 Q 35.2 31.3 34.55 27.4 Q 33.95 23.5 32.3 19.85 Q 30.7 16.2 28.35 13.5 Z M 24.25 4.9 Q 29.6 7.6 33.55 14.15 Q 34.75 16.25 35.45 17.85 Q 37.4 22.2 38.15 26.9 Q 38.95 31.55 38.45 35.9 L 38.35 36.65 Q 37.25 44.85 32.2 48.35 Q 29.8 50.05 26.95 50.15 Q 24.05 50.25 21.05 48.75 L 19.45 47.8 Q 14.95 44.95 11.7 39.4 Q 10.55 37.5 9.8 35.75 Q 7.8 31.25 7 26.35 Q 6.25 21.45 6.9 17 Q 7.4 13.25 9 10.15 Q 10.6 7 13.05 5.3 Q 15.45 3.6 18.35 3.5 Q 21.25 3.4 24.25 4.9 Z" transform="translate(-0.05,0)" fill="#452454"/>
		<path d="M 22.7 12.8 Q 22.1 13.4 21.85 14.5 Q 19.4 13.65 17.4 15 Q 15 16.75 14.45 20.75 Q 13.75 25.95 16.15 31.35 Q 18.6 36.8 22.45 38.75 Q 25.55 40.3 27.9 38.6 Q 30.2 37 30.85 32.9 Q 31.55 27.65 29.15 22.3 Q 28.35 20.65 27.35 19.1 Q 27.9 18.05 27.8 16.65 Q 27.7 15.2 27 14 Q 26.1 12.55 24.85 12.2 Q 23.6 11.85 22.7 12.8 Z M 23.35 9.45 Q 26 10.75 28.35 13.5 Q 30.7 16.2 32.3 19.85 Q 33.95 23.5 34.55 27.4 Q 35.2 31.3 34.65 34.85 Q 33.8 41.05 30.1 43.6 Q 26.4 46.15 21.7 43.85 Q 19.05 42.55 16.7 39.8 Q 14.35 37.1 12.75 33.45 Q 11.15 29.85 10.55 25.9 Q 9.9 22 10.4 18.5 Q 11.35 12.3 15 9.7 Q 18.75 7.15 23.35 9.45 Z" transform="translate(-0.05,0)" fill="#FF737D"/>
		<path d="M 27.35 19.1 Q 28.35 20.65 29.15 22.3 Q 31.55 27.65 30.85 32.9 Q 30.2 37 27.9 38.6 Q 25.55 40.3 22.45 38.75 Q 18.6 36.8 16.15 31.35 Q 13.75 25.95 14.45 20.75 Q 15 16.75 17.4 15 Q 19.4 13.65 21.85 14.5 Q 21.4 16.75 22.6 18.7 Q 23.45 20.15 24.7 20.5 Q 25.95 20.85 26.9 19.85 Q 27.25 19.35 27.35 19.1 Z" transform="translate(-0.05,0)" fill="#DE144D"/>
		<path d="M 22.6 18.7 Q 21.4 16.75 21.85 14.5 Q 22.1 13.4 22.7 12.8 Q 23.6 11.85 24.85 12.2 Q 26.1 12.55 27 14 Q 27.7 15.2 27.8 16.65 Q 27.9 18.05 27.35 19.1 Q 27.25 19.35 26.9 19.85 Q 25.95 20.85 24.7 20.5 Q 23.45 20.15 22.6 18.7 Z" transform="translate(-0.05,0)" fill="#FFFFFF"/>
	</g>
</svg>
